G04 #@! TF.GenerationSoftware,KiCad,Pcbnew,(5.1.8)-1*
G04 #@! TF.CreationDate,2021-01-06T21:55:42-05:00*
G04 #@! TF.ProjectId,ECG_Amplifier,4543475f-416d-4706-9c69-666965722e6b,rev?*
G04 #@! TF.SameCoordinates,Original*
G04 #@! TF.FileFunction,Copper,L2,Bot*
G04 #@! TF.FilePolarity,Positive*
%FSLAX46Y46*%
G04 Gerber Fmt 4.6, Leading zero omitted, Abs format (unit mm)*
G04 Created by KiCad (PCBNEW (5.1.8)-1) date 2021-01-06 21:55:42*
%MOMM*%
%LPD*%
G01*
G04 APERTURE LIST*
G04 #@! TA.AperFunction,Profile*
%ADD10C,0.254000*%
G04 #@! TD*
G04 #@! TA.AperFunction,ComponentPad*
%ADD11R,1.500000X1.500000*%
G04 #@! TD*
G04 #@! TA.AperFunction,ComponentPad*
%ADD12C,1.500000*%
G04 #@! TD*
G04 #@! TA.AperFunction,ComponentPad*
%ADD13C,1.300000*%
G04 #@! TD*
G04 #@! TA.AperFunction,ComponentPad*
%ADD14C,2.250000*%
G04 #@! TD*
G04 #@! TA.AperFunction,ComponentPad*
%ADD15C,2.500000*%
G04 #@! TD*
G04 #@! TA.AperFunction,ComponentPad*
%ADD16O,1.700000X1.700000*%
G04 #@! TD*
G04 #@! TA.AperFunction,ComponentPad*
%ADD17R,1.700000X1.700000*%
G04 #@! TD*
G04 #@! TA.AperFunction,ComponentPad*
%ADD18C,3.000000*%
G04 #@! TD*
G04 #@! TA.AperFunction,ComponentPad*
%ADD19R,3.000000X3.000000*%
G04 #@! TD*
G04 #@! TA.AperFunction,ComponentPad*
%ADD20O,1.905000X2.000000*%
G04 #@! TD*
G04 #@! TA.AperFunction,ComponentPad*
%ADD21R,1.905000X2.000000*%
G04 #@! TD*
G04 #@! TA.AperFunction,ComponentPad*
%ADD22O,1.600000X1.600000*%
G04 #@! TD*
G04 #@! TA.AperFunction,ComponentPad*
%ADD23R,1.600000X1.600000*%
G04 #@! TD*
G04 #@! TA.AperFunction,ComponentPad*
%ADD24O,1.400000X1.400000*%
G04 #@! TD*
G04 #@! TA.AperFunction,ComponentPad*
%ADD25C,1.400000*%
G04 #@! TD*
G04 #@! TA.AperFunction,ComponentPad*
%ADD26C,1.600000*%
G04 #@! TD*
G04 #@! TA.AperFunction,ComponentPad*
%ADD27O,2.200000X2.200000*%
G04 #@! TD*
G04 #@! TA.AperFunction,ComponentPad*
%ADD28R,2.200000X2.200000*%
G04 #@! TD*
G04 #@! TA.AperFunction,ViaPad*
%ADD29C,0.600000*%
G04 #@! TD*
G04 #@! TA.AperFunction,Conductor*
%ADD30C,0.127000*%
G04 #@! TD*
G04 #@! TA.AperFunction,Conductor*
%ADD31C,0.150000*%
G04 #@! TD*
G04 APERTURE END LIST*
D10*
X126500000Y-127500000D02*
G75*
G03*
X130000000Y-124000000I0J3500000D01*
G01*
X130000000Y-76000000D02*
G75*
G03*
X126500000Y-72500000I-3500000J0D01*
G01*
X70000000Y-124000000D02*
G75*
G03*
X73500000Y-127500000I3500000J0D01*
G01*
X73500000Y-72500000D02*
G75*
G03*
X70000000Y-76000000I0J-3500000D01*
G01*
X70000000Y-76000000D02*
X70000000Y-124000000D01*
X130000000Y-76000000D02*
X130000000Y-124000000D01*
X73500000Y-127500000D02*
X126500000Y-127500000D01*
X73500000Y-72500000D02*
X126500000Y-72500000D01*
D11*
X117000000Y-91000000D03*
D12*
X117000000Y-96080000D03*
X117000000Y-93540000D03*
D13*
X118750000Y-104000000D03*
D14*
X118750000Y-99900000D03*
X118750000Y-108100000D03*
D13*
X118750000Y-106000000D03*
X118750000Y-102000000D03*
D15*
X81900000Y-102750000D03*
X81900000Y-97250000D03*
X76600000Y-101500000D03*
D16*
X126500000Y-105080000D03*
X126500000Y-102540000D03*
X126500000Y-100000000D03*
X126500000Y-97460000D03*
D17*
X126500000Y-94920000D03*
D18*
X125500000Y-117750000D03*
D19*
X125500000Y-82250000D03*
D20*
X105920000Y-100500000D03*
X108460000Y-100500000D03*
D21*
X111000000Y-100500000D03*
D22*
X97620000Y-81190000D03*
X90000000Y-88810000D03*
X97620000Y-83730000D03*
X90000000Y-86270000D03*
X97620000Y-86270000D03*
X90000000Y-83730000D03*
X97620000Y-88810000D03*
D23*
X90000000Y-81190000D03*
D22*
X97620000Y-96190000D03*
X90000000Y-103810000D03*
X97620000Y-98730000D03*
X90000000Y-101270000D03*
X97620000Y-101270000D03*
X90000000Y-98730000D03*
X97620000Y-103810000D03*
D23*
X90000000Y-96190000D03*
D24*
X101120000Y-87540000D03*
D25*
X101120000Y-82460000D03*
D22*
X97620000Y-111190000D03*
X90000000Y-118810000D03*
X97620000Y-113730000D03*
X90000000Y-116270000D03*
X97620000Y-116270000D03*
X90000000Y-113730000D03*
X97620000Y-118810000D03*
D23*
X90000000Y-111190000D03*
D17*
X91270000Y-123000000D03*
D16*
X93810000Y-123000000D03*
X96350000Y-123000000D03*
D24*
X86500000Y-112460000D03*
D25*
X86500000Y-117540000D03*
D24*
X101120000Y-112460000D03*
D25*
X101120000Y-117540000D03*
D24*
X101120000Y-97460000D03*
D25*
X101120000Y-102540000D03*
D24*
X86500000Y-102540000D03*
D25*
X86500000Y-97460000D03*
D26*
X91310000Y-107500000D03*
X96310000Y-107500000D03*
D24*
X115120000Y-87620000D03*
D25*
X115120000Y-82540000D03*
D24*
X108120000Y-82460000D03*
D25*
X108120000Y-87540000D03*
D24*
X111620000Y-82460000D03*
D25*
X111620000Y-87540000D03*
D27*
X118750000Y-119370000D03*
D28*
X118750000Y-111750000D03*
D26*
X105920000Y-91250000D03*
X105920000Y-96250000D03*
X111000000Y-91250000D03*
X111000000Y-96250000D03*
X118620000Y-87500000D03*
X118620000Y-82500000D03*
X91310000Y-77500000D03*
X96310000Y-77500000D03*
X104620000Y-82500000D03*
X104620000Y-87500000D03*
X86500000Y-87500000D03*
X86500000Y-82500000D03*
X91310000Y-92500000D03*
X96310000Y-92500000D03*
D29*
X114617500Y-89154000D03*
X105981500Y-79756000D03*
X95440500Y-87503000D03*
X89408000Y-123761500D03*
X88265000Y-84582000D03*
X92837000Y-85979000D03*
X101219000Y-90297000D03*
X102806500Y-84582000D03*
X88265000Y-86804500D03*
X88455500Y-101092000D03*
X93535500Y-80264000D03*
X99504500Y-82994500D03*
X71004999Y-75755000D03*
X71004999Y-84555000D03*
X71004999Y-93355000D03*
X71004999Y-102155000D03*
X71004999Y-110955000D03*
X71004999Y-119755000D03*
X75804999Y-79755000D03*
X75804999Y-97355000D03*
X75804999Y-106155000D03*
X75804999Y-125355000D03*
X78204999Y-118155000D03*
X79004999Y-74155000D03*
X79004999Y-91755000D03*
X82204999Y-82155000D03*
X82204999Y-108555000D03*
X82204999Y-122955000D03*
X83804999Y-95755000D03*
X85404999Y-76555000D03*
X85404999Y-114155000D03*
X87004999Y-90155000D03*
X87804999Y-103755000D03*
X87804999Y-126155000D03*
X91004999Y-109355000D03*
X91004999Y-120555000D03*
X91804999Y-74155000D03*
X91804999Y-82955000D03*
X91804999Y-94155000D03*
X95004999Y-114155000D03*
X95804999Y-98955000D03*
X95804999Y-125355000D03*
X97404999Y-78955000D03*
X97404999Y-90955000D03*
X99004999Y-108555000D03*
X99804999Y-118955000D03*
X100604999Y-84555000D03*
X101404999Y-74155000D03*
X101404999Y-95755000D03*
X103004999Y-113355000D03*
X103804999Y-123755000D03*
X104604999Y-102155000D03*
X106204999Y-81355000D03*
X107804999Y-90955000D03*
X107804999Y-107755000D03*
X108604999Y-119755000D03*
X109404999Y-74955000D03*
X109404999Y-98155000D03*
X111004999Y-126155000D03*
X111804999Y-112555000D03*
X113404999Y-82955000D03*
X114204999Y-105355000D03*
X115004999Y-92555000D03*
X115804999Y-117355000D03*
X116604999Y-76555000D03*
X118204999Y-123755000D03*
X119804999Y-85355000D03*
X120604999Y-101355000D03*
X121404999Y-109355000D03*
X122204999Y-94155000D03*
X123004999Y-74155000D03*
X123804999Y-115755000D03*
X124604999Y-126155000D03*
X126204999Y-79755000D03*
X127004999Y-87755000D03*
X127804999Y-106955000D03*
X127804999Y-120555000D03*
D30*
X127103607Y-72951557D02*
X127684223Y-73126855D01*
X128219736Y-73411592D01*
X128689742Y-73794919D01*
X129076339Y-74262235D01*
X129364808Y-74795749D01*
X129544154Y-75375121D01*
X129609486Y-75996708D01*
X129609500Y-76000783D01*
X129609501Y-123980894D01*
X129548443Y-124603607D01*
X129373145Y-125184225D01*
X129088408Y-125719736D01*
X128705083Y-126189739D01*
X128237765Y-126576339D01*
X127704253Y-126864808D01*
X127124878Y-127044154D01*
X126503292Y-127109486D01*
X126499217Y-127109500D01*
X73519095Y-127109500D01*
X72896393Y-127048443D01*
X72315775Y-126873145D01*
X71780264Y-126588408D01*
X71310261Y-126205083D01*
X70923661Y-125737765D01*
X70635192Y-125204253D01*
X70455846Y-124624878D01*
X70390514Y-124003292D01*
X70390500Y-123999217D01*
X70390500Y-123806612D01*
X71536500Y-123806612D01*
X71536500Y-124193388D01*
X71611956Y-124572732D01*
X71759968Y-124930066D01*
X71974850Y-125251659D01*
X72248341Y-125525150D01*
X72569934Y-125740032D01*
X72927268Y-125888044D01*
X73306612Y-125963500D01*
X73693388Y-125963500D01*
X74072732Y-125888044D01*
X74430066Y-125740032D01*
X74751659Y-125525150D01*
X75025150Y-125251659D01*
X75240032Y-124930066D01*
X75388044Y-124572732D01*
X75463500Y-124193388D01*
X75463500Y-123806612D01*
X75388044Y-123427268D01*
X75240032Y-123069934D01*
X75025150Y-122748341D01*
X74751659Y-122474850D01*
X74430066Y-122259968D01*
X74164579Y-122150000D01*
X90155226Y-122150000D01*
X90155226Y-123850000D01*
X90160314Y-123901655D01*
X90175381Y-123951325D01*
X90199848Y-123997101D01*
X90232777Y-124037223D01*
X90272899Y-124070152D01*
X90318675Y-124094619D01*
X90368345Y-124109686D01*
X90420000Y-124114774D01*
X92120000Y-124114774D01*
X92171655Y-124109686D01*
X92221325Y-124094619D01*
X92267101Y-124070152D01*
X92307223Y-124037223D01*
X92340152Y-123997101D01*
X92364619Y-123951325D01*
X92379686Y-123901655D01*
X92384774Y-123850000D01*
X92384774Y-122890330D01*
X92696500Y-122890330D01*
X92696500Y-123109670D01*
X92739291Y-123324796D01*
X92823229Y-123527440D01*
X92945088Y-123709815D01*
X93100185Y-123864912D01*
X93282560Y-123986771D01*
X93485204Y-124070709D01*
X93700330Y-124113500D01*
X93919670Y-124113500D01*
X94134796Y-124070709D01*
X94337440Y-123986771D01*
X94519815Y-123864912D01*
X94674912Y-123709815D01*
X94796771Y-123527440D01*
X94880709Y-123324796D01*
X94923500Y-123109670D01*
X94923500Y-122890330D01*
X95236500Y-122890330D01*
X95236500Y-123109670D01*
X95279291Y-123324796D01*
X95363229Y-123527440D01*
X95485088Y-123709815D01*
X95640185Y-123864912D01*
X95822560Y-123986771D01*
X96025204Y-124070709D01*
X96240330Y-124113500D01*
X96459670Y-124113500D01*
X96674796Y-124070709D01*
X96877440Y-123986771D01*
X97059815Y-123864912D01*
X97118115Y-123806612D01*
X124536500Y-123806612D01*
X124536500Y-124193388D01*
X124611956Y-124572732D01*
X124759968Y-124930066D01*
X124974850Y-125251659D01*
X125248341Y-125525150D01*
X125569934Y-125740032D01*
X125927268Y-125888044D01*
X126306612Y-125963500D01*
X126693388Y-125963500D01*
X127072732Y-125888044D01*
X127430066Y-125740032D01*
X127751659Y-125525150D01*
X128025150Y-125251659D01*
X128240032Y-124930066D01*
X128388044Y-124572732D01*
X128463500Y-124193388D01*
X128463500Y-123806612D01*
X128388044Y-123427268D01*
X128240032Y-123069934D01*
X128025150Y-122748341D01*
X127751659Y-122474850D01*
X127430066Y-122259968D01*
X127072732Y-122111956D01*
X126693388Y-122036500D01*
X126306612Y-122036500D01*
X125927268Y-122111956D01*
X125569934Y-122259968D01*
X125248341Y-122474850D01*
X124974850Y-122748341D01*
X124759968Y-123069934D01*
X124611956Y-123427268D01*
X124536500Y-123806612D01*
X97118115Y-123806612D01*
X97214912Y-123709815D01*
X97336771Y-123527440D01*
X97420709Y-123324796D01*
X97463500Y-123109670D01*
X97463500Y-122890330D01*
X97420709Y-122675204D01*
X97336771Y-122472560D01*
X97214912Y-122290185D01*
X97059815Y-122135088D01*
X96877440Y-122013229D01*
X96674796Y-121929291D01*
X96459670Y-121886500D01*
X96240330Y-121886500D01*
X96025204Y-121929291D01*
X95822560Y-122013229D01*
X95640185Y-122135088D01*
X95485088Y-122290185D01*
X95363229Y-122472560D01*
X95279291Y-122675204D01*
X95236500Y-122890330D01*
X94923500Y-122890330D01*
X94880709Y-122675204D01*
X94796771Y-122472560D01*
X94674912Y-122290185D01*
X94519815Y-122135088D01*
X94337440Y-122013229D01*
X94134796Y-121929291D01*
X93919670Y-121886500D01*
X93700330Y-121886500D01*
X93485204Y-121929291D01*
X93282560Y-122013229D01*
X93100185Y-122135088D01*
X92945088Y-122290185D01*
X92823229Y-122472560D01*
X92739291Y-122675204D01*
X92696500Y-122890330D01*
X92384774Y-122890330D01*
X92384774Y-122150000D01*
X92379686Y-122098345D01*
X92364619Y-122048675D01*
X92340152Y-122002899D01*
X92307223Y-121962777D01*
X92267101Y-121929848D01*
X92221325Y-121905381D01*
X92171655Y-121890314D01*
X92120000Y-121885226D01*
X90420000Y-121885226D01*
X90368345Y-121890314D01*
X90318675Y-121905381D01*
X90272899Y-121929848D01*
X90232777Y-121962777D01*
X90199848Y-122002899D01*
X90175381Y-122048675D01*
X90160314Y-122098345D01*
X90155226Y-122150000D01*
X74164579Y-122150000D01*
X74072732Y-122111956D01*
X73693388Y-122036500D01*
X73306612Y-122036500D01*
X72927268Y-122111956D01*
X72569934Y-122259968D01*
X72248341Y-122474850D01*
X71974850Y-122748341D01*
X71759968Y-123069934D01*
X71611956Y-123427268D01*
X71536500Y-123806612D01*
X70390500Y-123806612D01*
X70390500Y-119038790D01*
X88961401Y-119038790D01*
X89009325Y-119196785D01*
X89103819Y-119382624D01*
X89232752Y-119546457D01*
X89391170Y-119681989D01*
X89572985Y-119784011D01*
X89771210Y-119848602D01*
X89936500Y-119805731D01*
X89936500Y-118873500D01*
X90063500Y-118873500D01*
X90063500Y-119805731D01*
X90228790Y-119848602D01*
X90427015Y-119784011D01*
X90608830Y-119681989D01*
X90767248Y-119546457D01*
X90896181Y-119382624D01*
X90990675Y-119196785D01*
X91038599Y-119038790D01*
X90995602Y-118873500D01*
X90063500Y-118873500D01*
X89936500Y-118873500D01*
X89004398Y-118873500D01*
X88961401Y-119038790D01*
X70390500Y-119038790D01*
X70390500Y-118581210D01*
X88961401Y-118581210D01*
X89004398Y-118746500D01*
X89936500Y-118746500D01*
X89936500Y-117814269D01*
X90063500Y-117814269D01*
X90063500Y-118746500D01*
X90995602Y-118746500D01*
X91006331Y-118705254D01*
X96556500Y-118705254D01*
X96556500Y-118914746D01*
X96597370Y-119120212D01*
X96677538Y-119313756D01*
X96793925Y-119487942D01*
X96942058Y-119636075D01*
X97116244Y-119752462D01*
X97309788Y-119832630D01*
X97515254Y-119873500D01*
X97724746Y-119873500D01*
X97930212Y-119832630D01*
X98123756Y-119752462D01*
X98297942Y-119636075D01*
X98446075Y-119487942D01*
X98562462Y-119313756D01*
X98594790Y-119235707D01*
X117386500Y-119235707D01*
X117386500Y-119504293D01*
X117438899Y-119767718D01*
X117541682Y-120015859D01*
X117690901Y-120239180D01*
X117880820Y-120429099D01*
X118104141Y-120578318D01*
X118352282Y-120681101D01*
X118615707Y-120733500D01*
X118884293Y-120733500D01*
X119147718Y-120681101D01*
X119395859Y-120578318D01*
X119619180Y-120429099D01*
X119809099Y-120239180D01*
X119958318Y-120015859D01*
X120061101Y-119767718D01*
X120113500Y-119504293D01*
X120113500Y-119235707D01*
X120061101Y-118972282D01*
X119958318Y-118724141D01*
X119809099Y-118500820D01*
X119619180Y-118310901D01*
X119395859Y-118161682D01*
X119147718Y-118058899D01*
X118884293Y-118006500D01*
X118615707Y-118006500D01*
X118352282Y-118058899D01*
X118104141Y-118161682D01*
X117880820Y-118310901D01*
X117690901Y-118500820D01*
X117541682Y-118724141D01*
X117438899Y-118972282D01*
X117386500Y-119235707D01*
X98594790Y-119235707D01*
X98642630Y-119120212D01*
X98683500Y-118914746D01*
X98683500Y-118705254D01*
X98642630Y-118499788D01*
X98562462Y-118306244D01*
X98446075Y-118132058D01*
X98297942Y-117983925D01*
X98123756Y-117867538D01*
X97930212Y-117787370D01*
X97724746Y-117746500D01*
X97515254Y-117746500D01*
X97309788Y-117787370D01*
X97116244Y-117867538D01*
X96942058Y-117983925D01*
X96793925Y-118132058D01*
X96677538Y-118306244D01*
X96597370Y-118499788D01*
X96556500Y-118705254D01*
X91006331Y-118705254D01*
X91038599Y-118581210D01*
X90990675Y-118423215D01*
X90896181Y-118237376D01*
X90767248Y-118073543D01*
X90608830Y-117938011D01*
X90427015Y-117835989D01*
X90228790Y-117771398D01*
X90063500Y-117814269D01*
X89936500Y-117814269D01*
X89771210Y-117771398D01*
X89572985Y-117835989D01*
X89391170Y-117938011D01*
X89232752Y-118073543D01*
X89103819Y-118237376D01*
X89009325Y-118423215D01*
X88961401Y-118581210D01*
X70390500Y-118581210D01*
X70390500Y-117445104D01*
X85536500Y-117445104D01*
X85536500Y-117634896D01*
X85573527Y-117821043D01*
X85646157Y-117996388D01*
X85751601Y-118154195D01*
X85885805Y-118288399D01*
X86043612Y-118393843D01*
X86218957Y-118466473D01*
X86405104Y-118503500D01*
X86594896Y-118503500D01*
X86781043Y-118466473D01*
X86956388Y-118393843D01*
X87114195Y-118288399D01*
X87248399Y-118154195D01*
X87353843Y-117996388D01*
X87426473Y-117821043D01*
X87463500Y-117634896D01*
X87463500Y-117445104D01*
X100156500Y-117445104D01*
X100156500Y-117634896D01*
X100193527Y-117821043D01*
X100266157Y-117996388D01*
X100371601Y-118154195D01*
X100505805Y-118288399D01*
X100663612Y-118393843D01*
X100838957Y-118466473D01*
X101025104Y-118503500D01*
X101214896Y-118503500D01*
X101401043Y-118466473D01*
X101576388Y-118393843D01*
X101734195Y-118288399D01*
X101868399Y-118154195D01*
X101973843Y-117996388D01*
X102046473Y-117821043D01*
X102083500Y-117634896D01*
X102083500Y-117445104D01*
X102046473Y-117258957D01*
X101973843Y-117083612D01*
X101892376Y-116961688D01*
X106446500Y-116961688D01*
X106446500Y-117358312D01*
X106523878Y-117747316D01*
X106675660Y-118113750D01*
X106896013Y-118443531D01*
X107176469Y-118723987D01*
X107506250Y-118944340D01*
X107872684Y-119096122D01*
X108261688Y-119173500D01*
X108658312Y-119173500D01*
X109047316Y-119096122D01*
X109413750Y-118944340D01*
X109743531Y-118723987D01*
X110023987Y-118443531D01*
X110244340Y-118113750D01*
X110396122Y-117747316D01*
X110430137Y-117576310D01*
X123736500Y-117576310D01*
X123736500Y-117923690D01*
X123804270Y-118264394D01*
X123937206Y-118585331D01*
X124130200Y-118874166D01*
X124375834Y-119119800D01*
X124664669Y-119312794D01*
X124985606Y-119445730D01*
X125326310Y-119513500D01*
X125673690Y-119513500D01*
X126014394Y-119445730D01*
X126335331Y-119312794D01*
X126624166Y-119119800D01*
X126869800Y-118874166D01*
X127062794Y-118585331D01*
X127195730Y-118264394D01*
X127263500Y-117923690D01*
X127263500Y-117576310D01*
X127195730Y-117235606D01*
X127062794Y-116914669D01*
X126869800Y-116625834D01*
X126624166Y-116380200D01*
X126335331Y-116187206D01*
X126014394Y-116054270D01*
X125673690Y-115986500D01*
X125326310Y-115986500D01*
X124985606Y-116054270D01*
X124664669Y-116187206D01*
X124375834Y-116380200D01*
X124130200Y-116625834D01*
X123937206Y-116914669D01*
X123804270Y-117235606D01*
X123736500Y-117576310D01*
X110430137Y-117576310D01*
X110473500Y-117358312D01*
X110473500Y-116961688D01*
X110396122Y-116572684D01*
X110244340Y-116206250D01*
X110023987Y-115876469D01*
X109743531Y-115596013D01*
X109413750Y-115375660D01*
X109047316Y-115223878D01*
X108658312Y-115146500D01*
X108261688Y-115146500D01*
X107872684Y-115223878D01*
X107506250Y-115375660D01*
X107176469Y-115596013D01*
X106896013Y-115876469D01*
X106675660Y-116206250D01*
X106523878Y-116572684D01*
X106446500Y-116961688D01*
X101892376Y-116961688D01*
X101868399Y-116925805D01*
X101734195Y-116791601D01*
X101576388Y-116686157D01*
X101401043Y-116613527D01*
X101214896Y-116576500D01*
X101025104Y-116576500D01*
X100838957Y-116613527D01*
X100663612Y-116686157D01*
X100505805Y-116791601D01*
X100371601Y-116925805D01*
X100266157Y-117083612D01*
X100193527Y-117258957D01*
X100156500Y-117445104D01*
X87463500Y-117445104D01*
X87426473Y-117258957D01*
X87353843Y-117083612D01*
X87248399Y-116925805D01*
X87114195Y-116791601D01*
X86956388Y-116686157D01*
X86781043Y-116613527D01*
X86594896Y-116576500D01*
X86405104Y-116576500D01*
X86218957Y-116613527D01*
X86043612Y-116686157D01*
X85885805Y-116791601D01*
X85751601Y-116925805D01*
X85646157Y-117083612D01*
X85573527Y-117258957D01*
X85536500Y-117445104D01*
X70390500Y-117445104D01*
X70390500Y-116165254D01*
X88936500Y-116165254D01*
X88936500Y-116374746D01*
X88977370Y-116580212D01*
X89057538Y-116773756D01*
X89173925Y-116947942D01*
X89322058Y-117096075D01*
X89496244Y-117212462D01*
X89689788Y-117292630D01*
X89895254Y-117333500D01*
X90104746Y-117333500D01*
X90310212Y-117292630D01*
X90503756Y-117212462D01*
X90677942Y-117096075D01*
X90826075Y-116947942D01*
X90942462Y-116773756D01*
X91022630Y-116580212D01*
X91063500Y-116374746D01*
X91063500Y-116165254D01*
X96556500Y-116165254D01*
X96556500Y-116374746D01*
X96597370Y-116580212D01*
X96677538Y-116773756D01*
X96793925Y-116947942D01*
X96942058Y-117096075D01*
X97116244Y-117212462D01*
X97309788Y-117292630D01*
X97515254Y-117333500D01*
X97724746Y-117333500D01*
X97930212Y-117292630D01*
X98123756Y-117212462D01*
X98297942Y-117096075D01*
X98446075Y-116947942D01*
X98562462Y-116773756D01*
X98642630Y-116580212D01*
X98683500Y-116374746D01*
X98683500Y-116165254D01*
X98642630Y-115959788D01*
X98562462Y-115766244D01*
X98446075Y-115592058D01*
X98297942Y-115443925D01*
X98123756Y-115327538D01*
X97930212Y-115247370D01*
X97724746Y-115206500D01*
X97515254Y-115206500D01*
X97309788Y-115247370D01*
X97116244Y-115327538D01*
X96942058Y-115443925D01*
X96793925Y-115592058D01*
X96677538Y-115766244D01*
X96597370Y-115959788D01*
X96556500Y-116165254D01*
X91063500Y-116165254D01*
X91022630Y-115959788D01*
X90942462Y-115766244D01*
X90826075Y-115592058D01*
X90677942Y-115443925D01*
X90503756Y-115327538D01*
X90310212Y-115247370D01*
X90104746Y-115206500D01*
X89895254Y-115206500D01*
X89689788Y-115247370D01*
X89496244Y-115327538D01*
X89322058Y-115443925D01*
X89173925Y-115592058D01*
X89057538Y-115766244D01*
X88977370Y-115959788D01*
X88936500Y-116165254D01*
X70390500Y-116165254D01*
X70390500Y-113625254D01*
X88936500Y-113625254D01*
X88936500Y-113834746D01*
X88977370Y-114040212D01*
X89057538Y-114233756D01*
X89173925Y-114407942D01*
X89322058Y-114556075D01*
X89496244Y-114672462D01*
X89689788Y-114752630D01*
X89895254Y-114793500D01*
X90104746Y-114793500D01*
X90310212Y-114752630D01*
X90503756Y-114672462D01*
X90677942Y-114556075D01*
X90826075Y-114407942D01*
X90942462Y-114233756D01*
X91022630Y-114040212D01*
X91063500Y-113834746D01*
X91063500Y-113625254D01*
X96556500Y-113625254D01*
X96556500Y-113834746D01*
X96597370Y-114040212D01*
X96677538Y-114233756D01*
X96793925Y-114407942D01*
X96942058Y-114556075D01*
X97116244Y-114672462D01*
X97309788Y-114752630D01*
X97515254Y-114793500D01*
X97724746Y-114793500D01*
X97930212Y-114752630D01*
X98123756Y-114672462D01*
X98297942Y-114556075D01*
X98446075Y-114407942D01*
X98562462Y-114233756D01*
X98642630Y-114040212D01*
X98683500Y-113834746D01*
X98683500Y-113625254D01*
X98642630Y-113419788D01*
X98562462Y-113226244D01*
X98446075Y-113052058D01*
X98297942Y-112903925D01*
X98123756Y-112787538D01*
X97930212Y-112707370D01*
X97724746Y-112666500D01*
X97515254Y-112666500D01*
X97309788Y-112707370D01*
X97116244Y-112787538D01*
X96942058Y-112903925D01*
X96793925Y-113052058D01*
X96677538Y-113226244D01*
X96597370Y-113419788D01*
X96556500Y-113625254D01*
X91063500Y-113625254D01*
X91022630Y-113419788D01*
X90942462Y-113226244D01*
X90826075Y-113052058D01*
X90677942Y-112903925D01*
X90503756Y-112787538D01*
X90310212Y-112707370D01*
X90104746Y-112666500D01*
X89895254Y-112666500D01*
X89689788Y-112707370D01*
X89496244Y-112787538D01*
X89322058Y-112903925D01*
X89173925Y-113052058D01*
X89057538Y-113226244D01*
X88977370Y-113419788D01*
X88936500Y-113625254D01*
X70390500Y-113625254D01*
X70390500Y-112365104D01*
X85536500Y-112365104D01*
X85536500Y-112554896D01*
X85573527Y-112741043D01*
X85646157Y-112916388D01*
X85751601Y-113074195D01*
X85885805Y-113208399D01*
X86043612Y-113313843D01*
X86218957Y-113386473D01*
X86405104Y-113423500D01*
X86594896Y-113423500D01*
X86781043Y-113386473D01*
X86956388Y-113313843D01*
X87114195Y-113208399D01*
X87248399Y-113074195D01*
X87353843Y-112916388D01*
X87426473Y-112741043D01*
X87463500Y-112554896D01*
X87463500Y-112365104D01*
X100156500Y-112365104D01*
X100156500Y-112554896D01*
X100193527Y-112741043D01*
X100266157Y-112916388D01*
X100371601Y-113074195D01*
X100505805Y-113208399D01*
X100663612Y-113313843D01*
X100838957Y-113386473D01*
X101025104Y-113423500D01*
X101214896Y-113423500D01*
X101401043Y-113386473D01*
X101576388Y-113313843D01*
X101734195Y-113208399D01*
X101868399Y-113074195D01*
X101973843Y-112916388D01*
X102046473Y-112741043D01*
X102083500Y-112554896D01*
X102083500Y-112365104D01*
X102046473Y-112178957D01*
X101973843Y-112003612D01*
X101868399Y-111845805D01*
X101734195Y-111711601D01*
X101576388Y-111606157D01*
X101401043Y-111533527D01*
X101214896Y-111496500D01*
X101025104Y-111496500D01*
X100838957Y-111533527D01*
X100663612Y-111606157D01*
X100505805Y-111711601D01*
X100371601Y-111845805D01*
X100266157Y-112003612D01*
X100193527Y-112178957D01*
X100156500Y-112365104D01*
X87463500Y-112365104D01*
X87426473Y-112178957D01*
X87353843Y-112003612D01*
X87248399Y-111845805D01*
X87114195Y-111711601D01*
X86956388Y-111606157D01*
X86781043Y-111533527D01*
X86594896Y-111496500D01*
X86405104Y-111496500D01*
X86218957Y-111533527D01*
X86043612Y-111606157D01*
X85885805Y-111711601D01*
X85751601Y-111845805D01*
X85646157Y-112003612D01*
X85573527Y-112178957D01*
X85536500Y-112365104D01*
X70390500Y-112365104D01*
X70390500Y-110390000D01*
X88935226Y-110390000D01*
X88935226Y-111990000D01*
X88940314Y-112041655D01*
X88955381Y-112091325D01*
X88979848Y-112137101D01*
X89012777Y-112177223D01*
X89052899Y-112210152D01*
X89098675Y-112234619D01*
X89148345Y-112249686D01*
X89200000Y-112254774D01*
X90800000Y-112254774D01*
X90851655Y-112249686D01*
X90901325Y-112234619D01*
X90947101Y-112210152D01*
X90987223Y-112177223D01*
X91020152Y-112137101D01*
X91044619Y-112091325D01*
X91059686Y-112041655D01*
X91064774Y-111990000D01*
X91064774Y-111085254D01*
X96556500Y-111085254D01*
X96556500Y-111294746D01*
X96597370Y-111500212D01*
X96677538Y-111693756D01*
X96793925Y-111867942D01*
X96942058Y-112016075D01*
X97116244Y-112132462D01*
X97309788Y-112212630D01*
X97515254Y-112253500D01*
X97724746Y-112253500D01*
X97930212Y-112212630D01*
X98123756Y-112132462D01*
X98297942Y-112016075D01*
X98446075Y-111867942D01*
X98562462Y-111693756D01*
X98642630Y-111500212D01*
X98683500Y-111294746D01*
X98683500Y-111085254D01*
X98642630Y-110879788D01*
X98562462Y-110686244D01*
X98538245Y-110650000D01*
X117385226Y-110650000D01*
X117385226Y-112850000D01*
X117390314Y-112901655D01*
X117405381Y-112951325D01*
X117429848Y-112997101D01*
X117462777Y-113037223D01*
X117502899Y-113070152D01*
X117548675Y-113094619D01*
X117598345Y-113109686D01*
X117650000Y-113114774D01*
X119850000Y-113114774D01*
X119901655Y-113109686D01*
X119951325Y-113094619D01*
X119997101Y-113070152D01*
X120037223Y-113037223D01*
X120070152Y-112997101D01*
X120094619Y-112951325D01*
X120109686Y-112901655D01*
X120114774Y-112850000D01*
X120114774Y-110650000D01*
X120113580Y-110637868D01*
X124361500Y-110637868D01*
X124361500Y-110862132D01*
X124405252Y-111082088D01*
X124491074Y-111289282D01*
X124615669Y-111475752D01*
X124774248Y-111634331D01*
X124960718Y-111758926D01*
X125167912Y-111844748D01*
X125387868Y-111888500D01*
X125612132Y-111888500D01*
X125832088Y-111844748D01*
X126039282Y-111758926D01*
X126225752Y-111634331D01*
X126384331Y-111475752D01*
X126508926Y-111289282D01*
X126594748Y-111082088D01*
X126638500Y-110862132D01*
X126638500Y-110637868D01*
X126594748Y-110417912D01*
X126508926Y-110210718D01*
X126384331Y-110024248D01*
X126225752Y-109865669D01*
X126039282Y-109741074D01*
X125832088Y-109655252D01*
X125612132Y-109611500D01*
X125387868Y-109611500D01*
X125167912Y-109655252D01*
X124960718Y-109741074D01*
X124774248Y-109865669D01*
X124615669Y-110024248D01*
X124491074Y-110210718D01*
X124405252Y-110417912D01*
X124361500Y-110637868D01*
X120113580Y-110637868D01*
X120109686Y-110598345D01*
X120094619Y-110548675D01*
X120070152Y-110502899D01*
X120037223Y-110462777D01*
X119997101Y-110429848D01*
X119951325Y-110405381D01*
X119901655Y-110390314D01*
X119850000Y-110385226D01*
X117650000Y-110385226D01*
X117598345Y-110390314D01*
X117548675Y-110405381D01*
X117502899Y-110429848D01*
X117462777Y-110462777D01*
X117429848Y-110502899D01*
X117405381Y-110548675D01*
X117390314Y-110598345D01*
X117385226Y-110650000D01*
X98538245Y-110650000D01*
X98446075Y-110512058D01*
X98297942Y-110363925D01*
X98123756Y-110247538D01*
X97930212Y-110167370D01*
X97724746Y-110126500D01*
X97515254Y-110126500D01*
X97309788Y-110167370D01*
X97116244Y-110247538D01*
X96942058Y-110363925D01*
X96793925Y-110512058D01*
X96677538Y-110686244D01*
X96597370Y-110879788D01*
X96556500Y-111085254D01*
X91064774Y-111085254D01*
X91064774Y-110390000D01*
X91059686Y-110338345D01*
X91044619Y-110288675D01*
X91020152Y-110242899D01*
X90987223Y-110202777D01*
X90947101Y-110169848D01*
X90901325Y-110145381D01*
X90851655Y-110130314D01*
X90800000Y-110125226D01*
X89200000Y-110125226D01*
X89148345Y-110130314D01*
X89098675Y-110145381D01*
X89052899Y-110169848D01*
X89012777Y-110202777D01*
X88979848Y-110242899D01*
X88955381Y-110288675D01*
X88940314Y-110338345D01*
X88935226Y-110390000D01*
X70390500Y-110390000D01*
X70390500Y-108252544D01*
X90647259Y-108252544D01*
X90734348Y-108400350D01*
X90921058Y-108495354D01*
X91122716Y-108552107D01*
X91331570Y-108568428D01*
X91539595Y-108543691D01*
X91738797Y-108478845D01*
X91885652Y-108400350D01*
X91972741Y-108252544D01*
X91310000Y-107589803D01*
X90647259Y-108252544D01*
X70390500Y-108252544D01*
X70390500Y-107521570D01*
X90241572Y-107521570D01*
X90266309Y-107729595D01*
X90331155Y-107928797D01*
X90409650Y-108075652D01*
X90557456Y-108162741D01*
X91220197Y-107500000D01*
X91399803Y-107500000D01*
X92062544Y-108162741D01*
X92210350Y-108075652D01*
X92305354Y-107888942D01*
X92362107Y-107687284D01*
X92378428Y-107478430D01*
X92368538Y-107395254D01*
X95246500Y-107395254D01*
X95246500Y-107604746D01*
X95287370Y-107810212D01*
X95367538Y-108003756D01*
X95483925Y-108177942D01*
X95632058Y-108326075D01*
X95806244Y-108442462D01*
X95999788Y-108522630D01*
X96205254Y-108563500D01*
X96414746Y-108563500D01*
X96620212Y-108522630D01*
X96813756Y-108442462D01*
X96987942Y-108326075D01*
X97136075Y-108177942D01*
X97252462Y-108003756D01*
X97269242Y-107963245D01*
X117361500Y-107963245D01*
X117361500Y-108236755D01*
X117414860Y-108505010D01*
X117519528Y-108757701D01*
X117671482Y-108985117D01*
X117864883Y-109178518D01*
X118092299Y-109330472D01*
X118344990Y-109435140D01*
X118613245Y-109488500D01*
X118886755Y-109488500D01*
X119155010Y-109435140D01*
X119407701Y-109330472D01*
X119635117Y-109178518D01*
X119828518Y-108985117D01*
X119980472Y-108757701D01*
X120085140Y-108505010D01*
X120138500Y-108236755D01*
X120138500Y-107963245D01*
X120085140Y-107694990D01*
X119980472Y-107442299D01*
X119828518Y-107214883D01*
X119635117Y-107021482D01*
X119407701Y-106869528D01*
X119213379Y-106789037D01*
X119332322Y-106709562D01*
X119459562Y-106582322D01*
X119559533Y-106432704D01*
X119628395Y-106266458D01*
X119663500Y-106089972D01*
X119663500Y-105910028D01*
X119628395Y-105733542D01*
X119559533Y-105567296D01*
X119459562Y-105417678D01*
X119332322Y-105290438D01*
X119182704Y-105190467D01*
X119016458Y-105121605D01*
X118839972Y-105086500D01*
X118660028Y-105086500D01*
X118483542Y-105121605D01*
X118317296Y-105190467D01*
X118167678Y-105290438D01*
X118040438Y-105417678D01*
X117940467Y-105567296D01*
X117871605Y-105733542D01*
X117836500Y-105910028D01*
X117836500Y-106089972D01*
X117871605Y-106266458D01*
X117940467Y-106432704D01*
X118040438Y-106582322D01*
X118167678Y-106709562D01*
X118286621Y-106789037D01*
X118092299Y-106869528D01*
X117864883Y-107021482D01*
X117671482Y-107214883D01*
X117519528Y-107442299D01*
X117414860Y-107694990D01*
X117361500Y-107963245D01*
X97269242Y-107963245D01*
X97332630Y-107810212D01*
X97373500Y-107604746D01*
X97373500Y-107395254D01*
X97332630Y-107189788D01*
X97252462Y-106996244D01*
X97136075Y-106822058D01*
X96987942Y-106673925D01*
X96813756Y-106557538D01*
X96620212Y-106477370D01*
X96414746Y-106436500D01*
X96205254Y-106436500D01*
X95999788Y-106477370D01*
X95806244Y-106557538D01*
X95632058Y-106673925D01*
X95483925Y-106822058D01*
X95367538Y-106996244D01*
X95287370Y-107189788D01*
X95246500Y-107395254D01*
X92368538Y-107395254D01*
X92353691Y-107270405D01*
X92288845Y-107071203D01*
X92210350Y-106924348D01*
X92062544Y-106837259D01*
X91399803Y-107500000D01*
X91220197Y-107500000D01*
X90557456Y-106837259D01*
X90409650Y-106924348D01*
X90314646Y-107111058D01*
X90257893Y-107312716D01*
X90241572Y-107521570D01*
X70390500Y-107521570D01*
X70390500Y-106747456D01*
X90647259Y-106747456D01*
X91310000Y-107410197D01*
X91972741Y-106747456D01*
X91885652Y-106599650D01*
X91698942Y-106504646D01*
X91497284Y-106447893D01*
X91288430Y-106431572D01*
X91080405Y-106456309D01*
X90881203Y-106521155D01*
X90734348Y-106599650D01*
X90647259Y-106747456D01*
X70390500Y-106747456D01*
X70390500Y-104970330D01*
X125386500Y-104970330D01*
X125386500Y-105189670D01*
X125429291Y-105404796D01*
X125513229Y-105607440D01*
X125635088Y-105789815D01*
X125790185Y-105944912D01*
X125972560Y-106066771D01*
X126175204Y-106150709D01*
X126390330Y-106193500D01*
X126609670Y-106193500D01*
X126824796Y-106150709D01*
X127027440Y-106066771D01*
X127209815Y-105944912D01*
X127364912Y-105789815D01*
X127486771Y-105607440D01*
X127570709Y-105404796D01*
X127613500Y-105189670D01*
X127613500Y-104970330D01*
X127570709Y-104755204D01*
X127486771Y-104552560D01*
X127364912Y-104370185D01*
X127209815Y-104215088D01*
X127027440Y-104093229D01*
X126824796Y-104009291D01*
X126609670Y-103966500D01*
X126390330Y-103966500D01*
X126175204Y-104009291D01*
X125972560Y-104093229D01*
X125790185Y-104215088D01*
X125635088Y-104370185D01*
X125513229Y-104552560D01*
X125429291Y-104755204D01*
X125386500Y-104970330D01*
X70390500Y-104970330D01*
X70390500Y-101350933D01*
X75086500Y-101350933D01*
X75086500Y-101649067D01*
X75144663Y-101941472D01*
X75258754Y-102216911D01*
X75424388Y-102464800D01*
X75635200Y-102675612D01*
X75883089Y-102841246D01*
X76158528Y-102955337D01*
X76450933Y-103013500D01*
X76749067Y-103013500D01*
X77041472Y-102955337D01*
X77316911Y-102841246D01*
X77564800Y-102675612D01*
X77639479Y-102600933D01*
X80386500Y-102600933D01*
X80386500Y-102899067D01*
X80444663Y-103191472D01*
X80558754Y-103466911D01*
X80724388Y-103714800D01*
X80935200Y-103925612D01*
X81183089Y-104091246D01*
X81458528Y-104205337D01*
X81750933Y-104263500D01*
X82049067Y-104263500D01*
X82341472Y-104205337D01*
X82616911Y-104091246D01*
X82695417Y-104038790D01*
X88961401Y-104038790D01*
X89009325Y-104196785D01*
X89103819Y-104382624D01*
X89232752Y-104546457D01*
X89391170Y-104681989D01*
X89572985Y-104784011D01*
X89771210Y-104848602D01*
X89936500Y-104805731D01*
X89936500Y-103873500D01*
X90063500Y-103873500D01*
X90063500Y-104805731D01*
X90228790Y-104848602D01*
X90427015Y-104784011D01*
X90608830Y-104681989D01*
X90767248Y-104546457D01*
X90896181Y-104382624D01*
X90990675Y-104196785D01*
X91038599Y-104038790D01*
X90995602Y-103873500D01*
X90063500Y-103873500D01*
X89936500Y-103873500D01*
X89004398Y-103873500D01*
X88961401Y-104038790D01*
X82695417Y-104038790D01*
X82864800Y-103925612D01*
X83075612Y-103714800D01*
X83164873Y-103581210D01*
X88961401Y-103581210D01*
X89004398Y-103746500D01*
X89936500Y-103746500D01*
X89936500Y-102814269D01*
X90063500Y-102814269D01*
X90063500Y-103746500D01*
X90995602Y-103746500D01*
X91006331Y-103705254D01*
X96556500Y-103705254D01*
X96556500Y-103914746D01*
X96597370Y-104120212D01*
X96677538Y-104313756D01*
X96793925Y-104487942D01*
X96942058Y-104636075D01*
X97116244Y-104752462D01*
X97309788Y-104832630D01*
X97515254Y-104873500D01*
X97724746Y-104873500D01*
X97930212Y-104832630D01*
X98123756Y-104752462D01*
X98297942Y-104636075D01*
X98446075Y-104487942D01*
X98562462Y-104313756D01*
X98642630Y-104120212D01*
X98683500Y-103914746D01*
X98683500Y-103910028D01*
X117836500Y-103910028D01*
X117836500Y-104089972D01*
X117871605Y-104266458D01*
X117940467Y-104432704D01*
X118040438Y-104582322D01*
X118167678Y-104709562D01*
X118317296Y-104809533D01*
X118483542Y-104878395D01*
X118660028Y-104913500D01*
X118839972Y-104913500D01*
X119016458Y-104878395D01*
X119182704Y-104809533D01*
X119332322Y-104709562D01*
X119459562Y-104582322D01*
X119559533Y-104432704D01*
X119628395Y-104266458D01*
X119663500Y-104089972D01*
X119663500Y-103910028D01*
X119628395Y-103733542D01*
X119559533Y-103567296D01*
X119459562Y-103417678D01*
X119332322Y-103290438D01*
X119182704Y-103190467D01*
X119016458Y-103121605D01*
X118839972Y-103086500D01*
X118660028Y-103086500D01*
X118483542Y-103121605D01*
X118317296Y-103190467D01*
X118167678Y-103290438D01*
X118040438Y-103417678D01*
X117940467Y-103567296D01*
X117871605Y-103733542D01*
X117836500Y-103910028D01*
X98683500Y-103910028D01*
X98683500Y-103705254D01*
X98642630Y-103499788D01*
X98562462Y-103306244D01*
X98446075Y-103132058D01*
X98297942Y-102983925D01*
X98123756Y-102867538D01*
X97930212Y-102787370D01*
X97724746Y-102746500D01*
X97515254Y-102746500D01*
X97309788Y-102787370D01*
X97116244Y-102867538D01*
X96942058Y-102983925D01*
X96793925Y-103132058D01*
X96677538Y-103306244D01*
X96597370Y-103499788D01*
X96556500Y-103705254D01*
X91006331Y-103705254D01*
X91038599Y-103581210D01*
X90990675Y-103423215D01*
X90896181Y-103237376D01*
X90767248Y-103073543D01*
X90608830Y-102938011D01*
X90427015Y-102835989D01*
X90228790Y-102771398D01*
X90063500Y-102814269D01*
X89936500Y-102814269D01*
X89771210Y-102771398D01*
X89572985Y-102835989D01*
X89391170Y-102938011D01*
X89232752Y-103073543D01*
X89103819Y-103237376D01*
X89009325Y-103423215D01*
X88961401Y-103581210D01*
X83164873Y-103581210D01*
X83241246Y-103466911D01*
X83355337Y-103191472D01*
X83413500Y-102899067D01*
X83413500Y-102600933D01*
X83382504Y-102445104D01*
X85536500Y-102445104D01*
X85536500Y-102634896D01*
X85573527Y-102821043D01*
X85646157Y-102996388D01*
X85751601Y-103154195D01*
X85885805Y-103288399D01*
X86043612Y-103393843D01*
X86218957Y-103466473D01*
X86405104Y-103503500D01*
X86594896Y-103503500D01*
X86781043Y-103466473D01*
X86956388Y-103393843D01*
X87114195Y-103288399D01*
X87248399Y-103154195D01*
X87353843Y-102996388D01*
X87426473Y-102821043D01*
X87463500Y-102634896D01*
X87463500Y-102445104D01*
X100156500Y-102445104D01*
X100156500Y-102634896D01*
X100193527Y-102821043D01*
X100266157Y-102996388D01*
X100371601Y-103154195D01*
X100505805Y-103288399D01*
X100663612Y-103393843D01*
X100838957Y-103466473D01*
X101025104Y-103503500D01*
X101214896Y-103503500D01*
X101401043Y-103466473D01*
X101576388Y-103393843D01*
X101734195Y-103288399D01*
X101868399Y-103154195D01*
X101973843Y-102996388D01*
X102046473Y-102821043D01*
X102083500Y-102634896D01*
X102083500Y-102445104D01*
X102046473Y-102258957D01*
X101973843Y-102083612D01*
X101868399Y-101925805D01*
X101734195Y-101791601D01*
X101576388Y-101686157D01*
X101401043Y-101613527D01*
X101214896Y-101576500D01*
X101025104Y-101576500D01*
X100838957Y-101613527D01*
X100663612Y-101686157D01*
X100505805Y-101791601D01*
X100371601Y-101925805D01*
X100266157Y-102083612D01*
X100193527Y-102258957D01*
X100156500Y-102445104D01*
X87463500Y-102445104D01*
X87426473Y-102258957D01*
X87353843Y-102083612D01*
X87248399Y-101925805D01*
X87114195Y-101791601D01*
X86956388Y-101686157D01*
X86781043Y-101613527D01*
X86594896Y-101576500D01*
X86405104Y-101576500D01*
X86218957Y-101613527D01*
X86043612Y-101686157D01*
X85885805Y-101791601D01*
X85751601Y-101925805D01*
X85646157Y-102083612D01*
X85573527Y-102258957D01*
X85536500Y-102445104D01*
X83382504Y-102445104D01*
X83355337Y-102308528D01*
X83241246Y-102033089D01*
X83075612Y-101785200D01*
X82864800Y-101574388D01*
X82616911Y-101408754D01*
X82341472Y-101294663D01*
X82049067Y-101236500D01*
X81750933Y-101236500D01*
X81458528Y-101294663D01*
X81183089Y-101408754D01*
X80935200Y-101574388D01*
X80724388Y-101785200D01*
X80558754Y-102033089D01*
X80444663Y-102308528D01*
X80386500Y-102600933D01*
X77639479Y-102600933D01*
X77775612Y-102464800D01*
X77941246Y-102216911D01*
X78055337Y-101941472D01*
X78113500Y-101649067D01*
X78113500Y-101350933D01*
X78076567Y-101165254D01*
X88936500Y-101165254D01*
X88936500Y-101374746D01*
X88977370Y-101580212D01*
X89057538Y-101773756D01*
X89173925Y-101947942D01*
X89322058Y-102096075D01*
X89496244Y-102212462D01*
X89689788Y-102292630D01*
X89895254Y-102333500D01*
X90104746Y-102333500D01*
X90310212Y-102292630D01*
X90503756Y-102212462D01*
X90677942Y-102096075D01*
X90826075Y-101947942D01*
X90942462Y-101773756D01*
X91022630Y-101580212D01*
X91063500Y-101374746D01*
X91063500Y-101165254D01*
X96556500Y-101165254D01*
X96556500Y-101374746D01*
X96597370Y-101580212D01*
X96677538Y-101773756D01*
X96793925Y-101947942D01*
X96942058Y-102096075D01*
X97116244Y-102212462D01*
X97309788Y-102292630D01*
X97515254Y-102333500D01*
X97724746Y-102333500D01*
X97930212Y-102292630D01*
X98123756Y-102212462D01*
X98297942Y-102096075D01*
X98446075Y-101947942D01*
X98562462Y-101773756D01*
X98642630Y-101580212D01*
X98683500Y-101374746D01*
X98683500Y-101165254D01*
X98642630Y-100959788D01*
X98562462Y-100766244D01*
X98446075Y-100592058D01*
X98297942Y-100443925D01*
X98221380Y-100392768D01*
X104704000Y-100392768D01*
X104704000Y-100607231D01*
X104721595Y-100785877D01*
X104791127Y-101015093D01*
X104904041Y-101226341D01*
X105055998Y-101411502D01*
X105241158Y-101563459D01*
X105452406Y-101676373D01*
X105681622Y-101745905D01*
X105920000Y-101769383D01*
X106158377Y-101745905D01*
X106387593Y-101676373D01*
X106598841Y-101563459D01*
X106784002Y-101411502D01*
X106935959Y-101226342D01*
X107048873Y-101015094D01*
X107118405Y-100785878D01*
X107121597Y-100753462D01*
X107261886Y-100753462D01*
X107325089Y-100983245D01*
X107431906Y-101196282D01*
X107578232Y-101384387D01*
X107758443Y-101540331D01*
X107965615Y-101658121D01*
X108191786Y-101733230D01*
X108207317Y-101736957D01*
X108396500Y-101695871D01*
X108396500Y-100563500D01*
X108523500Y-100563500D01*
X108523500Y-101695871D01*
X108712683Y-101736957D01*
X108728214Y-101733230D01*
X108954385Y-101658121D01*
X109161557Y-101540331D01*
X109341768Y-101384387D01*
X109488094Y-101196282D01*
X109594911Y-100983245D01*
X109658114Y-100753462D01*
X109609708Y-100563500D01*
X108523500Y-100563500D01*
X108396500Y-100563500D01*
X107310292Y-100563500D01*
X107261886Y-100753462D01*
X107121597Y-100753462D01*
X107136000Y-100607232D01*
X107136000Y-100392769D01*
X107121598Y-100246538D01*
X107261886Y-100246538D01*
X107310292Y-100436500D01*
X108396500Y-100436500D01*
X108396500Y-99304129D01*
X108523500Y-99304129D01*
X108523500Y-100436500D01*
X109609708Y-100436500D01*
X109658114Y-100246538D01*
X109594911Y-100016755D01*
X109488094Y-99803718D01*
X109341768Y-99615613D01*
X109208165Y-99500000D01*
X109782726Y-99500000D01*
X109782726Y-101500000D01*
X109787814Y-101551655D01*
X109802881Y-101601325D01*
X109827348Y-101647101D01*
X109860277Y-101687223D01*
X109900399Y-101720152D01*
X109946175Y-101744619D01*
X109995845Y-101759686D01*
X110047500Y-101764774D01*
X111952500Y-101764774D01*
X112004155Y-101759686D01*
X112053825Y-101744619D01*
X112099601Y-101720152D01*
X112139723Y-101687223D01*
X112172652Y-101647101D01*
X112197119Y-101601325D01*
X112212186Y-101551655D01*
X112217274Y-101500000D01*
X112217274Y-99763245D01*
X117361500Y-99763245D01*
X117361500Y-100036755D01*
X117414860Y-100305010D01*
X117519528Y-100557701D01*
X117671482Y-100785117D01*
X117864883Y-100978518D01*
X118092299Y-101130472D01*
X118286621Y-101210963D01*
X118167678Y-101290438D01*
X118040438Y-101417678D01*
X117940467Y-101567296D01*
X117871605Y-101733542D01*
X117836500Y-101910028D01*
X117836500Y-102089972D01*
X117871605Y-102266458D01*
X117940467Y-102432704D01*
X118040438Y-102582322D01*
X118167678Y-102709562D01*
X118317296Y-102809533D01*
X118483542Y-102878395D01*
X118660028Y-102913500D01*
X118839972Y-102913500D01*
X119016458Y-102878395D01*
X119182704Y-102809533D01*
X119332322Y-102709562D01*
X119459562Y-102582322D01*
X119559533Y-102432704D01*
X119560516Y-102430330D01*
X125386500Y-102430330D01*
X125386500Y-102649670D01*
X125429291Y-102864796D01*
X125513229Y-103067440D01*
X125635088Y-103249815D01*
X125790185Y-103404912D01*
X125972560Y-103526771D01*
X126175204Y-103610709D01*
X126390330Y-103653500D01*
X126609670Y-103653500D01*
X126824796Y-103610709D01*
X127027440Y-103526771D01*
X127209815Y-103404912D01*
X127364912Y-103249815D01*
X127486771Y-103067440D01*
X127570709Y-102864796D01*
X127613500Y-102649670D01*
X127613500Y-102430330D01*
X127570709Y-102215204D01*
X127486771Y-102012560D01*
X127364912Y-101830185D01*
X127209815Y-101675088D01*
X127027440Y-101553229D01*
X126824796Y-101469291D01*
X126609670Y-101426500D01*
X126390330Y-101426500D01*
X126175204Y-101469291D01*
X125972560Y-101553229D01*
X125790185Y-101675088D01*
X125635088Y-101830185D01*
X125513229Y-102012560D01*
X125429291Y-102215204D01*
X125386500Y-102430330D01*
X119560516Y-102430330D01*
X119628395Y-102266458D01*
X119663500Y-102089972D01*
X119663500Y-101910028D01*
X119628395Y-101733542D01*
X119559533Y-101567296D01*
X119459562Y-101417678D01*
X119332322Y-101290438D01*
X119213379Y-101210963D01*
X119407701Y-101130472D01*
X119635117Y-100978518D01*
X119828518Y-100785117D01*
X119980472Y-100557701D01*
X120085140Y-100305010D01*
X120138500Y-100036755D01*
X120138500Y-99890330D01*
X125386500Y-99890330D01*
X125386500Y-100109670D01*
X125429291Y-100324796D01*
X125513229Y-100527440D01*
X125635088Y-100709815D01*
X125790185Y-100864912D01*
X125972560Y-100986771D01*
X126175204Y-101070709D01*
X126390330Y-101113500D01*
X126609670Y-101113500D01*
X126824796Y-101070709D01*
X127027440Y-100986771D01*
X127209815Y-100864912D01*
X127364912Y-100709815D01*
X127486771Y-100527440D01*
X127570709Y-100324796D01*
X127613500Y-100109670D01*
X127613500Y-99890330D01*
X127570709Y-99675204D01*
X127486771Y-99472560D01*
X127364912Y-99290185D01*
X127209815Y-99135088D01*
X127027440Y-99013229D01*
X126824796Y-98929291D01*
X126609670Y-98886500D01*
X126390330Y-98886500D01*
X126175204Y-98929291D01*
X125972560Y-99013229D01*
X125790185Y-99135088D01*
X125635088Y-99290185D01*
X125513229Y-99472560D01*
X125429291Y-99675204D01*
X125386500Y-99890330D01*
X120138500Y-99890330D01*
X120138500Y-99763245D01*
X120085140Y-99494990D01*
X119980472Y-99242299D01*
X119828518Y-99014883D01*
X119635117Y-98821482D01*
X119407701Y-98669528D01*
X119155010Y-98564860D01*
X118886755Y-98511500D01*
X118613245Y-98511500D01*
X118344990Y-98564860D01*
X118092299Y-98669528D01*
X117864883Y-98821482D01*
X117671482Y-99014883D01*
X117519528Y-99242299D01*
X117414860Y-99494990D01*
X117361500Y-99763245D01*
X112217274Y-99763245D01*
X112217274Y-99500000D01*
X112212186Y-99448345D01*
X112197119Y-99398675D01*
X112172652Y-99352899D01*
X112139723Y-99312777D01*
X112099601Y-99279848D01*
X112053825Y-99255381D01*
X112004155Y-99240314D01*
X111952500Y-99235226D01*
X110047500Y-99235226D01*
X109995845Y-99240314D01*
X109946175Y-99255381D01*
X109900399Y-99279848D01*
X109860277Y-99312777D01*
X109827348Y-99352899D01*
X109802881Y-99398675D01*
X109787814Y-99448345D01*
X109782726Y-99500000D01*
X109208165Y-99500000D01*
X109161557Y-99459669D01*
X108954385Y-99341879D01*
X108728214Y-99266770D01*
X108712683Y-99263043D01*
X108523500Y-99304129D01*
X108396500Y-99304129D01*
X108207317Y-99263043D01*
X108191786Y-99266770D01*
X107965615Y-99341879D01*
X107758443Y-99459669D01*
X107578232Y-99615613D01*
X107431906Y-99803718D01*
X107325089Y-100016755D01*
X107261886Y-100246538D01*
X107121598Y-100246538D01*
X107118405Y-100214123D01*
X107048873Y-99984907D01*
X106935959Y-99773659D01*
X106784002Y-99588498D01*
X106598842Y-99436541D01*
X106387594Y-99323627D01*
X106158378Y-99254095D01*
X105920000Y-99230617D01*
X105681623Y-99254095D01*
X105452407Y-99323627D01*
X105241159Y-99436541D01*
X105055999Y-99588498D01*
X104904041Y-99773658D01*
X104791127Y-99984906D01*
X104721595Y-100214122D01*
X104704000Y-100392768D01*
X98221380Y-100392768D01*
X98123756Y-100327538D01*
X97930212Y-100247370D01*
X97724746Y-100206500D01*
X97515254Y-100206500D01*
X97309788Y-100247370D01*
X97116244Y-100327538D01*
X96942058Y-100443925D01*
X96793925Y-100592058D01*
X96677538Y-100766244D01*
X96597370Y-100959788D01*
X96556500Y-101165254D01*
X91063500Y-101165254D01*
X91022630Y-100959788D01*
X90942462Y-100766244D01*
X90826075Y-100592058D01*
X90677942Y-100443925D01*
X90503756Y-100327538D01*
X90310212Y-100247370D01*
X90104746Y-100206500D01*
X89895254Y-100206500D01*
X89689788Y-100247370D01*
X89496244Y-100327538D01*
X89322058Y-100443925D01*
X89173925Y-100592058D01*
X89057538Y-100766244D01*
X88977370Y-100959788D01*
X88936500Y-101165254D01*
X78076567Y-101165254D01*
X78055337Y-101058528D01*
X77941246Y-100783089D01*
X77775612Y-100535200D01*
X77564800Y-100324388D01*
X77316911Y-100158754D01*
X77041472Y-100044663D01*
X76749067Y-99986500D01*
X76450933Y-99986500D01*
X76158528Y-100044663D01*
X75883089Y-100158754D01*
X75635200Y-100324388D01*
X75424388Y-100535200D01*
X75258754Y-100783089D01*
X75144663Y-101058528D01*
X75086500Y-101350933D01*
X70390500Y-101350933D01*
X70390500Y-99924802D01*
X71736500Y-99924802D01*
X71736500Y-100075198D01*
X71765841Y-100222705D01*
X71823395Y-100361653D01*
X71906951Y-100486703D01*
X72013297Y-100593049D01*
X72138347Y-100676605D01*
X72277295Y-100734159D01*
X72424802Y-100763500D01*
X72575198Y-100763500D01*
X72722705Y-100734159D01*
X72861653Y-100676605D01*
X72986703Y-100593049D01*
X73093049Y-100486703D01*
X73176605Y-100361653D01*
X73234159Y-100222705D01*
X73263500Y-100075198D01*
X73263500Y-99924802D01*
X79236500Y-99924802D01*
X79236500Y-100075198D01*
X79265841Y-100222705D01*
X79323395Y-100361653D01*
X79406951Y-100486703D01*
X79513297Y-100593049D01*
X79638347Y-100676605D01*
X79777295Y-100734159D01*
X79924802Y-100763500D01*
X80075198Y-100763500D01*
X80222705Y-100734159D01*
X80361653Y-100676605D01*
X80486703Y-100593049D01*
X80593049Y-100486703D01*
X80676605Y-100361653D01*
X80734159Y-100222705D01*
X80763500Y-100075198D01*
X80763500Y-99924802D01*
X80734159Y-99777295D01*
X80676605Y-99638347D01*
X80593049Y-99513297D01*
X80486703Y-99406951D01*
X80361653Y-99323395D01*
X80222705Y-99265841D01*
X80075198Y-99236500D01*
X79924802Y-99236500D01*
X79777295Y-99265841D01*
X79638347Y-99323395D01*
X79513297Y-99406951D01*
X79406951Y-99513297D01*
X79323395Y-99638347D01*
X79265841Y-99777295D01*
X79236500Y-99924802D01*
X73263500Y-99924802D01*
X73234159Y-99777295D01*
X73176605Y-99638347D01*
X73093049Y-99513297D01*
X72986703Y-99406951D01*
X72861653Y-99323395D01*
X72722705Y-99265841D01*
X72575198Y-99236500D01*
X72424802Y-99236500D01*
X72277295Y-99265841D01*
X72138347Y-99323395D01*
X72013297Y-99406951D01*
X71906951Y-99513297D01*
X71823395Y-99638347D01*
X71765841Y-99777295D01*
X71736500Y-99924802D01*
X70390500Y-99924802D01*
X70390500Y-97100933D01*
X80386500Y-97100933D01*
X80386500Y-97399067D01*
X80444663Y-97691472D01*
X80558754Y-97966911D01*
X80724388Y-98214800D01*
X80935200Y-98425612D01*
X81183089Y-98591246D01*
X81458528Y-98705337D01*
X81750933Y-98763500D01*
X82049067Y-98763500D01*
X82341472Y-98705337D01*
X82534808Y-98625254D01*
X88936500Y-98625254D01*
X88936500Y-98834746D01*
X88977370Y-99040212D01*
X89057538Y-99233756D01*
X89173925Y-99407942D01*
X89322058Y-99556075D01*
X89496244Y-99672462D01*
X89689788Y-99752630D01*
X89895254Y-99793500D01*
X90104746Y-99793500D01*
X90310212Y-99752630D01*
X90503756Y-99672462D01*
X90677942Y-99556075D01*
X90826075Y-99407942D01*
X90942462Y-99233756D01*
X91022630Y-99040212D01*
X91063500Y-98834746D01*
X91063500Y-98625254D01*
X96556500Y-98625254D01*
X96556500Y-98834746D01*
X96597370Y-99040212D01*
X96677538Y-99233756D01*
X96793925Y-99407942D01*
X96942058Y-99556075D01*
X97116244Y-99672462D01*
X97309788Y-99752630D01*
X97515254Y-99793500D01*
X97724746Y-99793500D01*
X97930212Y-99752630D01*
X98123756Y-99672462D01*
X98297942Y-99556075D01*
X98446075Y-99407942D01*
X98562462Y-99233756D01*
X98642630Y-99040212D01*
X98683500Y-98834746D01*
X98683500Y-98625254D01*
X98642630Y-98419788D01*
X98562462Y-98226244D01*
X98446075Y-98052058D01*
X98297942Y-97903925D01*
X98123756Y-97787538D01*
X97930212Y-97707370D01*
X97724746Y-97666500D01*
X97515254Y-97666500D01*
X97309788Y-97707370D01*
X97116244Y-97787538D01*
X96942058Y-97903925D01*
X96793925Y-98052058D01*
X96677538Y-98226244D01*
X96597370Y-98419788D01*
X96556500Y-98625254D01*
X91063500Y-98625254D01*
X91022630Y-98419788D01*
X90942462Y-98226244D01*
X90826075Y-98052058D01*
X90677942Y-97903925D01*
X90503756Y-97787538D01*
X90310212Y-97707370D01*
X90104746Y-97666500D01*
X89895254Y-97666500D01*
X89689788Y-97707370D01*
X89496244Y-97787538D01*
X89322058Y-97903925D01*
X89173925Y-98052058D01*
X89057538Y-98226244D01*
X88977370Y-98419788D01*
X88936500Y-98625254D01*
X82534808Y-98625254D01*
X82616911Y-98591246D01*
X82864800Y-98425612D01*
X83075612Y-98214800D01*
X83241246Y-97966911D01*
X83355337Y-97691472D01*
X83413500Y-97399067D01*
X83413500Y-97365104D01*
X85536500Y-97365104D01*
X85536500Y-97554896D01*
X85573527Y-97741043D01*
X85646157Y-97916388D01*
X85751601Y-98074195D01*
X85885805Y-98208399D01*
X86043612Y-98313843D01*
X86218957Y-98386473D01*
X86405104Y-98423500D01*
X86594896Y-98423500D01*
X86781043Y-98386473D01*
X86956388Y-98313843D01*
X87114195Y-98208399D01*
X87248399Y-98074195D01*
X87353843Y-97916388D01*
X87426473Y-97741043D01*
X87463500Y-97554896D01*
X87463500Y-97365104D01*
X100156500Y-97365104D01*
X100156500Y-97554896D01*
X100193527Y-97741043D01*
X100266157Y-97916388D01*
X100371601Y-98074195D01*
X100505805Y-98208399D01*
X100663612Y-98313843D01*
X100838957Y-98386473D01*
X101025104Y-98423500D01*
X101214896Y-98423500D01*
X101401043Y-98386473D01*
X101576388Y-98313843D01*
X101734195Y-98208399D01*
X101868399Y-98074195D01*
X101973843Y-97916388D01*
X102046473Y-97741043D01*
X102083500Y-97554896D01*
X102083500Y-97365104D01*
X102080562Y-97350330D01*
X125386500Y-97350330D01*
X125386500Y-97569670D01*
X125429291Y-97784796D01*
X125513229Y-97987440D01*
X125635088Y-98169815D01*
X125790185Y-98324912D01*
X125972560Y-98446771D01*
X126175204Y-98530709D01*
X126390330Y-98573500D01*
X126609670Y-98573500D01*
X126824796Y-98530709D01*
X127027440Y-98446771D01*
X127209815Y-98324912D01*
X127364912Y-98169815D01*
X127486771Y-97987440D01*
X127570709Y-97784796D01*
X127613500Y-97569670D01*
X127613500Y-97350330D01*
X127570709Y-97135204D01*
X127486771Y-96932560D01*
X127364912Y-96750185D01*
X127209815Y-96595088D01*
X127027440Y-96473229D01*
X126824796Y-96389291D01*
X126609670Y-96346500D01*
X126390330Y-96346500D01*
X126175204Y-96389291D01*
X125972560Y-96473229D01*
X125790185Y-96595088D01*
X125635088Y-96750185D01*
X125513229Y-96932560D01*
X125429291Y-97135204D01*
X125386500Y-97350330D01*
X102080562Y-97350330D01*
X102046473Y-97178957D01*
X101973843Y-97003612D01*
X101868399Y-96845805D01*
X101734195Y-96711601D01*
X101576388Y-96606157D01*
X101401043Y-96533527D01*
X101214896Y-96496500D01*
X101025104Y-96496500D01*
X100838957Y-96533527D01*
X100663612Y-96606157D01*
X100505805Y-96711601D01*
X100371601Y-96845805D01*
X100266157Y-97003612D01*
X100193527Y-97178957D01*
X100156500Y-97365104D01*
X87463500Y-97365104D01*
X87426473Y-97178957D01*
X87353843Y-97003612D01*
X87248399Y-96845805D01*
X87114195Y-96711601D01*
X86956388Y-96606157D01*
X86781043Y-96533527D01*
X86594896Y-96496500D01*
X86405104Y-96496500D01*
X86218957Y-96533527D01*
X86043612Y-96606157D01*
X85885805Y-96711601D01*
X85751601Y-96845805D01*
X85646157Y-97003612D01*
X85573527Y-97178957D01*
X85536500Y-97365104D01*
X83413500Y-97365104D01*
X83413500Y-97100933D01*
X83355337Y-96808528D01*
X83241246Y-96533089D01*
X83075612Y-96285200D01*
X82864800Y-96074388D01*
X82616911Y-95908754D01*
X82341472Y-95794663D01*
X82049067Y-95736500D01*
X81750933Y-95736500D01*
X81458528Y-95794663D01*
X81183089Y-95908754D01*
X80935200Y-96074388D01*
X80724388Y-96285200D01*
X80558754Y-96533089D01*
X80444663Y-96808528D01*
X80386500Y-97100933D01*
X70390500Y-97100933D01*
X70390500Y-95390000D01*
X88935226Y-95390000D01*
X88935226Y-96990000D01*
X88940314Y-97041655D01*
X88955381Y-97091325D01*
X88979848Y-97137101D01*
X89012777Y-97177223D01*
X89052899Y-97210152D01*
X89098675Y-97234619D01*
X89148345Y-97249686D01*
X89200000Y-97254774D01*
X90800000Y-97254774D01*
X90851655Y-97249686D01*
X90901325Y-97234619D01*
X90947101Y-97210152D01*
X90987223Y-97177223D01*
X91020152Y-97137101D01*
X91044619Y-97091325D01*
X91059686Y-97041655D01*
X91064774Y-96990000D01*
X91064774Y-96085254D01*
X96556500Y-96085254D01*
X96556500Y-96294746D01*
X96597370Y-96500212D01*
X96677538Y-96693756D01*
X96793925Y-96867942D01*
X96942058Y-97016075D01*
X97116244Y-97132462D01*
X97309788Y-97212630D01*
X97515254Y-97253500D01*
X97724746Y-97253500D01*
X97930212Y-97212630D01*
X98123756Y-97132462D01*
X98297942Y-97016075D01*
X98446075Y-96867942D01*
X98562462Y-96693756D01*
X98642630Y-96500212D01*
X98683500Y-96294746D01*
X98683500Y-96145254D01*
X104856500Y-96145254D01*
X104856500Y-96354746D01*
X104897370Y-96560212D01*
X104977538Y-96753756D01*
X105093925Y-96927942D01*
X105242058Y-97076075D01*
X105416244Y-97192462D01*
X105609788Y-97272630D01*
X105815254Y-97313500D01*
X106024746Y-97313500D01*
X106230212Y-97272630D01*
X106423756Y-97192462D01*
X106597942Y-97076075D01*
X106746075Y-96927942D01*
X106862462Y-96753756D01*
X106942630Y-96560212D01*
X106983500Y-96354746D01*
X106983500Y-96145254D01*
X109936500Y-96145254D01*
X109936500Y-96354746D01*
X109977370Y-96560212D01*
X110057538Y-96753756D01*
X110173925Y-96927942D01*
X110322058Y-97076075D01*
X110496244Y-97192462D01*
X110689788Y-97272630D01*
X110895254Y-97313500D01*
X111104746Y-97313500D01*
X111310212Y-97272630D01*
X111503756Y-97192462D01*
X111677942Y-97076075D01*
X111826075Y-96927942D01*
X111942462Y-96753756D01*
X112022630Y-96560212D01*
X112063500Y-96354746D01*
X112063500Y-96145254D01*
X112030665Y-95980179D01*
X115986500Y-95980179D01*
X115986500Y-96179821D01*
X116025448Y-96375627D01*
X116101848Y-96560072D01*
X116212763Y-96726069D01*
X116353931Y-96867237D01*
X116519928Y-96978152D01*
X116704373Y-97054552D01*
X116900179Y-97093500D01*
X117099821Y-97093500D01*
X117295627Y-97054552D01*
X117480072Y-96978152D01*
X117646069Y-96867237D01*
X117787237Y-96726069D01*
X117898152Y-96560072D01*
X117974552Y-96375627D01*
X118013500Y-96179821D01*
X118013500Y-95980179D01*
X117974552Y-95784373D01*
X117968599Y-95770000D01*
X125385225Y-95770000D01*
X125390313Y-95821655D01*
X125405380Y-95871325D01*
X125429848Y-95917101D01*
X125462776Y-95957224D01*
X125502899Y-95990152D01*
X125548675Y-96014620D01*
X125598345Y-96029687D01*
X125650000Y-96034775D01*
X126370625Y-96033500D01*
X126436500Y-95967625D01*
X126436500Y-94983500D01*
X126563500Y-94983500D01*
X126563500Y-95967625D01*
X126629375Y-96033500D01*
X127350000Y-96034775D01*
X127401655Y-96029687D01*
X127451325Y-96014620D01*
X127497101Y-95990152D01*
X127537224Y-95957224D01*
X127570152Y-95917101D01*
X127594620Y-95871325D01*
X127609687Y-95821655D01*
X127614775Y-95770000D01*
X127613500Y-95049375D01*
X127547625Y-94983500D01*
X126563500Y-94983500D01*
X126436500Y-94983500D01*
X125452375Y-94983500D01*
X125386500Y-95049375D01*
X125385225Y-95770000D01*
X117968599Y-95770000D01*
X117898152Y-95599928D01*
X117787237Y-95433931D01*
X117646069Y-95292763D01*
X117480072Y-95181848D01*
X117295627Y-95105448D01*
X117099821Y-95066500D01*
X116900179Y-95066500D01*
X116704373Y-95105448D01*
X116519928Y-95181848D01*
X116353931Y-95292763D01*
X116212763Y-95433931D01*
X116101848Y-95599928D01*
X116025448Y-95784373D01*
X115986500Y-95980179D01*
X112030665Y-95980179D01*
X112022630Y-95939788D01*
X111942462Y-95746244D01*
X111826075Y-95572058D01*
X111677942Y-95423925D01*
X111503756Y-95307538D01*
X111310212Y-95227370D01*
X111104746Y-95186500D01*
X110895254Y-95186500D01*
X110689788Y-95227370D01*
X110496244Y-95307538D01*
X110322058Y-95423925D01*
X110173925Y-95572058D01*
X110057538Y-95746244D01*
X109977370Y-95939788D01*
X109936500Y-96145254D01*
X106983500Y-96145254D01*
X106942630Y-95939788D01*
X106862462Y-95746244D01*
X106746075Y-95572058D01*
X106597942Y-95423925D01*
X106423756Y-95307538D01*
X106230212Y-95227370D01*
X106024746Y-95186500D01*
X105815254Y-95186500D01*
X105609788Y-95227370D01*
X105416244Y-95307538D01*
X105242058Y-95423925D01*
X105093925Y-95572058D01*
X104977538Y-95746244D01*
X104897370Y-95939788D01*
X104856500Y-96145254D01*
X98683500Y-96145254D01*
X98683500Y-96085254D01*
X98642630Y-95879788D01*
X98562462Y-95686244D01*
X98446075Y-95512058D01*
X98297942Y-95363925D01*
X98123756Y-95247538D01*
X97930212Y-95167370D01*
X97724746Y-95126500D01*
X97515254Y-95126500D01*
X97309788Y-95167370D01*
X97116244Y-95247538D01*
X96942058Y-95363925D01*
X96793925Y-95512058D01*
X96677538Y-95686244D01*
X96597370Y-95879788D01*
X96556500Y-96085254D01*
X91064774Y-96085254D01*
X91064774Y-95390000D01*
X91059686Y-95338345D01*
X91044619Y-95288675D01*
X91020152Y-95242899D01*
X90987223Y-95202777D01*
X90947101Y-95169848D01*
X90901325Y-95145381D01*
X90851655Y-95130314D01*
X90800000Y-95125226D01*
X89200000Y-95125226D01*
X89148345Y-95130314D01*
X89098675Y-95145381D01*
X89052899Y-95169848D01*
X89012777Y-95202777D01*
X88979848Y-95242899D01*
X88955381Y-95288675D01*
X88940314Y-95338345D01*
X88935226Y-95390000D01*
X70390500Y-95390000D01*
X70390500Y-94256943D01*
X116372860Y-94256943D01*
X116453935Y-94399628D01*
X116632133Y-94489642D01*
X116824467Y-94543163D01*
X117023547Y-94558133D01*
X117221723Y-94533976D01*
X117411378Y-94471620D01*
X117546065Y-94399628D01*
X117627140Y-94256943D01*
X117000000Y-93629803D01*
X116372860Y-94256943D01*
X70390500Y-94256943D01*
X70390500Y-93252544D01*
X90647259Y-93252544D01*
X90734348Y-93400350D01*
X90921058Y-93495354D01*
X91122716Y-93552107D01*
X91331570Y-93568428D01*
X91372616Y-93563547D01*
X115981867Y-93563547D01*
X116006024Y-93761723D01*
X116068380Y-93951378D01*
X116140372Y-94086065D01*
X116283057Y-94167140D01*
X116910197Y-93540000D01*
X117089803Y-93540000D01*
X117716943Y-94167140D01*
X117859628Y-94086065D01*
X117867742Y-94070000D01*
X125385225Y-94070000D01*
X125386500Y-94790625D01*
X125452375Y-94856500D01*
X126436500Y-94856500D01*
X126436500Y-93872375D01*
X126563500Y-93872375D01*
X126563500Y-94856500D01*
X127547625Y-94856500D01*
X127613500Y-94790625D01*
X127614775Y-94070000D01*
X127609687Y-94018345D01*
X127594620Y-93968675D01*
X127570152Y-93922899D01*
X127537224Y-93882776D01*
X127497101Y-93849848D01*
X127451325Y-93825380D01*
X127401655Y-93810313D01*
X127350000Y-93805225D01*
X126629375Y-93806500D01*
X126563500Y-93872375D01*
X126436500Y-93872375D01*
X126370625Y-93806500D01*
X125650000Y-93805225D01*
X125598345Y-93810313D01*
X125548675Y-93825380D01*
X125502899Y-93849848D01*
X125462776Y-93882776D01*
X125429848Y-93922899D01*
X125405380Y-93968675D01*
X125390313Y-94018345D01*
X125385225Y-94070000D01*
X117867742Y-94070000D01*
X117949642Y-93907867D01*
X118003163Y-93715533D01*
X118018133Y-93516453D01*
X117993976Y-93318277D01*
X117931620Y-93128622D01*
X117859628Y-92993935D01*
X117716943Y-92912860D01*
X117089803Y-93540000D01*
X116910197Y-93540000D01*
X116283057Y-92912860D01*
X116140372Y-92993935D01*
X116050358Y-93172133D01*
X115996837Y-93364467D01*
X115981867Y-93563547D01*
X91372616Y-93563547D01*
X91539595Y-93543691D01*
X91738797Y-93478845D01*
X91885652Y-93400350D01*
X91972741Y-93252544D01*
X91310000Y-92589803D01*
X90647259Y-93252544D01*
X70390500Y-93252544D01*
X70390500Y-92521570D01*
X90241572Y-92521570D01*
X90266309Y-92729595D01*
X90331155Y-92928797D01*
X90409650Y-93075652D01*
X90557456Y-93162741D01*
X91220197Y-92500000D01*
X91399803Y-92500000D01*
X92062544Y-93162741D01*
X92210350Y-93075652D01*
X92305354Y-92888942D01*
X92362107Y-92687284D01*
X92378428Y-92478430D01*
X92368538Y-92395254D01*
X95246500Y-92395254D01*
X95246500Y-92604746D01*
X95287370Y-92810212D01*
X95367538Y-93003756D01*
X95483925Y-93177942D01*
X95632058Y-93326075D01*
X95806244Y-93442462D01*
X95999788Y-93522630D01*
X96205254Y-93563500D01*
X96414746Y-93563500D01*
X96620212Y-93522630D01*
X96813756Y-93442462D01*
X96987942Y-93326075D01*
X97136075Y-93177942D01*
X97252462Y-93003756D01*
X97327309Y-92823057D01*
X116372860Y-92823057D01*
X117000000Y-93450197D01*
X117627140Y-92823057D01*
X117546065Y-92680372D01*
X117367867Y-92590358D01*
X117175533Y-92536837D01*
X116976453Y-92521867D01*
X116778277Y-92546024D01*
X116588622Y-92608380D01*
X116453935Y-92680372D01*
X116372860Y-92823057D01*
X97327309Y-92823057D01*
X97332630Y-92810212D01*
X97373500Y-92604746D01*
X97373500Y-92395254D01*
X97332630Y-92189788D01*
X97255072Y-92002544D01*
X105257259Y-92002544D01*
X105344348Y-92150350D01*
X105531058Y-92245354D01*
X105732716Y-92302107D01*
X105941570Y-92318428D01*
X106149595Y-92293691D01*
X106348797Y-92228845D01*
X106495652Y-92150350D01*
X106582741Y-92002544D01*
X110337259Y-92002544D01*
X110424348Y-92150350D01*
X110611058Y-92245354D01*
X110812716Y-92302107D01*
X111021570Y-92318428D01*
X111229595Y-92293691D01*
X111428797Y-92228845D01*
X111575652Y-92150350D01*
X111662741Y-92002544D01*
X111000000Y-91339803D01*
X110337259Y-92002544D01*
X106582741Y-92002544D01*
X105920000Y-91339803D01*
X105257259Y-92002544D01*
X97255072Y-92002544D01*
X97252462Y-91996244D01*
X97136075Y-91822058D01*
X96987942Y-91673925D01*
X96813756Y-91557538D01*
X96620212Y-91477370D01*
X96414746Y-91436500D01*
X96205254Y-91436500D01*
X95999788Y-91477370D01*
X95806244Y-91557538D01*
X95632058Y-91673925D01*
X95483925Y-91822058D01*
X95367538Y-91996244D01*
X95287370Y-92189788D01*
X95246500Y-92395254D01*
X92368538Y-92395254D01*
X92353691Y-92270405D01*
X92288845Y-92071203D01*
X92210350Y-91924348D01*
X92062544Y-91837259D01*
X91399803Y-92500000D01*
X91220197Y-92500000D01*
X90557456Y-91837259D01*
X90409650Y-91924348D01*
X90314646Y-92111058D01*
X90257893Y-92312716D01*
X90241572Y-92521570D01*
X70390500Y-92521570D01*
X70390500Y-91747456D01*
X90647259Y-91747456D01*
X91310000Y-92410197D01*
X91972741Y-91747456D01*
X91885652Y-91599650D01*
X91698942Y-91504646D01*
X91497284Y-91447893D01*
X91288430Y-91431572D01*
X91080405Y-91456309D01*
X90881203Y-91521155D01*
X90734348Y-91599650D01*
X90647259Y-91747456D01*
X70390500Y-91747456D01*
X70390500Y-91271570D01*
X104851572Y-91271570D01*
X104876309Y-91479595D01*
X104941155Y-91678797D01*
X105019650Y-91825652D01*
X105167456Y-91912741D01*
X105830197Y-91250000D01*
X106009803Y-91250000D01*
X106672544Y-91912741D01*
X106820350Y-91825652D01*
X106915354Y-91638942D01*
X106972107Y-91437284D01*
X106985056Y-91271570D01*
X109931572Y-91271570D01*
X109956309Y-91479595D01*
X110021155Y-91678797D01*
X110099650Y-91825652D01*
X110247456Y-91912741D01*
X110910197Y-91250000D01*
X111089803Y-91250000D01*
X111752544Y-91912741D01*
X111900350Y-91825652D01*
X111995354Y-91638942D01*
X112052107Y-91437284D01*
X112068428Y-91228430D01*
X112043691Y-91020405D01*
X111978845Y-90821203D01*
X111900350Y-90674348D01*
X111752544Y-90587259D01*
X111089803Y-91250000D01*
X110910197Y-91250000D01*
X110247456Y-90587259D01*
X110099650Y-90674348D01*
X110004646Y-90861058D01*
X109947893Y-91062716D01*
X109931572Y-91271570D01*
X106985056Y-91271570D01*
X106988428Y-91228430D01*
X106963691Y-91020405D01*
X106898845Y-90821203D01*
X106820350Y-90674348D01*
X106672544Y-90587259D01*
X106009803Y-91250000D01*
X105830197Y-91250000D01*
X105167456Y-90587259D01*
X105019650Y-90674348D01*
X104924646Y-90861058D01*
X104867893Y-91062716D01*
X104851572Y-91271570D01*
X70390500Y-91271570D01*
X70390500Y-90497456D01*
X105257259Y-90497456D01*
X105920000Y-91160197D01*
X106582741Y-90497456D01*
X110337259Y-90497456D01*
X111000000Y-91160197D01*
X111662741Y-90497456D01*
X111575652Y-90349650D01*
X111388942Y-90254646D01*
X111372434Y-90250000D01*
X115985226Y-90250000D01*
X115985226Y-91750000D01*
X115990314Y-91801655D01*
X116005381Y-91851325D01*
X116029848Y-91897101D01*
X116062777Y-91937223D01*
X116102899Y-91970152D01*
X116148675Y-91994619D01*
X116198345Y-92009686D01*
X116250000Y-92014774D01*
X117750000Y-92014774D01*
X117801655Y-92009686D01*
X117851325Y-91994619D01*
X117897101Y-91970152D01*
X117937223Y-91937223D01*
X117970152Y-91897101D01*
X117994619Y-91851325D01*
X118009686Y-91801655D01*
X118014774Y-91750000D01*
X118014774Y-90250000D01*
X118009686Y-90198345D01*
X117994619Y-90148675D01*
X117970152Y-90102899D01*
X117937223Y-90062777D01*
X117897101Y-90029848D01*
X117851325Y-90005381D01*
X117801655Y-89990314D01*
X117750000Y-89985226D01*
X116250000Y-89985226D01*
X116198345Y-89990314D01*
X116148675Y-90005381D01*
X116102899Y-90029848D01*
X116062777Y-90062777D01*
X116029848Y-90102899D01*
X116005381Y-90148675D01*
X115990314Y-90198345D01*
X115985226Y-90250000D01*
X111372434Y-90250000D01*
X111187284Y-90197893D01*
X110978430Y-90181572D01*
X110770405Y-90206309D01*
X110571203Y-90271155D01*
X110424348Y-90349650D01*
X110337259Y-90497456D01*
X106582741Y-90497456D01*
X106495652Y-90349650D01*
X106308942Y-90254646D01*
X106107284Y-90197893D01*
X105898430Y-90181572D01*
X105690405Y-90206309D01*
X105491203Y-90271155D01*
X105344348Y-90349650D01*
X105257259Y-90497456D01*
X70390500Y-90497456D01*
X70390500Y-89038790D01*
X88961401Y-89038790D01*
X89009325Y-89196785D01*
X89103819Y-89382624D01*
X89232752Y-89546457D01*
X89391170Y-89681989D01*
X89572985Y-89784011D01*
X89771210Y-89848602D01*
X89936500Y-89805731D01*
X89936500Y-88873500D01*
X90063500Y-88873500D01*
X90063500Y-89805731D01*
X90228790Y-89848602D01*
X90427015Y-89784011D01*
X90608830Y-89681989D01*
X90767248Y-89546457D01*
X90896181Y-89382624D01*
X90990675Y-89196785D01*
X91038599Y-89038790D01*
X90995602Y-88873500D01*
X90063500Y-88873500D01*
X89936500Y-88873500D01*
X89004398Y-88873500D01*
X88961401Y-89038790D01*
X70390500Y-89038790D01*
X70390500Y-88581210D01*
X88961401Y-88581210D01*
X89004398Y-88746500D01*
X89936500Y-88746500D01*
X89936500Y-87814269D01*
X90063500Y-87814269D01*
X90063500Y-88746500D01*
X90995602Y-88746500D01*
X91006331Y-88705254D01*
X96556500Y-88705254D01*
X96556500Y-88914746D01*
X96597370Y-89120212D01*
X96677538Y-89313756D01*
X96793925Y-89487942D01*
X96942058Y-89636075D01*
X97116244Y-89752462D01*
X97309788Y-89832630D01*
X97515254Y-89873500D01*
X97724746Y-89873500D01*
X97930212Y-89832630D01*
X98123756Y-89752462D01*
X98297942Y-89636075D01*
X98446075Y-89487942D01*
X98562462Y-89313756D01*
X98635316Y-89137868D01*
X124361500Y-89137868D01*
X124361500Y-89362132D01*
X124405252Y-89582088D01*
X124491074Y-89789282D01*
X124615669Y-89975752D01*
X124774248Y-90134331D01*
X124960718Y-90258926D01*
X125167912Y-90344748D01*
X125387868Y-90388500D01*
X125612132Y-90388500D01*
X125832088Y-90344748D01*
X126039282Y-90258926D01*
X126225752Y-90134331D01*
X126384331Y-89975752D01*
X126508926Y-89789282D01*
X126594748Y-89582088D01*
X126638500Y-89362132D01*
X126638500Y-89137868D01*
X126594748Y-88917912D01*
X126508926Y-88710718D01*
X126384331Y-88524248D01*
X126225752Y-88365669D01*
X126039282Y-88241074D01*
X125832088Y-88155252D01*
X125612132Y-88111500D01*
X125387868Y-88111500D01*
X125167912Y-88155252D01*
X124960718Y-88241074D01*
X124774248Y-88365669D01*
X124615669Y-88524248D01*
X124491074Y-88710718D01*
X124405252Y-88917912D01*
X124361500Y-89137868D01*
X98635316Y-89137868D01*
X98642630Y-89120212D01*
X98683500Y-88914746D01*
X98683500Y-88705254D01*
X98642630Y-88499788D01*
X98562462Y-88306244D01*
X98446075Y-88132058D01*
X98297942Y-87983925D01*
X98123756Y-87867538D01*
X97930212Y-87787370D01*
X97724746Y-87746500D01*
X97515254Y-87746500D01*
X97309788Y-87787370D01*
X97116244Y-87867538D01*
X96942058Y-87983925D01*
X96793925Y-88132058D01*
X96677538Y-88306244D01*
X96597370Y-88499788D01*
X96556500Y-88705254D01*
X91006331Y-88705254D01*
X91038599Y-88581210D01*
X90990675Y-88423215D01*
X90896181Y-88237376D01*
X90767248Y-88073543D01*
X90608830Y-87938011D01*
X90427015Y-87835989D01*
X90228790Y-87771398D01*
X90063500Y-87814269D01*
X89936500Y-87814269D01*
X89771210Y-87771398D01*
X89572985Y-87835989D01*
X89391170Y-87938011D01*
X89232752Y-88073543D01*
X89103819Y-88237376D01*
X89009325Y-88423215D01*
X88961401Y-88581210D01*
X70390500Y-88581210D01*
X70390500Y-87395254D01*
X85436500Y-87395254D01*
X85436500Y-87604746D01*
X85477370Y-87810212D01*
X85557538Y-88003756D01*
X85673925Y-88177942D01*
X85822058Y-88326075D01*
X85996244Y-88442462D01*
X86189788Y-88522630D01*
X86395254Y-88563500D01*
X86604746Y-88563500D01*
X86810212Y-88522630D01*
X87003756Y-88442462D01*
X87177942Y-88326075D01*
X87326075Y-88177942D01*
X87442462Y-88003756D01*
X87522630Y-87810212D01*
X87563500Y-87604746D01*
X87563500Y-87445104D01*
X100156500Y-87445104D01*
X100156500Y-87634896D01*
X100193527Y-87821043D01*
X100266157Y-87996388D01*
X100371601Y-88154195D01*
X100505805Y-88288399D01*
X100663612Y-88393843D01*
X100838957Y-88466473D01*
X101025104Y-88503500D01*
X101214896Y-88503500D01*
X101401043Y-88466473D01*
X101576388Y-88393843D01*
X101734195Y-88288399D01*
X101868399Y-88154195D01*
X101973843Y-87996388D01*
X102046473Y-87821043D01*
X102083500Y-87634896D01*
X102083500Y-87445104D01*
X102073585Y-87395254D01*
X103556500Y-87395254D01*
X103556500Y-87604746D01*
X103597370Y-87810212D01*
X103677538Y-88003756D01*
X103793925Y-88177942D01*
X103942058Y-88326075D01*
X104116244Y-88442462D01*
X104309788Y-88522630D01*
X104515254Y-88563500D01*
X104724746Y-88563500D01*
X104930212Y-88522630D01*
X105123756Y-88442462D01*
X105297942Y-88326075D01*
X105446075Y-88177942D01*
X105562462Y-88003756D01*
X105642630Y-87810212D01*
X105683500Y-87604746D01*
X105683500Y-87445104D01*
X107156500Y-87445104D01*
X107156500Y-87634896D01*
X107193527Y-87821043D01*
X107266157Y-87996388D01*
X107371601Y-88154195D01*
X107505805Y-88288399D01*
X107663612Y-88393843D01*
X107838957Y-88466473D01*
X108025104Y-88503500D01*
X108214896Y-88503500D01*
X108401043Y-88466473D01*
X108576388Y-88393843D01*
X108734195Y-88288399D01*
X108868399Y-88154195D01*
X108973843Y-87996388D01*
X109046473Y-87821043D01*
X109083500Y-87634896D01*
X109083500Y-87445104D01*
X110656500Y-87445104D01*
X110656500Y-87634896D01*
X110693527Y-87821043D01*
X110766157Y-87996388D01*
X110871601Y-88154195D01*
X111005805Y-88288399D01*
X111163612Y-88393843D01*
X111338957Y-88466473D01*
X111525104Y-88503500D01*
X111714896Y-88503500D01*
X111901043Y-88466473D01*
X112076388Y-88393843D01*
X112234195Y-88288399D01*
X112368399Y-88154195D01*
X112473843Y-87996388D01*
X112546473Y-87821043D01*
X112583500Y-87634896D01*
X112583500Y-87525104D01*
X114156500Y-87525104D01*
X114156500Y-87714896D01*
X114193527Y-87901043D01*
X114266157Y-88076388D01*
X114371601Y-88234195D01*
X114505805Y-88368399D01*
X114663612Y-88473843D01*
X114838957Y-88546473D01*
X115025104Y-88583500D01*
X115214896Y-88583500D01*
X115401043Y-88546473D01*
X115576388Y-88473843D01*
X115734195Y-88368399D01*
X115850050Y-88252544D01*
X117957259Y-88252544D01*
X118044348Y-88400350D01*
X118231058Y-88495354D01*
X118432716Y-88552107D01*
X118641570Y-88568428D01*
X118849595Y-88543691D01*
X119048797Y-88478845D01*
X119195652Y-88400350D01*
X119282741Y-88252544D01*
X118620000Y-87589803D01*
X117957259Y-88252544D01*
X115850050Y-88252544D01*
X115868399Y-88234195D01*
X115973843Y-88076388D01*
X116046473Y-87901043D01*
X116083500Y-87714896D01*
X116083500Y-87525104D01*
X116082798Y-87521570D01*
X117551572Y-87521570D01*
X117576309Y-87729595D01*
X117641155Y-87928797D01*
X117719650Y-88075652D01*
X117867456Y-88162741D01*
X118530197Y-87500000D01*
X118709803Y-87500000D01*
X119372544Y-88162741D01*
X119520350Y-88075652D01*
X119615354Y-87888942D01*
X119672107Y-87687284D01*
X119688428Y-87478430D01*
X119663691Y-87270405D01*
X119598845Y-87071203D01*
X119520350Y-86924348D01*
X119372544Y-86837259D01*
X118709803Y-87500000D01*
X118530197Y-87500000D01*
X117867456Y-86837259D01*
X117719650Y-86924348D01*
X117624646Y-87111058D01*
X117567893Y-87312716D01*
X117551572Y-87521570D01*
X116082798Y-87521570D01*
X116046473Y-87338957D01*
X115973843Y-87163612D01*
X115868399Y-87005805D01*
X115734195Y-86871601D01*
X115576388Y-86766157D01*
X115531240Y-86747456D01*
X117957259Y-86747456D01*
X118620000Y-87410197D01*
X119282741Y-86747456D01*
X119195652Y-86599650D01*
X119008942Y-86504646D01*
X118807284Y-86447893D01*
X118598430Y-86431572D01*
X118390405Y-86456309D01*
X118191203Y-86521155D01*
X118044348Y-86599650D01*
X117957259Y-86747456D01*
X115531240Y-86747456D01*
X115401043Y-86693527D01*
X115214896Y-86656500D01*
X115025104Y-86656500D01*
X114838957Y-86693527D01*
X114663612Y-86766157D01*
X114505805Y-86871601D01*
X114371601Y-87005805D01*
X114266157Y-87163612D01*
X114193527Y-87338957D01*
X114156500Y-87525104D01*
X112583500Y-87525104D01*
X112583500Y-87445104D01*
X112546473Y-87258957D01*
X112473843Y-87083612D01*
X112368399Y-86925805D01*
X112234195Y-86791601D01*
X112076388Y-86686157D01*
X111901043Y-86613527D01*
X111714896Y-86576500D01*
X111525104Y-86576500D01*
X111338957Y-86613527D01*
X111163612Y-86686157D01*
X111005805Y-86791601D01*
X110871601Y-86925805D01*
X110766157Y-87083612D01*
X110693527Y-87258957D01*
X110656500Y-87445104D01*
X109083500Y-87445104D01*
X109046473Y-87258957D01*
X108973843Y-87083612D01*
X108868399Y-86925805D01*
X108734195Y-86791601D01*
X108576388Y-86686157D01*
X108401043Y-86613527D01*
X108214896Y-86576500D01*
X108025104Y-86576500D01*
X107838957Y-86613527D01*
X107663612Y-86686157D01*
X107505805Y-86791601D01*
X107371601Y-86925805D01*
X107266157Y-87083612D01*
X107193527Y-87258957D01*
X107156500Y-87445104D01*
X105683500Y-87445104D01*
X105683500Y-87395254D01*
X105642630Y-87189788D01*
X105562462Y-86996244D01*
X105446075Y-86822058D01*
X105297942Y-86673925D01*
X105123756Y-86557538D01*
X104930212Y-86477370D01*
X104724746Y-86436500D01*
X104515254Y-86436500D01*
X104309788Y-86477370D01*
X104116244Y-86557538D01*
X103942058Y-86673925D01*
X103793925Y-86822058D01*
X103677538Y-86996244D01*
X103597370Y-87189788D01*
X103556500Y-87395254D01*
X102073585Y-87395254D01*
X102046473Y-87258957D01*
X101973843Y-87083612D01*
X101868399Y-86925805D01*
X101734195Y-86791601D01*
X101576388Y-86686157D01*
X101401043Y-86613527D01*
X101214896Y-86576500D01*
X101025104Y-86576500D01*
X100838957Y-86613527D01*
X100663612Y-86686157D01*
X100505805Y-86791601D01*
X100371601Y-86925805D01*
X100266157Y-87083612D01*
X100193527Y-87258957D01*
X100156500Y-87445104D01*
X87563500Y-87445104D01*
X87563500Y-87395254D01*
X87522630Y-87189788D01*
X87442462Y-86996244D01*
X87326075Y-86822058D01*
X87177942Y-86673925D01*
X87003756Y-86557538D01*
X86810212Y-86477370D01*
X86604746Y-86436500D01*
X86395254Y-86436500D01*
X86189788Y-86477370D01*
X85996244Y-86557538D01*
X85822058Y-86673925D01*
X85673925Y-86822058D01*
X85557538Y-86996244D01*
X85477370Y-87189788D01*
X85436500Y-87395254D01*
X70390500Y-87395254D01*
X70390500Y-86165254D01*
X88936500Y-86165254D01*
X88936500Y-86374746D01*
X88977370Y-86580212D01*
X89057538Y-86773756D01*
X89173925Y-86947942D01*
X89322058Y-87096075D01*
X89496244Y-87212462D01*
X89689788Y-87292630D01*
X89895254Y-87333500D01*
X90104746Y-87333500D01*
X90310212Y-87292630D01*
X90503756Y-87212462D01*
X90677942Y-87096075D01*
X90826075Y-86947942D01*
X90942462Y-86773756D01*
X91022630Y-86580212D01*
X91063500Y-86374746D01*
X91063500Y-86165254D01*
X96556500Y-86165254D01*
X96556500Y-86374746D01*
X96597370Y-86580212D01*
X96677538Y-86773756D01*
X96793925Y-86947942D01*
X96942058Y-87096075D01*
X97116244Y-87212462D01*
X97309788Y-87292630D01*
X97515254Y-87333500D01*
X97724746Y-87333500D01*
X97930212Y-87292630D01*
X98123756Y-87212462D01*
X98297942Y-87096075D01*
X98446075Y-86947942D01*
X98562462Y-86773756D01*
X98642630Y-86580212D01*
X98683500Y-86374746D01*
X98683500Y-86165254D01*
X98642630Y-85959788D01*
X98562462Y-85766244D01*
X98446075Y-85592058D01*
X98297942Y-85443925D01*
X98123756Y-85327538D01*
X97930212Y-85247370D01*
X97724746Y-85206500D01*
X97515254Y-85206500D01*
X97309788Y-85247370D01*
X97116244Y-85327538D01*
X96942058Y-85443925D01*
X96793925Y-85592058D01*
X96677538Y-85766244D01*
X96597370Y-85959788D01*
X96556500Y-86165254D01*
X91063500Y-86165254D01*
X91022630Y-85959788D01*
X90942462Y-85766244D01*
X90826075Y-85592058D01*
X90677942Y-85443925D01*
X90503756Y-85327538D01*
X90310212Y-85247370D01*
X90104746Y-85206500D01*
X89895254Y-85206500D01*
X89689788Y-85247370D01*
X89496244Y-85327538D01*
X89322058Y-85443925D01*
X89173925Y-85592058D01*
X89057538Y-85766244D01*
X88977370Y-85959788D01*
X88936500Y-86165254D01*
X70390500Y-86165254D01*
X70390500Y-83625254D01*
X88936500Y-83625254D01*
X88936500Y-83834746D01*
X88977370Y-84040212D01*
X89057538Y-84233756D01*
X89173925Y-84407942D01*
X89322058Y-84556075D01*
X89496244Y-84672462D01*
X89689788Y-84752630D01*
X89895254Y-84793500D01*
X90104746Y-84793500D01*
X90310212Y-84752630D01*
X90503756Y-84672462D01*
X90677942Y-84556075D01*
X90826075Y-84407942D01*
X90942462Y-84233756D01*
X91022630Y-84040212D01*
X91063500Y-83834746D01*
X91063500Y-83625254D01*
X96556500Y-83625254D01*
X96556500Y-83834746D01*
X96597370Y-84040212D01*
X96677538Y-84233756D01*
X96793925Y-84407942D01*
X96942058Y-84556075D01*
X97116244Y-84672462D01*
X97309788Y-84752630D01*
X97515254Y-84793500D01*
X97724746Y-84793500D01*
X97930212Y-84752630D01*
X98123756Y-84672462D01*
X98297942Y-84556075D01*
X98446075Y-84407942D01*
X98562462Y-84233756D01*
X98642630Y-84040212D01*
X98683500Y-83834746D01*
X98683500Y-83750000D01*
X123684983Y-83750000D01*
X123691036Y-83811457D01*
X123708962Y-83870552D01*
X123738073Y-83925014D01*
X123777249Y-83972751D01*
X123824986Y-84011927D01*
X123879448Y-84041038D01*
X123938543Y-84058964D01*
X124000000Y-84065017D01*
X125231125Y-84063500D01*
X125309500Y-83985125D01*
X125309500Y-82440500D01*
X125690500Y-82440500D01*
X125690500Y-83985125D01*
X125768875Y-84063500D01*
X127000000Y-84065017D01*
X127061457Y-84058964D01*
X127120552Y-84041038D01*
X127175014Y-84011927D01*
X127222751Y-83972751D01*
X127261927Y-83925014D01*
X127291038Y-83870552D01*
X127308964Y-83811457D01*
X127315017Y-83750000D01*
X127313500Y-82518875D01*
X127235125Y-82440500D01*
X125690500Y-82440500D01*
X125309500Y-82440500D01*
X123764875Y-82440500D01*
X123686500Y-82518875D01*
X123684983Y-83750000D01*
X98683500Y-83750000D01*
X98683500Y-83625254D01*
X98642630Y-83419788D01*
X98562462Y-83226244D01*
X98446075Y-83052058D01*
X98297942Y-82903925D01*
X98123756Y-82787538D01*
X97930212Y-82707370D01*
X97724746Y-82666500D01*
X97515254Y-82666500D01*
X97309788Y-82707370D01*
X97116244Y-82787538D01*
X96942058Y-82903925D01*
X96793925Y-83052058D01*
X96677538Y-83226244D01*
X96597370Y-83419788D01*
X96556500Y-83625254D01*
X91063500Y-83625254D01*
X91022630Y-83419788D01*
X90942462Y-83226244D01*
X90826075Y-83052058D01*
X90677942Y-82903925D01*
X90503756Y-82787538D01*
X90310212Y-82707370D01*
X90104746Y-82666500D01*
X89895254Y-82666500D01*
X89689788Y-82707370D01*
X89496244Y-82787538D01*
X89322058Y-82903925D01*
X89173925Y-83052058D01*
X89057538Y-83226244D01*
X88977370Y-83419788D01*
X88936500Y-83625254D01*
X70390500Y-83625254D01*
X70390500Y-82395254D01*
X85436500Y-82395254D01*
X85436500Y-82604746D01*
X85477370Y-82810212D01*
X85557538Y-83003756D01*
X85673925Y-83177942D01*
X85822058Y-83326075D01*
X85996244Y-83442462D01*
X86189788Y-83522630D01*
X86395254Y-83563500D01*
X86604746Y-83563500D01*
X86810212Y-83522630D01*
X87003756Y-83442462D01*
X87177942Y-83326075D01*
X87326075Y-83177942D01*
X87442462Y-83003756D01*
X87522630Y-82810212D01*
X87563500Y-82604746D01*
X87563500Y-82395254D01*
X87557503Y-82365104D01*
X100156500Y-82365104D01*
X100156500Y-82554896D01*
X100193527Y-82741043D01*
X100266157Y-82916388D01*
X100371601Y-83074195D01*
X100505805Y-83208399D01*
X100663612Y-83313843D01*
X100838957Y-83386473D01*
X101025104Y-83423500D01*
X101214896Y-83423500D01*
X101401043Y-83386473D01*
X101576388Y-83313843D01*
X101734195Y-83208399D01*
X101868399Y-83074195D01*
X101973843Y-82916388D01*
X102046473Y-82741043D01*
X102083500Y-82554896D01*
X102083500Y-82395254D01*
X103556500Y-82395254D01*
X103556500Y-82604746D01*
X103597370Y-82810212D01*
X103677538Y-83003756D01*
X103793925Y-83177942D01*
X103942058Y-83326075D01*
X104116244Y-83442462D01*
X104309788Y-83522630D01*
X104515254Y-83563500D01*
X104724746Y-83563500D01*
X104930212Y-83522630D01*
X105123756Y-83442462D01*
X105297942Y-83326075D01*
X105446075Y-83177942D01*
X105562462Y-83003756D01*
X105642630Y-82810212D01*
X105683500Y-82604746D01*
X105683500Y-82395254D01*
X105677503Y-82365104D01*
X107156500Y-82365104D01*
X107156500Y-82554896D01*
X107193527Y-82741043D01*
X107266157Y-82916388D01*
X107371601Y-83074195D01*
X107505805Y-83208399D01*
X107663612Y-83313843D01*
X107838957Y-83386473D01*
X108025104Y-83423500D01*
X108214896Y-83423500D01*
X108401043Y-83386473D01*
X108576388Y-83313843D01*
X108734195Y-83208399D01*
X108868399Y-83074195D01*
X108973843Y-82916388D01*
X109046473Y-82741043D01*
X109083500Y-82554896D01*
X109083500Y-82365104D01*
X110656500Y-82365104D01*
X110656500Y-82554896D01*
X110693527Y-82741043D01*
X110766157Y-82916388D01*
X110871601Y-83074195D01*
X111005805Y-83208399D01*
X111163612Y-83313843D01*
X111338957Y-83386473D01*
X111525104Y-83423500D01*
X111714896Y-83423500D01*
X111901043Y-83386473D01*
X112076388Y-83313843D01*
X112234195Y-83208399D01*
X112368399Y-83074195D01*
X112473843Y-82916388D01*
X112546473Y-82741043D01*
X112583500Y-82554896D01*
X112583500Y-82445104D01*
X114156500Y-82445104D01*
X114156500Y-82634896D01*
X114193527Y-82821043D01*
X114266157Y-82996388D01*
X114371601Y-83154195D01*
X114505805Y-83288399D01*
X114663612Y-83393843D01*
X114838957Y-83466473D01*
X115025104Y-83503500D01*
X115214896Y-83503500D01*
X115401043Y-83466473D01*
X115576388Y-83393843D01*
X115734195Y-83288399D01*
X115868399Y-83154195D01*
X115973843Y-82996388D01*
X116046473Y-82821043D01*
X116083500Y-82634896D01*
X116083500Y-82445104D01*
X116073585Y-82395254D01*
X117556500Y-82395254D01*
X117556500Y-82604746D01*
X117597370Y-82810212D01*
X117677538Y-83003756D01*
X117793925Y-83177942D01*
X117942058Y-83326075D01*
X118116244Y-83442462D01*
X118309788Y-83522630D01*
X118515254Y-83563500D01*
X118724746Y-83563500D01*
X118930212Y-83522630D01*
X119123756Y-83442462D01*
X119297942Y-83326075D01*
X119446075Y-83177942D01*
X119562462Y-83003756D01*
X119642630Y-82810212D01*
X119683500Y-82604746D01*
X119683500Y-82395254D01*
X119642630Y-82189788D01*
X119562462Y-81996244D01*
X119446075Y-81822058D01*
X119297942Y-81673925D01*
X119123756Y-81557538D01*
X118930212Y-81477370D01*
X118724746Y-81436500D01*
X118515254Y-81436500D01*
X118309788Y-81477370D01*
X118116244Y-81557538D01*
X117942058Y-81673925D01*
X117793925Y-81822058D01*
X117677538Y-81996244D01*
X117597370Y-82189788D01*
X117556500Y-82395254D01*
X116073585Y-82395254D01*
X116046473Y-82258957D01*
X115973843Y-82083612D01*
X115868399Y-81925805D01*
X115734195Y-81791601D01*
X115576388Y-81686157D01*
X115401043Y-81613527D01*
X115214896Y-81576500D01*
X115025104Y-81576500D01*
X114838957Y-81613527D01*
X114663612Y-81686157D01*
X114505805Y-81791601D01*
X114371601Y-81925805D01*
X114266157Y-82083612D01*
X114193527Y-82258957D01*
X114156500Y-82445104D01*
X112583500Y-82445104D01*
X112583500Y-82365104D01*
X112546473Y-82178957D01*
X112473843Y-82003612D01*
X112368399Y-81845805D01*
X112234195Y-81711601D01*
X112076388Y-81606157D01*
X111901043Y-81533527D01*
X111714896Y-81496500D01*
X111525104Y-81496500D01*
X111338957Y-81533527D01*
X111163612Y-81606157D01*
X111005805Y-81711601D01*
X110871601Y-81845805D01*
X110766157Y-82003612D01*
X110693527Y-82178957D01*
X110656500Y-82365104D01*
X109083500Y-82365104D01*
X109046473Y-82178957D01*
X108973843Y-82003612D01*
X108868399Y-81845805D01*
X108734195Y-81711601D01*
X108576388Y-81606157D01*
X108401043Y-81533527D01*
X108214896Y-81496500D01*
X108025104Y-81496500D01*
X107838957Y-81533527D01*
X107663612Y-81606157D01*
X107505805Y-81711601D01*
X107371601Y-81845805D01*
X107266157Y-82003612D01*
X107193527Y-82178957D01*
X107156500Y-82365104D01*
X105677503Y-82365104D01*
X105642630Y-82189788D01*
X105562462Y-81996244D01*
X105446075Y-81822058D01*
X105297942Y-81673925D01*
X105123756Y-81557538D01*
X104930212Y-81477370D01*
X104724746Y-81436500D01*
X104515254Y-81436500D01*
X104309788Y-81477370D01*
X104116244Y-81557538D01*
X103942058Y-81673925D01*
X103793925Y-81822058D01*
X103677538Y-81996244D01*
X103597370Y-82189788D01*
X103556500Y-82395254D01*
X102083500Y-82395254D01*
X102083500Y-82365104D01*
X102046473Y-82178957D01*
X101973843Y-82003612D01*
X101868399Y-81845805D01*
X101734195Y-81711601D01*
X101576388Y-81606157D01*
X101401043Y-81533527D01*
X101214896Y-81496500D01*
X101025104Y-81496500D01*
X100838957Y-81533527D01*
X100663612Y-81606157D01*
X100505805Y-81711601D01*
X100371601Y-81845805D01*
X100266157Y-82003612D01*
X100193527Y-82178957D01*
X100156500Y-82365104D01*
X87557503Y-82365104D01*
X87522630Y-82189788D01*
X87442462Y-81996244D01*
X87326075Y-81822058D01*
X87177942Y-81673925D01*
X87003756Y-81557538D01*
X86810212Y-81477370D01*
X86604746Y-81436500D01*
X86395254Y-81436500D01*
X86189788Y-81477370D01*
X85996244Y-81557538D01*
X85822058Y-81673925D01*
X85673925Y-81822058D01*
X85557538Y-81996244D01*
X85477370Y-82189788D01*
X85436500Y-82395254D01*
X70390500Y-82395254D01*
X70390500Y-80390000D01*
X88935226Y-80390000D01*
X88935226Y-81990000D01*
X88940314Y-82041655D01*
X88955381Y-82091325D01*
X88979848Y-82137101D01*
X89012777Y-82177223D01*
X89052899Y-82210152D01*
X89098675Y-82234619D01*
X89148345Y-82249686D01*
X89200000Y-82254774D01*
X90800000Y-82254774D01*
X90851655Y-82249686D01*
X90901325Y-82234619D01*
X90947101Y-82210152D01*
X90987223Y-82177223D01*
X91020152Y-82137101D01*
X91044619Y-82091325D01*
X91059686Y-82041655D01*
X91064774Y-81990000D01*
X91064774Y-81085254D01*
X96556500Y-81085254D01*
X96556500Y-81294746D01*
X96597370Y-81500212D01*
X96677538Y-81693756D01*
X96793925Y-81867942D01*
X96942058Y-82016075D01*
X97116244Y-82132462D01*
X97309788Y-82212630D01*
X97515254Y-82253500D01*
X97724746Y-82253500D01*
X97930212Y-82212630D01*
X98123756Y-82132462D01*
X98297942Y-82016075D01*
X98446075Y-81867942D01*
X98562462Y-81693756D01*
X98642630Y-81500212D01*
X98683500Y-81294746D01*
X98683500Y-81085254D01*
X98642630Y-80879788D01*
X98588871Y-80750000D01*
X123684983Y-80750000D01*
X123686500Y-81981125D01*
X123764875Y-82059500D01*
X125309500Y-82059500D01*
X125309500Y-80514875D01*
X125690500Y-80514875D01*
X125690500Y-82059500D01*
X127235125Y-82059500D01*
X127313500Y-81981125D01*
X127315017Y-80750000D01*
X127308964Y-80688543D01*
X127291038Y-80629448D01*
X127261927Y-80574986D01*
X127222751Y-80527249D01*
X127175014Y-80488073D01*
X127120552Y-80458962D01*
X127061457Y-80441036D01*
X127000000Y-80434983D01*
X125768875Y-80436500D01*
X125690500Y-80514875D01*
X125309500Y-80514875D01*
X125231125Y-80436500D01*
X124000000Y-80434983D01*
X123938543Y-80441036D01*
X123879448Y-80458962D01*
X123824986Y-80488073D01*
X123777249Y-80527249D01*
X123738073Y-80574986D01*
X123708962Y-80629448D01*
X123691036Y-80688543D01*
X123684983Y-80750000D01*
X98588871Y-80750000D01*
X98562462Y-80686244D01*
X98446075Y-80512058D01*
X98297942Y-80363925D01*
X98123756Y-80247538D01*
X97930212Y-80167370D01*
X97724746Y-80126500D01*
X97515254Y-80126500D01*
X97309788Y-80167370D01*
X97116244Y-80247538D01*
X96942058Y-80363925D01*
X96793925Y-80512058D01*
X96677538Y-80686244D01*
X96597370Y-80879788D01*
X96556500Y-81085254D01*
X91064774Y-81085254D01*
X91064774Y-80390000D01*
X91059686Y-80338345D01*
X91044619Y-80288675D01*
X91020152Y-80242899D01*
X90987223Y-80202777D01*
X90947101Y-80169848D01*
X90901325Y-80145381D01*
X90851655Y-80130314D01*
X90800000Y-80125226D01*
X89200000Y-80125226D01*
X89148345Y-80130314D01*
X89098675Y-80145381D01*
X89052899Y-80169848D01*
X89012777Y-80202777D01*
X88979848Y-80242899D01*
X88955381Y-80288675D01*
X88940314Y-80338345D01*
X88935226Y-80390000D01*
X70390500Y-80390000D01*
X70390500Y-78252544D01*
X90647259Y-78252544D01*
X90734348Y-78400350D01*
X90921058Y-78495354D01*
X91122716Y-78552107D01*
X91331570Y-78568428D01*
X91539595Y-78543691D01*
X91738797Y-78478845D01*
X91885652Y-78400350D01*
X91972741Y-78252544D01*
X91310000Y-77589803D01*
X90647259Y-78252544D01*
X70390500Y-78252544D01*
X70390500Y-76019095D01*
X70411334Y-75806612D01*
X71536500Y-75806612D01*
X71536500Y-76193388D01*
X71611956Y-76572732D01*
X71759968Y-76930066D01*
X71974850Y-77251659D01*
X72248341Y-77525150D01*
X72569934Y-77740032D01*
X72927268Y-77888044D01*
X73306612Y-77963500D01*
X73693388Y-77963500D01*
X74072732Y-77888044D01*
X74430066Y-77740032D01*
X74751659Y-77525150D01*
X74755239Y-77521570D01*
X90241572Y-77521570D01*
X90266309Y-77729595D01*
X90331155Y-77928797D01*
X90409650Y-78075652D01*
X90557456Y-78162741D01*
X91220197Y-77500000D01*
X91399803Y-77500000D01*
X92062544Y-78162741D01*
X92210350Y-78075652D01*
X92305354Y-77888942D01*
X92362107Y-77687284D01*
X92378428Y-77478430D01*
X92368538Y-77395254D01*
X95246500Y-77395254D01*
X95246500Y-77604746D01*
X95287370Y-77810212D01*
X95367538Y-78003756D01*
X95483925Y-78177942D01*
X95632058Y-78326075D01*
X95806244Y-78442462D01*
X95999788Y-78522630D01*
X96205254Y-78563500D01*
X96414746Y-78563500D01*
X96620212Y-78522630D01*
X96813756Y-78442462D01*
X96987942Y-78326075D01*
X97136075Y-78177942D01*
X97252462Y-78003756D01*
X97332630Y-77810212D01*
X97373500Y-77604746D01*
X97373500Y-77395254D01*
X97332630Y-77189788D01*
X97252462Y-76996244D01*
X97136075Y-76822058D01*
X96987942Y-76673925D01*
X96813756Y-76557538D01*
X96620212Y-76477370D01*
X96414746Y-76436500D01*
X96205254Y-76436500D01*
X95999788Y-76477370D01*
X95806244Y-76557538D01*
X95632058Y-76673925D01*
X95483925Y-76822058D01*
X95367538Y-76996244D01*
X95287370Y-77189788D01*
X95246500Y-77395254D01*
X92368538Y-77395254D01*
X92353691Y-77270405D01*
X92288845Y-77071203D01*
X92210350Y-76924348D01*
X92062544Y-76837259D01*
X91399803Y-77500000D01*
X91220197Y-77500000D01*
X90557456Y-76837259D01*
X90409650Y-76924348D01*
X90314646Y-77111058D01*
X90257893Y-77312716D01*
X90241572Y-77521570D01*
X74755239Y-77521570D01*
X75025150Y-77251659D01*
X75240032Y-76930066D01*
X75315671Y-76747456D01*
X90647259Y-76747456D01*
X91310000Y-77410197D01*
X91972741Y-76747456D01*
X91885652Y-76599650D01*
X91698942Y-76504646D01*
X91497284Y-76447893D01*
X91288430Y-76431572D01*
X91080405Y-76456309D01*
X90881203Y-76521155D01*
X90734348Y-76599650D01*
X90647259Y-76747456D01*
X75315671Y-76747456D01*
X75388044Y-76572732D01*
X75463500Y-76193388D01*
X75463500Y-75806612D01*
X124536500Y-75806612D01*
X124536500Y-76193388D01*
X124611956Y-76572732D01*
X124759968Y-76930066D01*
X124974850Y-77251659D01*
X125248341Y-77525150D01*
X125569934Y-77740032D01*
X125927268Y-77888044D01*
X126306612Y-77963500D01*
X126693388Y-77963500D01*
X127072732Y-77888044D01*
X127430066Y-77740032D01*
X127751659Y-77525150D01*
X128025150Y-77251659D01*
X128240032Y-76930066D01*
X128388044Y-76572732D01*
X128463500Y-76193388D01*
X128463500Y-75806612D01*
X128388044Y-75427268D01*
X128240032Y-75069934D01*
X128025150Y-74748341D01*
X127751659Y-74474850D01*
X127430066Y-74259968D01*
X127072732Y-74111956D01*
X126693388Y-74036500D01*
X126306612Y-74036500D01*
X125927268Y-74111956D01*
X125569934Y-74259968D01*
X125248341Y-74474850D01*
X124974850Y-74748341D01*
X124759968Y-75069934D01*
X124611956Y-75427268D01*
X124536500Y-75806612D01*
X75463500Y-75806612D01*
X75388044Y-75427268D01*
X75240032Y-75069934D01*
X75025150Y-74748341D01*
X74751659Y-74474850D01*
X74430066Y-74259968D01*
X74072732Y-74111956D01*
X73693388Y-74036500D01*
X73306612Y-74036500D01*
X72927268Y-74111956D01*
X72569934Y-74259968D01*
X72248341Y-74474850D01*
X71974850Y-74748341D01*
X71759968Y-75069934D01*
X71611956Y-75427268D01*
X71536500Y-75806612D01*
X70411334Y-75806612D01*
X70451557Y-75396393D01*
X70626855Y-74815777D01*
X70911592Y-74280264D01*
X71294919Y-73810258D01*
X71762235Y-73423661D01*
X72295749Y-73135192D01*
X72875121Y-72955846D01*
X73496708Y-72890514D01*
X73500783Y-72890500D01*
X126480905Y-72890500D01*
X127103607Y-72951557D01*
G04 #@! TA.AperFunction,Conductor*
D31*
G36*
X127103607Y-72951557D02*
G01*
X127684223Y-73126855D01*
X128219736Y-73411592D01*
X128689742Y-73794919D01*
X129076339Y-74262235D01*
X129364808Y-74795749D01*
X129544154Y-75375121D01*
X129609486Y-75996708D01*
X129609500Y-76000783D01*
X129609501Y-123980894D01*
X129548443Y-124603607D01*
X129373145Y-125184225D01*
X129088408Y-125719736D01*
X128705083Y-126189739D01*
X128237765Y-126576339D01*
X127704253Y-126864808D01*
X127124878Y-127044154D01*
X126503292Y-127109486D01*
X126499217Y-127109500D01*
X73519095Y-127109500D01*
X72896393Y-127048443D01*
X72315775Y-126873145D01*
X71780264Y-126588408D01*
X71310261Y-126205083D01*
X70923661Y-125737765D01*
X70635192Y-125204253D01*
X70455846Y-124624878D01*
X70390514Y-124003292D01*
X70390500Y-123999217D01*
X70390500Y-123806612D01*
X71536500Y-123806612D01*
X71536500Y-124193388D01*
X71611956Y-124572732D01*
X71759968Y-124930066D01*
X71974850Y-125251659D01*
X72248341Y-125525150D01*
X72569934Y-125740032D01*
X72927268Y-125888044D01*
X73306612Y-125963500D01*
X73693388Y-125963500D01*
X74072732Y-125888044D01*
X74430066Y-125740032D01*
X74751659Y-125525150D01*
X75025150Y-125251659D01*
X75240032Y-124930066D01*
X75388044Y-124572732D01*
X75463500Y-124193388D01*
X75463500Y-123806612D01*
X75388044Y-123427268D01*
X75240032Y-123069934D01*
X75025150Y-122748341D01*
X74751659Y-122474850D01*
X74430066Y-122259968D01*
X74164579Y-122150000D01*
X90155226Y-122150000D01*
X90155226Y-123850000D01*
X90160314Y-123901655D01*
X90175381Y-123951325D01*
X90199848Y-123997101D01*
X90232777Y-124037223D01*
X90272899Y-124070152D01*
X90318675Y-124094619D01*
X90368345Y-124109686D01*
X90420000Y-124114774D01*
X92120000Y-124114774D01*
X92171655Y-124109686D01*
X92221325Y-124094619D01*
X92267101Y-124070152D01*
X92307223Y-124037223D01*
X92340152Y-123997101D01*
X92364619Y-123951325D01*
X92379686Y-123901655D01*
X92384774Y-123850000D01*
X92384774Y-122890330D01*
X92696500Y-122890330D01*
X92696500Y-123109670D01*
X92739291Y-123324796D01*
X92823229Y-123527440D01*
X92945088Y-123709815D01*
X93100185Y-123864912D01*
X93282560Y-123986771D01*
X93485204Y-124070709D01*
X93700330Y-124113500D01*
X93919670Y-124113500D01*
X94134796Y-124070709D01*
X94337440Y-123986771D01*
X94519815Y-123864912D01*
X94674912Y-123709815D01*
X94796771Y-123527440D01*
X94880709Y-123324796D01*
X94923500Y-123109670D01*
X94923500Y-122890330D01*
X95236500Y-122890330D01*
X95236500Y-123109670D01*
X95279291Y-123324796D01*
X95363229Y-123527440D01*
X95485088Y-123709815D01*
X95640185Y-123864912D01*
X95822560Y-123986771D01*
X96025204Y-124070709D01*
X96240330Y-124113500D01*
X96459670Y-124113500D01*
X96674796Y-124070709D01*
X96877440Y-123986771D01*
X97059815Y-123864912D01*
X97118115Y-123806612D01*
X124536500Y-123806612D01*
X124536500Y-124193388D01*
X124611956Y-124572732D01*
X124759968Y-124930066D01*
X124974850Y-125251659D01*
X125248341Y-125525150D01*
X125569934Y-125740032D01*
X125927268Y-125888044D01*
X126306612Y-125963500D01*
X126693388Y-125963500D01*
X127072732Y-125888044D01*
X127430066Y-125740032D01*
X127751659Y-125525150D01*
X128025150Y-125251659D01*
X128240032Y-124930066D01*
X128388044Y-124572732D01*
X128463500Y-124193388D01*
X128463500Y-123806612D01*
X128388044Y-123427268D01*
X128240032Y-123069934D01*
X128025150Y-122748341D01*
X127751659Y-122474850D01*
X127430066Y-122259968D01*
X127072732Y-122111956D01*
X126693388Y-122036500D01*
X126306612Y-122036500D01*
X125927268Y-122111956D01*
X125569934Y-122259968D01*
X125248341Y-122474850D01*
X124974850Y-122748341D01*
X124759968Y-123069934D01*
X124611956Y-123427268D01*
X124536500Y-123806612D01*
X97118115Y-123806612D01*
X97214912Y-123709815D01*
X97336771Y-123527440D01*
X97420709Y-123324796D01*
X97463500Y-123109670D01*
X97463500Y-122890330D01*
X97420709Y-122675204D01*
X97336771Y-122472560D01*
X97214912Y-122290185D01*
X97059815Y-122135088D01*
X96877440Y-122013229D01*
X96674796Y-121929291D01*
X96459670Y-121886500D01*
X96240330Y-121886500D01*
X96025204Y-121929291D01*
X95822560Y-122013229D01*
X95640185Y-122135088D01*
X95485088Y-122290185D01*
X95363229Y-122472560D01*
X95279291Y-122675204D01*
X95236500Y-122890330D01*
X94923500Y-122890330D01*
X94880709Y-122675204D01*
X94796771Y-122472560D01*
X94674912Y-122290185D01*
X94519815Y-122135088D01*
X94337440Y-122013229D01*
X94134796Y-121929291D01*
X93919670Y-121886500D01*
X93700330Y-121886500D01*
X93485204Y-121929291D01*
X93282560Y-122013229D01*
X93100185Y-122135088D01*
X92945088Y-122290185D01*
X92823229Y-122472560D01*
X92739291Y-122675204D01*
X92696500Y-122890330D01*
X92384774Y-122890330D01*
X92384774Y-122150000D01*
X92379686Y-122098345D01*
X92364619Y-122048675D01*
X92340152Y-122002899D01*
X92307223Y-121962777D01*
X92267101Y-121929848D01*
X92221325Y-121905381D01*
X92171655Y-121890314D01*
X92120000Y-121885226D01*
X90420000Y-121885226D01*
X90368345Y-121890314D01*
X90318675Y-121905381D01*
X90272899Y-121929848D01*
X90232777Y-121962777D01*
X90199848Y-122002899D01*
X90175381Y-122048675D01*
X90160314Y-122098345D01*
X90155226Y-122150000D01*
X74164579Y-122150000D01*
X74072732Y-122111956D01*
X73693388Y-122036500D01*
X73306612Y-122036500D01*
X72927268Y-122111956D01*
X72569934Y-122259968D01*
X72248341Y-122474850D01*
X71974850Y-122748341D01*
X71759968Y-123069934D01*
X71611956Y-123427268D01*
X71536500Y-123806612D01*
X70390500Y-123806612D01*
X70390500Y-119038790D01*
X88961401Y-119038790D01*
X89009325Y-119196785D01*
X89103819Y-119382624D01*
X89232752Y-119546457D01*
X89391170Y-119681989D01*
X89572985Y-119784011D01*
X89771210Y-119848602D01*
X89936500Y-119805731D01*
X89936500Y-118873500D01*
X90063500Y-118873500D01*
X90063500Y-119805731D01*
X90228790Y-119848602D01*
X90427015Y-119784011D01*
X90608830Y-119681989D01*
X90767248Y-119546457D01*
X90896181Y-119382624D01*
X90990675Y-119196785D01*
X91038599Y-119038790D01*
X90995602Y-118873500D01*
X90063500Y-118873500D01*
X89936500Y-118873500D01*
X89004398Y-118873500D01*
X88961401Y-119038790D01*
X70390500Y-119038790D01*
X70390500Y-118581210D01*
X88961401Y-118581210D01*
X89004398Y-118746500D01*
X89936500Y-118746500D01*
X89936500Y-117814269D01*
X90063500Y-117814269D01*
X90063500Y-118746500D01*
X90995602Y-118746500D01*
X91006331Y-118705254D01*
X96556500Y-118705254D01*
X96556500Y-118914746D01*
X96597370Y-119120212D01*
X96677538Y-119313756D01*
X96793925Y-119487942D01*
X96942058Y-119636075D01*
X97116244Y-119752462D01*
X97309788Y-119832630D01*
X97515254Y-119873500D01*
X97724746Y-119873500D01*
X97930212Y-119832630D01*
X98123756Y-119752462D01*
X98297942Y-119636075D01*
X98446075Y-119487942D01*
X98562462Y-119313756D01*
X98594790Y-119235707D01*
X117386500Y-119235707D01*
X117386500Y-119504293D01*
X117438899Y-119767718D01*
X117541682Y-120015859D01*
X117690901Y-120239180D01*
X117880820Y-120429099D01*
X118104141Y-120578318D01*
X118352282Y-120681101D01*
X118615707Y-120733500D01*
X118884293Y-120733500D01*
X119147718Y-120681101D01*
X119395859Y-120578318D01*
X119619180Y-120429099D01*
X119809099Y-120239180D01*
X119958318Y-120015859D01*
X120061101Y-119767718D01*
X120113500Y-119504293D01*
X120113500Y-119235707D01*
X120061101Y-118972282D01*
X119958318Y-118724141D01*
X119809099Y-118500820D01*
X119619180Y-118310901D01*
X119395859Y-118161682D01*
X119147718Y-118058899D01*
X118884293Y-118006500D01*
X118615707Y-118006500D01*
X118352282Y-118058899D01*
X118104141Y-118161682D01*
X117880820Y-118310901D01*
X117690901Y-118500820D01*
X117541682Y-118724141D01*
X117438899Y-118972282D01*
X117386500Y-119235707D01*
X98594790Y-119235707D01*
X98642630Y-119120212D01*
X98683500Y-118914746D01*
X98683500Y-118705254D01*
X98642630Y-118499788D01*
X98562462Y-118306244D01*
X98446075Y-118132058D01*
X98297942Y-117983925D01*
X98123756Y-117867538D01*
X97930212Y-117787370D01*
X97724746Y-117746500D01*
X97515254Y-117746500D01*
X97309788Y-117787370D01*
X97116244Y-117867538D01*
X96942058Y-117983925D01*
X96793925Y-118132058D01*
X96677538Y-118306244D01*
X96597370Y-118499788D01*
X96556500Y-118705254D01*
X91006331Y-118705254D01*
X91038599Y-118581210D01*
X90990675Y-118423215D01*
X90896181Y-118237376D01*
X90767248Y-118073543D01*
X90608830Y-117938011D01*
X90427015Y-117835989D01*
X90228790Y-117771398D01*
X90063500Y-117814269D01*
X89936500Y-117814269D01*
X89771210Y-117771398D01*
X89572985Y-117835989D01*
X89391170Y-117938011D01*
X89232752Y-118073543D01*
X89103819Y-118237376D01*
X89009325Y-118423215D01*
X88961401Y-118581210D01*
X70390500Y-118581210D01*
X70390500Y-117445104D01*
X85536500Y-117445104D01*
X85536500Y-117634896D01*
X85573527Y-117821043D01*
X85646157Y-117996388D01*
X85751601Y-118154195D01*
X85885805Y-118288399D01*
X86043612Y-118393843D01*
X86218957Y-118466473D01*
X86405104Y-118503500D01*
X86594896Y-118503500D01*
X86781043Y-118466473D01*
X86956388Y-118393843D01*
X87114195Y-118288399D01*
X87248399Y-118154195D01*
X87353843Y-117996388D01*
X87426473Y-117821043D01*
X87463500Y-117634896D01*
X87463500Y-117445104D01*
X100156500Y-117445104D01*
X100156500Y-117634896D01*
X100193527Y-117821043D01*
X100266157Y-117996388D01*
X100371601Y-118154195D01*
X100505805Y-118288399D01*
X100663612Y-118393843D01*
X100838957Y-118466473D01*
X101025104Y-118503500D01*
X101214896Y-118503500D01*
X101401043Y-118466473D01*
X101576388Y-118393843D01*
X101734195Y-118288399D01*
X101868399Y-118154195D01*
X101973843Y-117996388D01*
X102046473Y-117821043D01*
X102083500Y-117634896D01*
X102083500Y-117445104D01*
X102046473Y-117258957D01*
X101973843Y-117083612D01*
X101892376Y-116961688D01*
X106446500Y-116961688D01*
X106446500Y-117358312D01*
X106523878Y-117747316D01*
X106675660Y-118113750D01*
X106896013Y-118443531D01*
X107176469Y-118723987D01*
X107506250Y-118944340D01*
X107872684Y-119096122D01*
X108261688Y-119173500D01*
X108658312Y-119173500D01*
X109047316Y-119096122D01*
X109413750Y-118944340D01*
X109743531Y-118723987D01*
X110023987Y-118443531D01*
X110244340Y-118113750D01*
X110396122Y-117747316D01*
X110430137Y-117576310D01*
X123736500Y-117576310D01*
X123736500Y-117923690D01*
X123804270Y-118264394D01*
X123937206Y-118585331D01*
X124130200Y-118874166D01*
X124375834Y-119119800D01*
X124664669Y-119312794D01*
X124985606Y-119445730D01*
X125326310Y-119513500D01*
X125673690Y-119513500D01*
X126014394Y-119445730D01*
X126335331Y-119312794D01*
X126624166Y-119119800D01*
X126869800Y-118874166D01*
X127062794Y-118585331D01*
X127195730Y-118264394D01*
X127263500Y-117923690D01*
X127263500Y-117576310D01*
X127195730Y-117235606D01*
X127062794Y-116914669D01*
X126869800Y-116625834D01*
X126624166Y-116380200D01*
X126335331Y-116187206D01*
X126014394Y-116054270D01*
X125673690Y-115986500D01*
X125326310Y-115986500D01*
X124985606Y-116054270D01*
X124664669Y-116187206D01*
X124375834Y-116380200D01*
X124130200Y-116625834D01*
X123937206Y-116914669D01*
X123804270Y-117235606D01*
X123736500Y-117576310D01*
X110430137Y-117576310D01*
X110473500Y-117358312D01*
X110473500Y-116961688D01*
X110396122Y-116572684D01*
X110244340Y-116206250D01*
X110023987Y-115876469D01*
X109743531Y-115596013D01*
X109413750Y-115375660D01*
X109047316Y-115223878D01*
X108658312Y-115146500D01*
X108261688Y-115146500D01*
X107872684Y-115223878D01*
X107506250Y-115375660D01*
X107176469Y-115596013D01*
X106896013Y-115876469D01*
X106675660Y-116206250D01*
X106523878Y-116572684D01*
X106446500Y-116961688D01*
X101892376Y-116961688D01*
X101868399Y-116925805D01*
X101734195Y-116791601D01*
X101576388Y-116686157D01*
X101401043Y-116613527D01*
X101214896Y-116576500D01*
X101025104Y-116576500D01*
X100838957Y-116613527D01*
X100663612Y-116686157D01*
X100505805Y-116791601D01*
X100371601Y-116925805D01*
X100266157Y-117083612D01*
X100193527Y-117258957D01*
X100156500Y-117445104D01*
X87463500Y-117445104D01*
X87426473Y-117258957D01*
X87353843Y-117083612D01*
X87248399Y-116925805D01*
X87114195Y-116791601D01*
X86956388Y-116686157D01*
X86781043Y-116613527D01*
X86594896Y-116576500D01*
X86405104Y-116576500D01*
X86218957Y-116613527D01*
X86043612Y-116686157D01*
X85885805Y-116791601D01*
X85751601Y-116925805D01*
X85646157Y-117083612D01*
X85573527Y-117258957D01*
X85536500Y-117445104D01*
X70390500Y-117445104D01*
X70390500Y-116165254D01*
X88936500Y-116165254D01*
X88936500Y-116374746D01*
X88977370Y-116580212D01*
X89057538Y-116773756D01*
X89173925Y-116947942D01*
X89322058Y-117096075D01*
X89496244Y-117212462D01*
X89689788Y-117292630D01*
X89895254Y-117333500D01*
X90104746Y-117333500D01*
X90310212Y-117292630D01*
X90503756Y-117212462D01*
X90677942Y-117096075D01*
X90826075Y-116947942D01*
X90942462Y-116773756D01*
X91022630Y-116580212D01*
X91063500Y-116374746D01*
X91063500Y-116165254D01*
X96556500Y-116165254D01*
X96556500Y-116374746D01*
X96597370Y-116580212D01*
X96677538Y-116773756D01*
X96793925Y-116947942D01*
X96942058Y-117096075D01*
X97116244Y-117212462D01*
X97309788Y-117292630D01*
X97515254Y-117333500D01*
X97724746Y-117333500D01*
X97930212Y-117292630D01*
X98123756Y-117212462D01*
X98297942Y-117096075D01*
X98446075Y-116947942D01*
X98562462Y-116773756D01*
X98642630Y-116580212D01*
X98683500Y-116374746D01*
X98683500Y-116165254D01*
X98642630Y-115959788D01*
X98562462Y-115766244D01*
X98446075Y-115592058D01*
X98297942Y-115443925D01*
X98123756Y-115327538D01*
X97930212Y-115247370D01*
X97724746Y-115206500D01*
X97515254Y-115206500D01*
X97309788Y-115247370D01*
X97116244Y-115327538D01*
X96942058Y-115443925D01*
X96793925Y-115592058D01*
X96677538Y-115766244D01*
X96597370Y-115959788D01*
X96556500Y-116165254D01*
X91063500Y-116165254D01*
X91022630Y-115959788D01*
X90942462Y-115766244D01*
X90826075Y-115592058D01*
X90677942Y-115443925D01*
X90503756Y-115327538D01*
X90310212Y-115247370D01*
X90104746Y-115206500D01*
X89895254Y-115206500D01*
X89689788Y-115247370D01*
X89496244Y-115327538D01*
X89322058Y-115443925D01*
X89173925Y-115592058D01*
X89057538Y-115766244D01*
X88977370Y-115959788D01*
X88936500Y-116165254D01*
X70390500Y-116165254D01*
X70390500Y-113625254D01*
X88936500Y-113625254D01*
X88936500Y-113834746D01*
X88977370Y-114040212D01*
X89057538Y-114233756D01*
X89173925Y-114407942D01*
X89322058Y-114556075D01*
X89496244Y-114672462D01*
X89689788Y-114752630D01*
X89895254Y-114793500D01*
X90104746Y-114793500D01*
X90310212Y-114752630D01*
X90503756Y-114672462D01*
X90677942Y-114556075D01*
X90826075Y-114407942D01*
X90942462Y-114233756D01*
X91022630Y-114040212D01*
X91063500Y-113834746D01*
X91063500Y-113625254D01*
X96556500Y-113625254D01*
X96556500Y-113834746D01*
X96597370Y-114040212D01*
X96677538Y-114233756D01*
X96793925Y-114407942D01*
X96942058Y-114556075D01*
X97116244Y-114672462D01*
X97309788Y-114752630D01*
X97515254Y-114793500D01*
X97724746Y-114793500D01*
X97930212Y-114752630D01*
X98123756Y-114672462D01*
X98297942Y-114556075D01*
X98446075Y-114407942D01*
X98562462Y-114233756D01*
X98642630Y-114040212D01*
X98683500Y-113834746D01*
X98683500Y-113625254D01*
X98642630Y-113419788D01*
X98562462Y-113226244D01*
X98446075Y-113052058D01*
X98297942Y-112903925D01*
X98123756Y-112787538D01*
X97930212Y-112707370D01*
X97724746Y-112666500D01*
X97515254Y-112666500D01*
X97309788Y-112707370D01*
X97116244Y-112787538D01*
X96942058Y-112903925D01*
X96793925Y-113052058D01*
X96677538Y-113226244D01*
X96597370Y-113419788D01*
X96556500Y-113625254D01*
X91063500Y-113625254D01*
X91022630Y-113419788D01*
X90942462Y-113226244D01*
X90826075Y-113052058D01*
X90677942Y-112903925D01*
X90503756Y-112787538D01*
X90310212Y-112707370D01*
X90104746Y-112666500D01*
X89895254Y-112666500D01*
X89689788Y-112707370D01*
X89496244Y-112787538D01*
X89322058Y-112903925D01*
X89173925Y-113052058D01*
X89057538Y-113226244D01*
X88977370Y-113419788D01*
X88936500Y-113625254D01*
X70390500Y-113625254D01*
X70390500Y-112365104D01*
X85536500Y-112365104D01*
X85536500Y-112554896D01*
X85573527Y-112741043D01*
X85646157Y-112916388D01*
X85751601Y-113074195D01*
X85885805Y-113208399D01*
X86043612Y-113313843D01*
X86218957Y-113386473D01*
X86405104Y-113423500D01*
X86594896Y-113423500D01*
X86781043Y-113386473D01*
X86956388Y-113313843D01*
X87114195Y-113208399D01*
X87248399Y-113074195D01*
X87353843Y-112916388D01*
X87426473Y-112741043D01*
X87463500Y-112554896D01*
X87463500Y-112365104D01*
X100156500Y-112365104D01*
X100156500Y-112554896D01*
X100193527Y-112741043D01*
X100266157Y-112916388D01*
X100371601Y-113074195D01*
X100505805Y-113208399D01*
X100663612Y-113313843D01*
X100838957Y-113386473D01*
X101025104Y-113423500D01*
X101214896Y-113423500D01*
X101401043Y-113386473D01*
X101576388Y-113313843D01*
X101734195Y-113208399D01*
X101868399Y-113074195D01*
X101973843Y-112916388D01*
X102046473Y-112741043D01*
X102083500Y-112554896D01*
X102083500Y-112365104D01*
X102046473Y-112178957D01*
X101973843Y-112003612D01*
X101868399Y-111845805D01*
X101734195Y-111711601D01*
X101576388Y-111606157D01*
X101401043Y-111533527D01*
X101214896Y-111496500D01*
X101025104Y-111496500D01*
X100838957Y-111533527D01*
X100663612Y-111606157D01*
X100505805Y-111711601D01*
X100371601Y-111845805D01*
X100266157Y-112003612D01*
X100193527Y-112178957D01*
X100156500Y-112365104D01*
X87463500Y-112365104D01*
X87426473Y-112178957D01*
X87353843Y-112003612D01*
X87248399Y-111845805D01*
X87114195Y-111711601D01*
X86956388Y-111606157D01*
X86781043Y-111533527D01*
X86594896Y-111496500D01*
X86405104Y-111496500D01*
X86218957Y-111533527D01*
X86043612Y-111606157D01*
X85885805Y-111711601D01*
X85751601Y-111845805D01*
X85646157Y-112003612D01*
X85573527Y-112178957D01*
X85536500Y-112365104D01*
X70390500Y-112365104D01*
X70390500Y-110390000D01*
X88935226Y-110390000D01*
X88935226Y-111990000D01*
X88940314Y-112041655D01*
X88955381Y-112091325D01*
X88979848Y-112137101D01*
X89012777Y-112177223D01*
X89052899Y-112210152D01*
X89098675Y-112234619D01*
X89148345Y-112249686D01*
X89200000Y-112254774D01*
X90800000Y-112254774D01*
X90851655Y-112249686D01*
X90901325Y-112234619D01*
X90947101Y-112210152D01*
X90987223Y-112177223D01*
X91020152Y-112137101D01*
X91044619Y-112091325D01*
X91059686Y-112041655D01*
X91064774Y-111990000D01*
X91064774Y-111085254D01*
X96556500Y-111085254D01*
X96556500Y-111294746D01*
X96597370Y-111500212D01*
X96677538Y-111693756D01*
X96793925Y-111867942D01*
X96942058Y-112016075D01*
X97116244Y-112132462D01*
X97309788Y-112212630D01*
X97515254Y-112253500D01*
X97724746Y-112253500D01*
X97930212Y-112212630D01*
X98123756Y-112132462D01*
X98297942Y-112016075D01*
X98446075Y-111867942D01*
X98562462Y-111693756D01*
X98642630Y-111500212D01*
X98683500Y-111294746D01*
X98683500Y-111085254D01*
X98642630Y-110879788D01*
X98562462Y-110686244D01*
X98538245Y-110650000D01*
X117385226Y-110650000D01*
X117385226Y-112850000D01*
X117390314Y-112901655D01*
X117405381Y-112951325D01*
X117429848Y-112997101D01*
X117462777Y-113037223D01*
X117502899Y-113070152D01*
X117548675Y-113094619D01*
X117598345Y-113109686D01*
X117650000Y-113114774D01*
X119850000Y-113114774D01*
X119901655Y-113109686D01*
X119951325Y-113094619D01*
X119997101Y-113070152D01*
X120037223Y-113037223D01*
X120070152Y-112997101D01*
X120094619Y-112951325D01*
X120109686Y-112901655D01*
X120114774Y-112850000D01*
X120114774Y-110650000D01*
X120113580Y-110637868D01*
X124361500Y-110637868D01*
X124361500Y-110862132D01*
X124405252Y-111082088D01*
X124491074Y-111289282D01*
X124615669Y-111475752D01*
X124774248Y-111634331D01*
X124960718Y-111758926D01*
X125167912Y-111844748D01*
X125387868Y-111888500D01*
X125612132Y-111888500D01*
X125832088Y-111844748D01*
X126039282Y-111758926D01*
X126225752Y-111634331D01*
X126384331Y-111475752D01*
X126508926Y-111289282D01*
X126594748Y-111082088D01*
X126638500Y-110862132D01*
X126638500Y-110637868D01*
X126594748Y-110417912D01*
X126508926Y-110210718D01*
X126384331Y-110024248D01*
X126225752Y-109865669D01*
X126039282Y-109741074D01*
X125832088Y-109655252D01*
X125612132Y-109611500D01*
X125387868Y-109611500D01*
X125167912Y-109655252D01*
X124960718Y-109741074D01*
X124774248Y-109865669D01*
X124615669Y-110024248D01*
X124491074Y-110210718D01*
X124405252Y-110417912D01*
X124361500Y-110637868D01*
X120113580Y-110637868D01*
X120109686Y-110598345D01*
X120094619Y-110548675D01*
X120070152Y-110502899D01*
X120037223Y-110462777D01*
X119997101Y-110429848D01*
X119951325Y-110405381D01*
X119901655Y-110390314D01*
X119850000Y-110385226D01*
X117650000Y-110385226D01*
X117598345Y-110390314D01*
X117548675Y-110405381D01*
X117502899Y-110429848D01*
X117462777Y-110462777D01*
X117429848Y-110502899D01*
X117405381Y-110548675D01*
X117390314Y-110598345D01*
X117385226Y-110650000D01*
X98538245Y-110650000D01*
X98446075Y-110512058D01*
X98297942Y-110363925D01*
X98123756Y-110247538D01*
X97930212Y-110167370D01*
X97724746Y-110126500D01*
X97515254Y-110126500D01*
X97309788Y-110167370D01*
X97116244Y-110247538D01*
X96942058Y-110363925D01*
X96793925Y-110512058D01*
X96677538Y-110686244D01*
X96597370Y-110879788D01*
X96556500Y-111085254D01*
X91064774Y-111085254D01*
X91064774Y-110390000D01*
X91059686Y-110338345D01*
X91044619Y-110288675D01*
X91020152Y-110242899D01*
X90987223Y-110202777D01*
X90947101Y-110169848D01*
X90901325Y-110145381D01*
X90851655Y-110130314D01*
X90800000Y-110125226D01*
X89200000Y-110125226D01*
X89148345Y-110130314D01*
X89098675Y-110145381D01*
X89052899Y-110169848D01*
X89012777Y-110202777D01*
X88979848Y-110242899D01*
X88955381Y-110288675D01*
X88940314Y-110338345D01*
X88935226Y-110390000D01*
X70390500Y-110390000D01*
X70390500Y-108252544D01*
X90647259Y-108252544D01*
X90734348Y-108400350D01*
X90921058Y-108495354D01*
X91122716Y-108552107D01*
X91331570Y-108568428D01*
X91539595Y-108543691D01*
X91738797Y-108478845D01*
X91885652Y-108400350D01*
X91972741Y-108252544D01*
X91310000Y-107589803D01*
X90647259Y-108252544D01*
X70390500Y-108252544D01*
X70390500Y-107521570D01*
X90241572Y-107521570D01*
X90266309Y-107729595D01*
X90331155Y-107928797D01*
X90409650Y-108075652D01*
X90557456Y-108162741D01*
X91220197Y-107500000D01*
X91399803Y-107500000D01*
X92062544Y-108162741D01*
X92210350Y-108075652D01*
X92305354Y-107888942D01*
X92362107Y-107687284D01*
X92378428Y-107478430D01*
X92368538Y-107395254D01*
X95246500Y-107395254D01*
X95246500Y-107604746D01*
X95287370Y-107810212D01*
X95367538Y-108003756D01*
X95483925Y-108177942D01*
X95632058Y-108326075D01*
X95806244Y-108442462D01*
X95999788Y-108522630D01*
X96205254Y-108563500D01*
X96414746Y-108563500D01*
X96620212Y-108522630D01*
X96813756Y-108442462D01*
X96987942Y-108326075D01*
X97136075Y-108177942D01*
X97252462Y-108003756D01*
X97269242Y-107963245D01*
X117361500Y-107963245D01*
X117361500Y-108236755D01*
X117414860Y-108505010D01*
X117519528Y-108757701D01*
X117671482Y-108985117D01*
X117864883Y-109178518D01*
X118092299Y-109330472D01*
X118344990Y-109435140D01*
X118613245Y-109488500D01*
X118886755Y-109488500D01*
X119155010Y-109435140D01*
X119407701Y-109330472D01*
X119635117Y-109178518D01*
X119828518Y-108985117D01*
X119980472Y-108757701D01*
X120085140Y-108505010D01*
X120138500Y-108236755D01*
X120138500Y-107963245D01*
X120085140Y-107694990D01*
X119980472Y-107442299D01*
X119828518Y-107214883D01*
X119635117Y-107021482D01*
X119407701Y-106869528D01*
X119213379Y-106789037D01*
X119332322Y-106709562D01*
X119459562Y-106582322D01*
X119559533Y-106432704D01*
X119628395Y-106266458D01*
X119663500Y-106089972D01*
X119663500Y-105910028D01*
X119628395Y-105733542D01*
X119559533Y-105567296D01*
X119459562Y-105417678D01*
X119332322Y-105290438D01*
X119182704Y-105190467D01*
X119016458Y-105121605D01*
X118839972Y-105086500D01*
X118660028Y-105086500D01*
X118483542Y-105121605D01*
X118317296Y-105190467D01*
X118167678Y-105290438D01*
X118040438Y-105417678D01*
X117940467Y-105567296D01*
X117871605Y-105733542D01*
X117836500Y-105910028D01*
X117836500Y-106089972D01*
X117871605Y-106266458D01*
X117940467Y-106432704D01*
X118040438Y-106582322D01*
X118167678Y-106709562D01*
X118286621Y-106789037D01*
X118092299Y-106869528D01*
X117864883Y-107021482D01*
X117671482Y-107214883D01*
X117519528Y-107442299D01*
X117414860Y-107694990D01*
X117361500Y-107963245D01*
X97269242Y-107963245D01*
X97332630Y-107810212D01*
X97373500Y-107604746D01*
X97373500Y-107395254D01*
X97332630Y-107189788D01*
X97252462Y-106996244D01*
X97136075Y-106822058D01*
X96987942Y-106673925D01*
X96813756Y-106557538D01*
X96620212Y-106477370D01*
X96414746Y-106436500D01*
X96205254Y-106436500D01*
X95999788Y-106477370D01*
X95806244Y-106557538D01*
X95632058Y-106673925D01*
X95483925Y-106822058D01*
X95367538Y-106996244D01*
X95287370Y-107189788D01*
X95246500Y-107395254D01*
X92368538Y-107395254D01*
X92353691Y-107270405D01*
X92288845Y-107071203D01*
X92210350Y-106924348D01*
X92062544Y-106837259D01*
X91399803Y-107500000D01*
X91220197Y-107500000D01*
X90557456Y-106837259D01*
X90409650Y-106924348D01*
X90314646Y-107111058D01*
X90257893Y-107312716D01*
X90241572Y-107521570D01*
X70390500Y-107521570D01*
X70390500Y-106747456D01*
X90647259Y-106747456D01*
X91310000Y-107410197D01*
X91972741Y-106747456D01*
X91885652Y-106599650D01*
X91698942Y-106504646D01*
X91497284Y-106447893D01*
X91288430Y-106431572D01*
X91080405Y-106456309D01*
X90881203Y-106521155D01*
X90734348Y-106599650D01*
X90647259Y-106747456D01*
X70390500Y-106747456D01*
X70390500Y-104970330D01*
X125386500Y-104970330D01*
X125386500Y-105189670D01*
X125429291Y-105404796D01*
X125513229Y-105607440D01*
X125635088Y-105789815D01*
X125790185Y-105944912D01*
X125972560Y-106066771D01*
X126175204Y-106150709D01*
X126390330Y-106193500D01*
X126609670Y-106193500D01*
X126824796Y-106150709D01*
X127027440Y-106066771D01*
X127209815Y-105944912D01*
X127364912Y-105789815D01*
X127486771Y-105607440D01*
X127570709Y-105404796D01*
X127613500Y-105189670D01*
X127613500Y-104970330D01*
X127570709Y-104755204D01*
X127486771Y-104552560D01*
X127364912Y-104370185D01*
X127209815Y-104215088D01*
X127027440Y-104093229D01*
X126824796Y-104009291D01*
X126609670Y-103966500D01*
X126390330Y-103966500D01*
X126175204Y-104009291D01*
X125972560Y-104093229D01*
X125790185Y-104215088D01*
X125635088Y-104370185D01*
X125513229Y-104552560D01*
X125429291Y-104755204D01*
X125386500Y-104970330D01*
X70390500Y-104970330D01*
X70390500Y-101350933D01*
X75086500Y-101350933D01*
X75086500Y-101649067D01*
X75144663Y-101941472D01*
X75258754Y-102216911D01*
X75424388Y-102464800D01*
X75635200Y-102675612D01*
X75883089Y-102841246D01*
X76158528Y-102955337D01*
X76450933Y-103013500D01*
X76749067Y-103013500D01*
X77041472Y-102955337D01*
X77316911Y-102841246D01*
X77564800Y-102675612D01*
X77639479Y-102600933D01*
X80386500Y-102600933D01*
X80386500Y-102899067D01*
X80444663Y-103191472D01*
X80558754Y-103466911D01*
X80724388Y-103714800D01*
X80935200Y-103925612D01*
X81183089Y-104091246D01*
X81458528Y-104205337D01*
X81750933Y-104263500D01*
X82049067Y-104263500D01*
X82341472Y-104205337D01*
X82616911Y-104091246D01*
X82695417Y-104038790D01*
X88961401Y-104038790D01*
X89009325Y-104196785D01*
X89103819Y-104382624D01*
X89232752Y-104546457D01*
X89391170Y-104681989D01*
X89572985Y-104784011D01*
X89771210Y-104848602D01*
X89936500Y-104805731D01*
X89936500Y-103873500D01*
X90063500Y-103873500D01*
X90063500Y-104805731D01*
X90228790Y-104848602D01*
X90427015Y-104784011D01*
X90608830Y-104681989D01*
X90767248Y-104546457D01*
X90896181Y-104382624D01*
X90990675Y-104196785D01*
X91038599Y-104038790D01*
X90995602Y-103873500D01*
X90063500Y-103873500D01*
X89936500Y-103873500D01*
X89004398Y-103873500D01*
X88961401Y-104038790D01*
X82695417Y-104038790D01*
X82864800Y-103925612D01*
X83075612Y-103714800D01*
X83164873Y-103581210D01*
X88961401Y-103581210D01*
X89004398Y-103746500D01*
X89936500Y-103746500D01*
X89936500Y-102814269D01*
X90063500Y-102814269D01*
X90063500Y-103746500D01*
X90995602Y-103746500D01*
X91006331Y-103705254D01*
X96556500Y-103705254D01*
X96556500Y-103914746D01*
X96597370Y-104120212D01*
X96677538Y-104313756D01*
X96793925Y-104487942D01*
X96942058Y-104636075D01*
X97116244Y-104752462D01*
X97309788Y-104832630D01*
X97515254Y-104873500D01*
X97724746Y-104873500D01*
X97930212Y-104832630D01*
X98123756Y-104752462D01*
X98297942Y-104636075D01*
X98446075Y-104487942D01*
X98562462Y-104313756D01*
X98642630Y-104120212D01*
X98683500Y-103914746D01*
X98683500Y-103910028D01*
X117836500Y-103910028D01*
X117836500Y-104089972D01*
X117871605Y-104266458D01*
X117940467Y-104432704D01*
X118040438Y-104582322D01*
X118167678Y-104709562D01*
X118317296Y-104809533D01*
X118483542Y-104878395D01*
X118660028Y-104913500D01*
X118839972Y-104913500D01*
X119016458Y-104878395D01*
X119182704Y-104809533D01*
X119332322Y-104709562D01*
X119459562Y-104582322D01*
X119559533Y-104432704D01*
X119628395Y-104266458D01*
X119663500Y-104089972D01*
X119663500Y-103910028D01*
X119628395Y-103733542D01*
X119559533Y-103567296D01*
X119459562Y-103417678D01*
X119332322Y-103290438D01*
X119182704Y-103190467D01*
X119016458Y-103121605D01*
X118839972Y-103086500D01*
X118660028Y-103086500D01*
X118483542Y-103121605D01*
X118317296Y-103190467D01*
X118167678Y-103290438D01*
X118040438Y-103417678D01*
X117940467Y-103567296D01*
X117871605Y-103733542D01*
X117836500Y-103910028D01*
X98683500Y-103910028D01*
X98683500Y-103705254D01*
X98642630Y-103499788D01*
X98562462Y-103306244D01*
X98446075Y-103132058D01*
X98297942Y-102983925D01*
X98123756Y-102867538D01*
X97930212Y-102787370D01*
X97724746Y-102746500D01*
X97515254Y-102746500D01*
X97309788Y-102787370D01*
X97116244Y-102867538D01*
X96942058Y-102983925D01*
X96793925Y-103132058D01*
X96677538Y-103306244D01*
X96597370Y-103499788D01*
X96556500Y-103705254D01*
X91006331Y-103705254D01*
X91038599Y-103581210D01*
X90990675Y-103423215D01*
X90896181Y-103237376D01*
X90767248Y-103073543D01*
X90608830Y-102938011D01*
X90427015Y-102835989D01*
X90228790Y-102771398D01*
X90063500Y-102814269D01*
X89936500Y-102814269D01*
X89771210Y-102771398D01*
X89572985Y-102835989D01*
X89391170Y-102938011D01*
X89232752Y-103073543D01*
X89103819Y-103237376D01*
X89009325Y-103423215D01*
X88961401Y-103581210D01*
X83164873Y-103581210D01*
X83241246Y-103466911D01*
X83355337Y-103191472D01*
X83413500Y-102899067D01*
X83413500Y-102600933D01*
X83382504Y-102445104D01*
X85536500Y-102445104D01*
X85536500Y-102634896D01*
X85573527Y-102821043D01*
X85646157Y-102996388D01*
X85751601Y-103154195D01*
X85885805Y-103288399D01*
X86043612Y-103393843D01*
X86218957Y-103466473D01*
X86405104Y-103503500D01*
X86594896Y-103503500D01*
X86781043Y-103466473D01*
X86956388Y-103393843D01*
X87114195Y-103288399D01*
X87248399Y-103154195D01*
X87353843Y-102996388D01*
X87426473Y-102821043D01*
X87463500Y-102634896D01*
X87463500Y-102445104D01*
X100156500Y-102445104D01*
X100156500Y-102634896D01*
X100193527Y-102821043D01*
X100266157Y-102996388D01*
X100371601Y-103154195D01*
X100505805Y-103288399D01*
X100663612Y-103393843D01*
X100838957Y-103466473D01*
X101025104Y-103503500D01*
X101214896Y-103503500D01*
X101401043Y-103466473D01*
X101576388Y-103393843D01*
X101734195Y-103288399D01*
X101868399Y-103154195D01*
X101973843Y-102996388D01*
X102046473Y-102821043D01*
X102083500Y-102634896D01*
X102083500Y-102445104D01*
X102046473Y-102258957D01*
X101973843Y-102083612D01*
X101868399Y-101925805D01*
X101734195Y-101791601D01*
X101576388Y-101686157D01*
X101401043Y-101613527D01*
X101214896Y-101576500D01*
X101025104Y-101576500D01*
X100838957Y-101613527D01*
X100663612Y-101686157D01*
X100505805Y-101791601D01*
X100371601Y-101925805D01*
X100266157Y-102083612D01*
X100193527Y-102258957D01*
X100156500Y-102445104D01*
X87463500Y-102445104D01*
X87426473Y-102258957D01*
X87353843Y-102083612D01*
X87248399Y-101925805D01*
X87114195Y-101791601D01*
X86956388Y-101686157D01*
X86781043Y-101613527D01*
X86594896Y-101576500D01*
X86405104Y-101576500D01*
X86218957Y-101613527D01*
X86043612Y-101686157D01*
X85885805Y-101791601D01*
X85751601Y-101925805D01*
X85646157Y-102083612D01*
X85573527Y-102258957D01*
X85536500Y-102445104D01*
X83382504Y-102445104D01*
X83355337Y-102308528D01*
X83241246Y-102033089D01*
X83075612Y-101785200D01*
X82864800Y-101574388D01*
X82616911Y-101408754D01*
X82341472Y-101294663D01*
X82049067Y-101236500D01*
X81750933Y-101236500D01*
X81458528Y-101294663D01*
X81183089Y-101408754D01*
X80935200Y-101574388D01*
X80724388Y-101785200D01*
X80558754Y-102033089D01*
X80444663Y-102308528D01*
X80386500Y-102600933D01*
X77639479Y-102600933D01*
X77775612Y-102464800D01*
X77941246Y-102216911D01*
X78055337Y-101941472D01*
X78113500Y-101649067D01*
X78113500Y-101350933D01*
X78076567Y-101165254D01*
X88936500Y-101165254D01*
X88936500Y-101374746D01*
X88977370Y-101580212D01*
X89057538Y-101773756D01*
X89173925Y-101947942D01*
X89322058Y-102096075D01*
X89496244Y-102212462D01*
X89689788Y-102292630D01*
X89895254Y-102333500D01*
X90104746Y-102333500D01*
X90310212Y-102292630D01*
X90503756Y-102212462D01*
X90677942Y-102096075D01*
X90826075Y-101947942D01*
X90942462Y-101773756D01*
X91022630Y-101580212D01*
X91063500Y-101374746D01*
X91063500Y-101165254D01*
X96556500Y-101165254D01*
X96556500Y-101374746D01*
X96597370Y-101580212D01*
X96677538Y-101773756D01*
X96793925Y-101947942D01*
X96942058Y-102096075D01*
X97116244Y-102212462D01*
X97309788Y-102292630D01*
X97515254Y-102333500D01*
X97724746Y-102333500D01*
X97930212Y-102292630D01*
X98123756Y-102212462D01*
X98297942Y-102096075D01*
X98446075Y-101947942D01*
X98562462Y-101773756D01*
X98642630Y-101580212D01*
X98683500Y-101374746D01*
X98683500Y-101165254D01*
X98642630Y-100959788D01*
X98562462Y-100766244D01*
X98446075Y-100592058D01*
X98297942Y-100443925D01*
X98221380Y-100392768D01*
X104704000Y-100392768D01*
X104704000Y-100607231D01*
X104721595Y-100785877D01*
X104791127Y-101015093D01*
X104904041Y-101226341D01*
X105055998Y-101411502D01*
X105241158Y-101563459D01*
X105452406Y-101676373D01*
X105681622Y-101745905D01*
X105920000Y-101769383D01*
X106158377Y-101745905D01*
X106387593Y-101676373D01*
X106598841Y-101563459D01*
X106784002Y-101411502D01*
X106935959Y-101226342D01*
X107048873Y-101015094D01*
X107118405Y-100785878D01*
X107121597Y-100753462D01*
X107261886Y-100753462D01*
X107325089Y-100983245D01*
X107431906Y-101196282D01*
X107578232Y-101384387D01*
X107758443Y-101540331D01*
X107965615Y-101658121D01*
X108191786Y-101733230D01*
X108207317Y-101736957D01*
X108396500Y-101695871D01*
X108396500Y-100563500D01*
X108523500Y-100563500D01*
X108523500Y-101695871D01*
X108712683Y-101736957D01*
X108728214Y-101733230D01*
X108954385Y-101658121D01*
X109161557Y-101540331D01*
X109341768Y-101384387D01*
X109488094Y-101196282D01*
X109594911Y-100983245D01*
X109658114Y-100753462D01*
X109609708Y-100563500D01*
X108523500Y-100563500D01*
X108396500Y-100563500D01*
X107310292Y-100563500D01*
X107261886Y-100753462D01*
X107121597Y-100753462D01*
X107136000Y-100607232D01*
X107136000Y-100392769D01*
X107121598Y-100246538D01*
X107261886Y-100246538D01*
X107310292Y-100436500D01*
X108396500Y-100436500D01*
X108396500Y-99304129D01*
X108523500Y-99304129D01*
X108523500Y-100436500D01*
X109609708Y-100436500D01*
X109658114Y-100246538D01*
X109594911Y-100016755D01*
X109488094Y-99803718D01*
X109341768Y-99615613D01*
X109208165Y-99500000D01*
X109782726Y-99500000D01*
X109782726Y-101500000D01*
X109787814Y-101551655D01*
X109802881Y-101601325D01*
X109827348Y-101647101D01*
X109860277Y-101687223D01*
X109900399Y-101720152D01*
X109946175Y-101744619D01*
X109995845Y-101759686D01*
X110047500Y-101764774D01*
X111952500Y-101764774D01*
X112004155Y-101759686D01*
X112053825Y-101744619D01*
X112099601Y-101720152D01*
X112139723Y-101687223D01*
X112172652Y-101647101D01*
X112197119Y-101601325D01*
X112212186Y-101551655D01*
X112217274Y-101500000D01*
X112217274Y-99763245D01*
X117361500Y-99763245D01*
X117361500Y-100036755D01*
X117414860Y-100305010D01*
X117519528Y-100557701D01*
X117671482Y-100785117D01*
X117864883Y-100978518D01*
X118092299Y-101130472D01*
X118286621Y-101210963D01*
X118167678Y-101290438D01*
X118040438Y-101417678D01*
X117940467Y-101567296D01*
X117871605Y-101733542D01*
X117836500Y-101910028D01*
X117836500Y-102089972D01*
X117871605Y-102266458D01*
X117940467Y-102432704D01*
X118040438Y-102582322D01*
X118167678Y-102709562D01*
X118317296Y-102809533D01*
X118483542Y-102878395D01*
X118660028Y-102913500D01*
X118839972Y-102913500D01*
X119016458Y-102878395D01*
X119182704Y-102809533D01*
X119332322Y-102709562D01*
X119459562Y-102582322D01*
X119559533Y-102432704D01*
X119560516Y-102430330D01*
X125386500Y-102430330D01*
X125386500Y-102649670D01*
X125429291Y-102864796D01*
X125513229Y-103067440D01*
X125635088Y-103249815D01*
X125790185Y-103404912D01*
X125972560Y-103526771D01*
X126175204Y-103610709D01*
X126390330Y-103653500D01*
X126609670Y-103653500D01*
X126824796Y-103610709D01*
X127027440Y-103526771D01*
X127209815Y-103404912D01*
X127364912Y-103249815D01*
X127486771Y-103067440D01*
X127570709Y-102864796D01*
X127613500Y-102649670D01*
X127613500Y-102430330D01*
X127570709Y-102215204D01*
X127486771Y-102012560D01*
X127364912Y-101830185D01*
X127209815Y-101675088D01*
X127027440Y-101553229D01*
X126824796Y-101469291D01*
X126609670Y-101426500D01*
X126390330Y-101426500D01*
X126175204Y-101469291D01*
X125972560Y-101553229D01*
X125790185Y-101675088D01*
X125635088Y-101830185D01*
X125513229Y-102012560D01*
X125429291Y-102215204D01*
X125386500Y-102430330D01*
X119560516Y-102430330D01*
X119628395Y-102266458D01*
X119663500Y-102089972D01*
X119663500Y-101910028D01*
X119628395Y-101733542D01*
X119559533Y-101567296D01*
X119459562Y-101417678D01*
X119332322Y-101290438D01*
X119213379Y-101210963D01*
X119407701Y-101130472D01*
X119635117Y-100978518D01*
X119828518Y-100785117D01*
X119980472Y-100557701D01*
X120085140Y-100305010D01*
X120138500Y-100036755D01*
X120138500Y-99890330D01*
X125386500Y-99890330D01*
X125386500Y-100109670D01*
X125429291Y-100324796D01*
X125513229Y-100527440D01*
X125635088Y-100709815D01*
X125790185Y-100864912D01*
X125972560Y-100986771D01*
X126175204Y-101070709D01*
X126390330Y-101113500D01*
X126609670Y-101113500D01*
X126824796Y-101070709D01*
X127027440Y-100986771D01*
X127209815Y-100864912D01*
X127364912Y-100709815D01*
X127486771Y-100527440D01*
X127570709Y-100324796D01*
X127613500Y-100109670D01*
X127613500Y-99890330D01*
X127570709Y-99675204D01*
X127486771Y-99472560D01*
X127364912Y-99290185D01*
X127209815Y-99135088D01*
X127027440Y-99013229D01*
X126824796Y-98929291D01*
X126609670Y-98886500D01*
X126390330Y-98886500D01*
X126175204Y-98929291D01*
X125972560Y-99013229D01*
X125790185Y-99135088D01*
X125635088Y-99290185D01*
X125513229Y-99472560D01*
X125429291Y-99675204D01*
X125386500Y-99890330D01*
X120138500Y-99890330D01*
X120138500Y-99763245D01*
X120085140Y-99494990D01*
X119980472Y-99242299D01*
X119828518Y-99014883D01*
X119635117Y-98821482D01*
X119407701Y-98669528D01*
X119155010Y-98564860D01*
X118886755Y-98511500D01*
X118613245Y-98511500D01*
X118344990Y-98564860D01*
X118092299Y-98669528D01*
X117864883Y-98821482D01*
X117671482Y-99014883D01*
X117519528Y-99242299D01*
X117414860Y-99494990D01*
X117361500Y-99763245D01*
X112217274Y-99763245D01*
X112217274Y-99500000D01*
X112212186Y-99448345D01*
X112197119Y-99398675D01*
X112172652Y-99352899D01*
X112139723Y-99312777D01*
X112099601Y-99279848D01*
X112053825Y-99255381D01*
X112004155Y-99240314D01*
X111952500Y-99235226D01*
X110047500Y-99235226D01*
X109995845Y-99240314D01*
X109946175Y-99255381D01*
X109900399Y-99279848D01*
X109860277Y-99312777D01*
X109827348Y-99352899D01*
X109802881Y-99398675D01*
X109787814Y-99448345D01*
X109782726Y-99500000D01*
X109208165Y-99500000D01*
X109161557Y-99459669D01*
X108954385Y-99341879D01*
X108728214Y-99266770D01*
X108712683Y-99263043D01*
X108523500Y-99304129D01*
X108396500Y-99304129D01*
X108207317Y-99263043D01*
X108191786Y-99266770D01*
X107965615Y-99341879D01*
X107758443Y-99459669D01*
X107578232Y-99615613D01*
X107431906Y-99803718D01*
X107325089Y-100016755D01*
X107261886Y-100246538D01*
X107121598Y-100246538D01*
X107118405Y-100214123D01*
X107048873Y-99984907D01*
X106935959Y-99773659D01*
X106784002Y-99588498D01*
X106598842Y-99436541D01*
X106387594Y-99323627D01*
X106158378Y-99254095D01*
X105920000Y-99230617D01*
X105681623Y-99254095D01*
X105452407Y-99323627D01*
X105241159Y-99436541D01*
X105055999Y-99588498D01*
X104904041Y-99773658D01*
X104791127Y-99984906D01*
X104721595Y-100214122D01*
X104704000Y-100392768D01*
X98221380Y-100392768D01*
X98123756Y-100327538D01*
X97930212Y-100247370D01*
X97724746Y-100206500D01*
X97515254Y-100206500D01*
X97309788Y-100247370D01*
X97116244Y-100327538D01*
X96942058Y-100443925D01*
X96793925Y-100592058D01*
X96677538Y-100766244D01*
X96597370Y-100959788D01*
X96556500Y-101165254D01*
X91063500Y-101165254D01*
X91022630Y-100959788D01*
X90942462Y-100766244D01*
X90826075Y-100592058D01*
X90677942Y-100443925D01*
X90503756Y-100327538D01*
X90310212Y-100247370D01*
X90104746Y-100206500D01*
X89895254Y-100206500D01*
X89689788Y-100247370D01*
X89496244Y-100327538D01*
X89322058Y-100443925D01*
X89173925Y-100592058D01*
X89057538Y-100766244D01*
X88977370Y-100959788D01*
X88936500Y-101165254D01*
X78076567Y-101165254D01*
X78055337Y-101058528D01*
X77941246Y-100783089D01*
X77775612Y-100535200D01*
X77564800Y-100324388D01*
X77316911Y-100158754D01*
X77041472Y-100044663D01*
X76749067Y-99986500D01*
X76450933Y-99986500D01*
X76158528Y-100044663D01*
X75883089Y-100158754D01*
X75635200Y-100324388D01*
X75424388Y-100535200D01*
X75258754Y-100783089D01*
X75144663Y-101058528D01*
X75086500Y-101350933D01*
X70390500Y-101350933D01*
X70390500Y-99924802D01*
X71736500Y-99924802D01*
X71736500Y-100075198D01*
X71765841Y-100222705D01*
X71823395Y-100361653D01*
X71906951Y-100486703D01*
X72013297Y-100593049D01*
X72138347Y-100676605D01*
X72277295Y-100734159D01*
X72424802Y-100763500D01*
X72575198Y-100763500D01*
X72722705Y-100734159D01*
X72861653Y-100676605D01*
X72986703Y-100593049D01*
X73093049Y-100486703D01*
X73176605Y-100361653D01*
X73234159Y-100222705D01*
X73263500Y-100075198D01*
X73263500Y-99924802D01*
X79236500Y-99924802D01*
X79236500Y-100075198D01*
X79265841Y-100222705D01*
X79323395Y-100361653D01*
X79406951Y-100486703D01*
X79513297Y-100593049D01*
X79638347Y-100676605D01*
X79777295Y-100734159D01*
X79924802Y-100763500D01*
X80075198Y-100763500D01*
X80222705Y-100734159D01*
X80361653Y-100676605D01*
X80486703Y-100593049D01*
X80593049Y-100486703D01*
X80676605Y-100361653D01*
X80734159Y-100222705D01*
X80763500Y-100075198D01*
X80763500Y-99924802D01*
X80734159Y-99777295D01*
X80676605Y-99638347D01*
X80593049Y-99513297D01*
X80486703Y-99406951D01*
X80361653Y-99323395D01*
X80222705Y-99265841D01*
X80075198Y-99236500D01*
X79924802Y-99236500D01*
X79777295Y-99265841D01*
X79638347Y-99323395D01*
X79513297Y-99406951D01*
X79406951Y-99513297D01*
X79323395Y-99638347D01*
X79265841Y-99777295D01*
X79236500Y-99924802D01*
X73263500Y-99924802D01*
X73234159Y-99777295D01*
X73176605Y-99638347D01*
X73093049Y-99513297D01*
X72986703Y-99406951D01*
X72861653Y-99323395D01*
X72722705Y-99265841D01*
X72575198Y-99236500D01*
X72424802Y-99236500D01*
X72277295Y-99265841D01*
X72138347Y-99323395D01*
X72013297Y-99406951D01*
X71906951Y-99513297D01*
X71823395Y-99638347D01*
X71765841Y-99777295D01*
X71736500Y-99924802D01*
X70390500Y-99924802D01*
X70390500Y-97100933D01*
X80386500Y-97100933D01*
X80386500Y-97399067D01*
X80444663Y-97691472D01*
X80558754Y-97966911D01*
X80724388Y-98214800D01*
X80935200Y-98425612D01*
X81183089Y-98591246D01*
X81458528Y-98705337D01*
X81750933Y-98763500D01*
X82049067Y-98763500D01*
X82341472Y-98705337D01*
X82534808Y-98625254D01*
X88936500Y-98625254D01*
X88936500Y-98834746D01*
X88977370Y-99040212D01*
X89057538Y-99233756D01*
X89173925Y-99407942D01*
X89322058Y-99556075D01*
X89496244Y-99672462D01*
X89689788Y-99752630D01*
X89895254Y-99793500D01*
X90104746Y-99793500D01*
X90310212Y-99752630D01*
X90503756Y-99672462D01*
X90677942Y-99556075D01*
X90826075Y-99407942D01*
X90942462Y-99233756D01*
X91022630Y-99040212D01*
X91063500Y-98834746D01*
X91063500Y-98625254D01*
X96556500Y-98625254D01*
X96556500Y-98834746D01*
X96597370Y-99040212D01*
X96677538Y-99233756D01*
X96793925Y-99407942D01*
X96942058Y-99556075D01*
X97116244Y-99672462D01*
X97309788Y-99752630D01*
X97515254Y-99793500D01*
X97724746Y-99793500D01*
X97930212Y-99752630D01*
X98123756Y-99672462D01*
X98297942Y-99556075D01*
X98446075Y-99407942D01*
X98562462Y-99233756D01*
X98642630Y-99040212D01*
X98683500Y-98834746D01*
X98683500Y-98625254D01*
X98642630Y-98419788D01*
X98562462Y-98226244D01*
X98446075Y-98052058D01*
X98297942Y-97903925D01*
X98123756Y-97787538D01*
X97930212Y-97707370D01*
X97724746Y-97666500D01*
X97515254Y-97666500D01*
X97309788Y-97707370D01*
X97116244Y-97787538D01*
X96942058Y-97903925D01*
X96793925Y-98052058D01*
X96677538Y-98226244D01*
X96597370Y-98419788D01*
X96556500Y-98625254D01*
X91063500Y-98625254D01*
X91022630Y-98419788D01*
X90942462Y-98226244D01*
X90826075Y-98052058D01*
X90677942Y-97903925D01*
X90503756Y-97787538D01*
X90310212Y-97707370D01*
X90104746Y-97666500D01*
X89895254Y-97666500D01*
X89689788Y-97707370D01*
X89496244Y-97787538D01*
X89322058Y-97903925D01*
X89173925Y-98052058D01*
X89057538Y-98226244D01*
X88977370Y-98419788D01*
X88936500Y-98625254D01*
X82534808Y-98625254D01*
X82616911Y-98591246D01*
X82864800Y-98425612D01*
X83075612Y-98214800D01*
X83241246Y-97966911D01*
X83355337Y-97691472D01*
X83413500Y-97399067D01*
X83413500Y-97365104D01*
X85536500Y-97365104D01*
X85536500Y-97554896D01*
X85573527Y-97741043D01*
X85646157Y-97916388D01*
X85751601Y-98074195D01*
X85885805Y-98208399D01*
X86043612Y-98313843D01*
X86218957Y-98386473D01*
X86405104Y-98423500D01*
X86594896Y-98423500D01*
X86781043Y-98386473D01*
X86956388Y-98313843D01*
X87114195Y-98208399D01*
X87248399Y-98074195D01*
X87353843Y-97916388D01*
X87426473Y-97741043D01*
X87463500Y-97554896D01*
X87463500Y-97365104D01*
X100156500Y-97365104D01*
X100156500Y-97554896D01*
X100193527Y-97741043D01*
X100266157Y-97916388D01*
X100371601Y-98074195D01*
X100505805Y-98208399D01*
X100663612Y-98313843D01*
X100838957Y-98386473D01*
X101025104Y-98423500D01*
X101214896Y-98423500D01*
X101401043Y-98386473D01*
X101576388Y-98313843D01*
X101734195Y-98208399D01*
X101868399Y-98074195D01*
X101973843Y-97916388D01*
X102046473Y-97741043D01*
X102083500Y-97554896D01*
X102083500Y-97365104D01*
X102080562Y-97350330D01*
X125386500Y-97350330D01*
X125386500Y-97569670D01*
X125429291Y-97784796D01*
X125513229Y-97987440D01*
X125635088Y-98169815D01*
X125790185Y-98324912D01*
X125972560Y-98446771D01*
X126175204Y-98530709D01*
X126390330Y-98573500D01*
X126609670Y-98573500D01*
X126824796Y-98530709D01*
X127027440Y-98446771D01*
X127209815Y-98324912D01*
X127364912Y-98169815D01*
X127486771Y-97987440D01*
X127570709Y-97784796D01*
X127613500Y-97569670D01*
X127613500Y-97350330D01*
X127570709Y-97135204D01*
X127486771Y-96932560D01*
X127364912Y-96750185D01*
X127209815Y-96595088D01*
X127027440Y-96473229D01*
X126824796Y-96389291D01*
X126609670Y-96346500D01*
X126390330Y-96346500D01*
X126175204Y-96389291D01*
X125972560Y-96473229D01*
X125790185Y-96595088D01*
X125635088Y-96750185D01*
X125513229Y-96932560D01*
X125429291Y-97135204D01*
X125386500Y-97350330D01*
X102080562Y-97350330D01*
X102046473Y-97178957D01*
X101973843Y-97003612D01*
X101868399Y-96845805D01*
X101734195Y-96711601D01*
X101576388Y-96606157D01*
X101401043Y-96533527D01*
X101214896Y-96496500D01*
X101025104Y-96496500D01*
X100838957Y-96533527D01*
X100663612Y-96606157D01*
X100505805Y-96711601D01*
X100371601Y-96845805D01*
X100266157Y-97003612D01*
X100193527Y-97178957D01*
X100156500Y-97365104D01*
X87463500Y-97365104D01*
X87426473Y-97178957D01*
X87353843Y-97003612D01*
X87248399Y-96845805D01*
X87114195Y-96711601D01*
X86956388Y-96606157D01*
X86781043Y-96533527D01*
X86594896Y-96496500D01*
X86405104Y-96496500D01*
X86218957Y-96533527D01*
X86043612Y-96606157D01*
X85885805Y-96711601D01*
X85751601Y-96845805D01*
X85646157Y-97003612D01*
X85573527Y-97178957D01*
X85536500Y-97365104D01*
X83413500Y-97365104D01*
X83413500Y-97100933D01*
X83355337Y-96808528D01*
X83241246Y-96533089D01*
X83075612Y-96285200D01*
X82864800Y-96074388D01*
X82616911Y-95908754D01*
X82341472Y-95794663D01*
X82049067Y-95736500D01*
X81750933Y-95736500D01*
X81458528Y-95794663D01*
X81183089Y-95908754D01*
X80935200Y-96074388D01*
X80724388Y-96285200D01*
X80558754Y-96533089D01*
X80444663Y-96808528D01*
X80386500Y-97100933D01*
X70390500Y-97100933D01*
X70390500Y-95390000D01*
X88935226Y-95390000D01*
X88935226Y-96990000D01*
X88940314Y-97041655D01*
X88955381Y-97091325D01*
X88979848Y-97137101D01*
X89012777Y-97177223D01*
X89052899Y-97210152D01*
X89098675Y-97234619D01*
X89148345Y-97249686D01*
X89200000Y-97254774D01*
X90800000Y-97254774D01*
X90851655Y-97249686D01*
X90901325Y-97234619D01*
X90947101Y-97210152D01*
X90987223Y-97177223D01*
X91020152Y-97137101D01*
X91044619Y-97091325D01*
X91059686Y-97041655D01*
X91064774Y-96990000D01*
X91064774Y-96085254D01*
X96556500Y-96085254D01*
X96556500Y-96294746D01*
X96597370Y-96500212D01*
X96677538Y-96693756D01*
X96793925Y-96867942D01*
X96942058Y-97016075D01*
X97116244Y-97132462D01*
X97309788Y-97212630D01*
X97515254Y-97253500D01*
X97724746Y-97253500D01*
X97930212Y-97212630D01*
X98123756Y-97132462D01*
X98297942Y-97016075D01*
X98446075Y-96867942D01*
X98562462Y-96693756D01*
X98642630Y-96500212D01*
X98683500Y-96294746D01*
X98683500Y-96145254D01*
X104856500Y-96145254D01*
X104856500Y-96354746D01*
X104897370Y-96560212D01*
X104977538Y-96753756D01*
X105093925Y-96927942D01*
X105242058Y-97076075D01*
X105416244Y-97192462D01*
X105609788Y-97272630D01*
X105815254Y-97313500D01*
X106024746Y-97313500D01*
X106230212Y-97272630D01*
X106423756Y-97192462D01*
X106597942Y-97076075D01*
X106746075Y-96927942D01*
X106862462Y-96753756D01*
X106942630Y-96560212D01*
X106983500Y-96354746D01*
X106983500Y-96145254D01*
X109936500Y-96145254D01*
X109936500Y-96354746D01*
X109977370Y-96560212D01*
X110057538Y-96753756D01*
X110173925Y-96927942D01*
X110322058Y-97076075D01*
X110496244Y-97192462D01*
X110689788Y-97272630D01*
X110895254Y-97313500D01*
X111104746Y-97313500D01*
X111310212Y-97272630D01*
X111503756Y-97192462D01*
X111677942Y-97076075D01*
X111826075Y-96927942D01*
X111942462Y-96753756D01*
X112022630Y-96560212D01*
X112063500Y-96354746D01*
X112063500Y-96145254D01*
X112030665Y-95980179D01*
X115986500Y-95980179D01*
X115986500Y-96179821D01*
X116025448Y-96375627D01*
X116101848Y-96560072D01*
X116212763Y-96726069D01*
X116353931Y-96867237D01*
X116519928Y-96978152D01*
X116704373Y-97054552D01*
X116900179Y-97093500D01*
X117099821Y-97093500D01*
X117295627Y-97054552D01*
X117480072Y-96978152D01*
X117646069Y-96867237D01*
X117787237Y-96726069D01*
X117898152Y-96560072D01*
X117974552Y-96375627D01*
X118013500Y-96179821D01*
X118013500Y-95980179D01*
X117974552Y-95784373D01*
X117968599Y-95770000D01*
X125385225Y-95770000D01*
X125390313Y-95821655D01*
X125405380Y-95871325D01*
X125429848Y-95917101D01*
X125462776Y-95957224D01*
X125502899Y-95990152D01*
X125548675Y-96014620D01*
X125598345Y-96029687D01*
X125650000Y-96034775D01*
X126370625Y-96033500D01*
X126436500Y-95967625D01*
X126436500Y-94983500D01*
X126563500Y-94983500D01*
X126563500Y-95967625D01*
X126629375Y-96033500D01*
X127350000Y-96034775D01*
X127401655Y-96029687D01*
X127451325Y-96014620D01*
X127497101Y-95990152D01*
X127537224Y-95957224D01*
X127570152Y-95917101D01*
X127594620Y-95871325D01*
X127609687Y-95821655D01*
X127614775Y-95770000D01*
X127613500Y-95049375D01*
X127547625Y-94983500D01*
X126563500Y-94983500D01*
X126436500Y-94983500D01*
X125452375Y-94983500D01*
X125386500Y-95049375D01*
X125385225Y-95770000D01*
X117968599Y-95770000D01*
X117898152Y-95599928D01*
X117787237Y-95433931D01*
X117646069Y-95292763D01*
X117480072Y-95181848D01*
X117295627Y-95105448D01*
X117099821Y-95066500D01*
X116900179Y-95066500D01*
X116704373Y-95105448D01*
X116519928Y-95181848D01*
X116353931Y-95292763D01*
X116212763Y-95433931D01*
X116101848Y-95599928D01*
X116025448Y-95784373D01*
X115986500Y-95980179D01*
X112030665Y-95980179D01*
X112022630Y-95939788D01*
X111942462Y-95746244D01*
X111826075Y-95572058D01*
X111677942Y-95423925D01*
X111503756Y-95307538D01*
X111310212Y-95227370D01*
X111104746Y-95186500D01*
X110895254Y-95186500D01*
X110689788Y-95227370D01*
X110496244Y-95307538D01*
X110322058Y-95423925D01*
X110173925Y-95572058D01*
X110057538Y-95746244D01*
X109977370Y-95939788D01*
X109936500Y-96145254D01*
X106983500Y-96145254D01*
X106942630Y-95939788D01*
X106862462Y-95746244D01*
X106746075Y-95572058D01*
X106597942Y-95423925D01*
X106423756Y-95307538D01*
X106230212Y-95227370D01*
X106024746Y-95186500D01*
X105815254Y-95186500D01*
X105609788Y-95227370D01*
X105416244Y-95307538D01*
X105242058Y-95423925D01*
X105093925Y-95572058D01*
X104977538Y-95746244D01*
X104897370Y-95939788D01*
X104856500Y-96145254D01*
X98683500Y-96145254D01*
X98683500Y-96085254D01*
X98642630Y-95879788D01*
X98562462Y-95686244D01*
X98446075Y-95512058D01*
X98297942Y-95363925D01*
X98123756Y-95247538D01*
X97930212Y-95167370D01*
X97724746Y-95126500D01*
X97515254Y-95126500D01*
X97309788Y-95167370D01*
X97116244Y-95247538D01*
X96942058Y-95363925D01*
X96793925Y-95512058D01*
X96677538Y-95686244D01*
X96597370Y-95879788D01*
X96556500Y-96085254D01*
X91064774Y-96085254D01*
X91064774Y-95390000D01*
X91059686Y-95338345D01*
X91044619Y-95288675D01*
X91020152Y-95242899D01*
X90987223Y-95202777D01*
X90947101Y-95169848D01*
X90901325Y-95145381D01*
X90851655Y-95130314D01*
X90800000Y-95125226D01*
X89200000Y-95125226D01*
X89148345Y-95130314D01*
X89098675Y-95145381D01*
X89052899Y-95169848D01*
X89012777Y-95202777D01*
X88979848Y-95242899D01*
X88955381Y-95288675D01*
X88940314Y-95338345D01*
X88935226Y-95390000D01*
X70390500Y-95390000D01*
X70390500Y-94256943D01*
X116372860Y-94256943D01*
X116453935Y-94399628D01*
X116632133Y-94489642D01*
X116824467Y-94543163D01*
X117023547Y-94558133D01*
X117221723Y-94533976D01*
X117411378Y-94471620D01*
X117546065Y-94399628D01*
X117627140Y-94256943D01*
X117000000Y-93629803D01*
X116372860Y-94256943D01*
X70390500Y-94256943D01*
X70390500Y-93252544D01*
X90647259Y-93252544D01*
X90734348Y-93400350D01*
X90921058Y-93495354D01*
X91122716Y-93552107D01*
X91331570Y-93568428D01*
X91372616Y-93563547D01*
X115981867Y-93563547D01*
X116006024Y-93761723D01*
X116068380Y-93951378D01*
X116140372Y-94086065D01*
X116283057Y-94167140D01*
X116910197Y-93540000D01*
X117089803Y-93540000D01*
X117716943Y-94167140D01*
X117859628Y-94086065D01*
X117867742Y-94070000D01*
X125385225Y-94070000D01*
X125386500Y-94790625D01*
X125452375Y-94856500D01*
X126436500Y-94856500D01*
X126436500Y-93872375D01*
X126563500Y-93872375D01*
X126563500Y-94856500D01*
X127547625Y-94856500D01*
X127613500Y-94790625D01*
X127614775Y-94070000D01*
X127609687Y-94018345D01*
X127594620Y-93968675D01*
X127570152Y-93922899D01*
X127537224Y-93882776D01*
X127497101Y-93849848D01*
X127451325Y-93825380D01*
X127401655Y-93810313D01*
X127350000Y-93805225D01*
X126629375Y-93806500D01*
X126563500Y-93872375D01*
X126436500Y-93872375D01*
X126370625Y-93806500D01*
X125650000Y-93805225D01*
X125598345Y-93810313D01*
X125548675Y-93825380D01*
X125502899Y-93849848D01*
X125462776Y-93882776D01*
X125429848Y-93922899D01*
X125405380Y-93968675D01*
X125390313Y-94018345D01*
X125385225Y-94070000D01*
X117867742Y-94070000D01*
X117949642Y-93907867D01*
X118003163Y-93715533D01*
X118018133Y-93516453D01*
X117993976Y-93318277D01*
X117931620Y-93128622D01*
X117859628Y-92993935D01*
X117716943Y-92912860D01*
X117089803Y-93540000D01*
X116910197Y-93540000D01*
X116283057Y-92912860D01*
X116140372Y-92993935D01*
X116050358Y-93172133D01*
X115996837Y-93364467D01*
X115981867Y-93563547D01*
X91372616Y-93563547D01*
X91539595Y-93543691D01*
X91738797Y-93478845D01*
X91885652Y-93400350D01*
X91972741Y-93252544D01*
X91310000Y-92589803D01*
X90647259Y-93252544D01*
X70390500Y-93252544D01*
X70390500Y-92521570D01*
X90241572Y-92521570D01*
X90266309Y-92729595D01*
X90331155Y-92928797D01*
X90409650Y-93075652D01*
X90557456Y-93162741D01*
X91220197Y-92500000D01*
X91399803Y-92500000D01*
X92062544Y-93162741D01*
X92210350Y-93075652D01*
X92305354Y-92888942D01*
X92362107Y-92687284D01*
X92378428Y-92478430D01*
X92368538Y-92395254D01*
X95246500Y-92395254D01*
X95246500Y-92604746D01*
X95287370Y-92810212D01*
X95367538Y-93003756D01*
X95483925Y-93177942D01*
X95632058Y-93326075D01*
X95806244Y-93442462D01*
X95999788Y-93522630D01*
X96205254Y-93563500D01*
X96414746Y-93563500D01*
X96620212Y-93522630D01*
X96813756Y-93442462D01*
X96987942Y-93326075D01*
X97136075Y-93177942D01*
X97252462Y-93003756D01*
X97327309Y-92823057D01*
X116372860Y-92823057D01*
X117000000Y-93450197D01*
X117627140Y-92823057D01*
X117546065Y-92680372D01*
X117367867Y-92590358D01*
X117175533Y-92536837D01*
X116976453Y-92521867D01*
X116778277Y-92546024D01*
X116588622Y-92608380D01*
X116453935Y-92680372D01*
X116372860Y-92823057D01*
X97327309Y-92823057D01*
X97332630Y-92810212D01*
X97373500Y-92604746D01*
X97373500Y-92395254D01*
X97332630Y-92189788D01*
X97255072Y-92002544D01*
X105257259Y-92002544D01*
X105344348Y-92150350D01*
X105531058Y-92245354D01*
X105732716Y-92302107D01*
X105941570Y-92318428D01*
X106149595Y-92293691D01*
X106348797Y-92228845D01*
X106495652Y-92150350D01*
X106582741Y-92002544D01*
X110337259Y-92002544D01*
X110424348Y-92150350D01*
X110611058Y-92245354D01*
X110812716Y-92302107D01*
X111021570Y-92318428D01*
X111229595Y-92293691D01*
X111428797Y-92228845D01*
X111575652Y-92150350D01*
X111662741Y-92002544D01*
X111000000Y-91339803D01*
X110337259Y-92002544D01*
X106582741Y-92002544D01*
X105920000Y-91339803D01*
X105257259Y-92002544D01*
X97255072Y-92002544D01*
X97252462Y-91996244D01*
X97136075Y-91822058D01*
X96987942Y-91673925D01*
X96813756Y-91557538D01*
X96620212Y-91477370D01*
X96414746Y-91436500D01*
X96205254Y-91436500D01*
X95999788Y-91477370D01*
X95806244Y-91557538D01*
X95632058Y-91673925D01*
X95483925Y-91822058D01*
X95367538Y-91996244D01*
X95287370Y-92189788D01*
X95246500Y-92395254D01*
X92368538Y-92395254D01*
X92353691Y-92270405D01*
X92288845Y-92071203D01*
X92210350Y-91924348D01*
X92062544Y-91837259D01*
X91399803Y-92500000D01*
X91220197Y-92500000D01*
X90557456Y-91837259D01*
X90409650Y-91924348D01*
X90314646Y-92111058D01*
X90257893Y-92312716D01*
X90241572Y-92521570D01*
X70390500Y-92521570D01*
X70390500Y-91747456D01*
X90647259Y-91747456D01*
X91310000Y-92410197D01*
X91972741Y-91747456D01*
X91885652Y-91599650D01*
X91698942Y-91504646D01*
X91497284Y-91447893D01*
X91288430Y-91431572D01*
X91080405Y-91456309D01*
X90881203Y-91521155D01*
X90734348Y-91599650D01*
X90647259Y-91747456D01*
X70390500Y-91747456D01*
X70390500Y-91271570D01*
X104851572Y-91271570D01*
X104876309Y-91479595D01*
X104941155Y-91678797D01*
X105019650Y-91825652D01*
X105167456Y-91912741D01*
X105830197Y-91250000D01*
X106009803Y-91250000D01*
X106672544Y-91912741D01*
X106820350Y-91825652D01*
X106915354Y-91638942D01*
X106972107Y-91437284D01*
X106985056Y-91271570D01*
X109931572Y-91271570D01*
X109956309Y-91479595D01*
X110021155Y-91678797D01*
X110099650Y-91825652D01*
X110247456Y-91912741D01*
X110910197Y-91250000D01*
X111089803Y-91250000D01*
X111752544Y-91912741D01*
X111900350Y-91825652D01*
X111995354Y-91638942D01*
X112052107Y-91437284D01*
X112068428Y-91228430D01*
X112043691Y-91020405D01*
X111978845Y-90821203D01*
X111900350Y-90674348D01*
X111752544Y-90587259D01*
X111089803Y-91250000D01*
X110910197Y-91250000D01*
X110247456Y-90587259D01*
X110099650Y-90674348D01*
X110004646Y-90861058D01*
X109947893Y-91062716D01*
X109931572Y-91271570D01*
X106985056Y-91271570D01*
X106988428Y-91228430D01*
X106963691Y-91020405D01*
X106898845Y-90821203D01*
X106820350Y-90674348D01*
X106672544Y-90587259D01*
X106009803Y-91250000D01*
X105830197Y-91250000D01*
X105167456Y-90587259D01*
X105019650Y-90674348D01*
X104924646Y-90861058D01*
X104867893Y-91062716D01*
X104851572Y-91271570D01*
X70390500Y-91271570D01*
X70390500Y-90497456D01*
X105257259Y-90497456D01*
X105920000Y-91160197D01*
X106582741Y-90497456D01*
X110337259Y-90497456D01*
X111000000Y-91160197D01*
X111662741Y-90497456D01*
X111575652Y-90349650D01*
X111388942Y-90254646D01*
X111372434Y-90250000D01*
X115985226Y-90250000D01*
X115985226Y-91750000D01*
X115990314Y-91801655D01*
X116005381Y-91851325D01*
X116029848Y-91897101D01*
X116062777Y-91937223D01*
X116102899Y-91970152D01*
X116148675Y-91994619D01*
X116198345Y-92009686D01*
X116250000Y-92014774D01*
X117750000Y-92014774D01*
X117801655Y-92009686D01*
X117851325Y-91994619D01*
X117897101Y-91970152D01*
X117937223Y-91937223D01*
X117970152Y-91897101D01*
X117994619Y-91851325D01*
X118009686Y-91801655D01*
X118014774Y-91750000D01*
X118014774Y-90250000D01*
X118009686Y-90198345D01*
X117994619Y-90148675D01*
X117970152Y-90102899D01*
X117937223Y-90062777D01*
X117897101Y-90029848D01*
X117851325Y-90005381D01*
X117801655Y-89990314D01*
X117750000Y-89985226D01*
X116250000Y-89985226D01*
X116198345Y-89990314D01*
X116148675Y-90005381D01*
X116102899Y-90029848D01*
X116062777Y-90062777D01*
X116029848Y-90102899D01*
X116005381Y-90148675D01*
X115990314Y-90198345D01*
X115985226Y-90250000D01*
X111372434Y-90250000D01*
X111187284Y-90197893D01*
X110978430Y-90181572D01*
X110770405Y-90206309D01*
X110571203Y-90271155D01*
X110424348Y-90349650D01*
X110337259Y-90497456D01*
X106582741Y-90497456D01*
X106495652Y-90349650D01*
X106308942Y-90254646D01*
X106107284Y-90197893D01*
X105898430Y-90181572D01*
X105690405Y-90206309D01*
X105491203Y-90271155D01*
X105344348Y-90349650D01*
X105257259Y-90497456D01*
X70390500Y-90497456D01*
X70390500Y-89038790D01*
X88961401Y-89038790D01*
X89009325Y-89196785D01*
X89103819Y-89382624D01*
X89232752Y-89546457D01*
X89391170Y-89681989D01*
X89572985Y-89784011D01*
X89771210Y-89848602D01*
X89936500Y-89805731D01*
X89936500Y-88873500D01*
X90063500Y-88873500D01*
X90063500Y-89805731D01*
X90228790Y-89848602D01*
X90427015Y-89784011D01*
X90608830Y-89681989D01*
X90767248Y-89546457D01*
X90896181Y-89382624D01*
X90990675Y-89196785D01*
X91038599Y-89038790D01*
X90995602Y-88873500D01*
X90063500Y-88873500D01*
X89936500Y-88873500D01*
X89004398Y-88873500D01*
X88961401Y-89038790D01*
X70390500Y-89038790D01*
X70390500Y-88581210D01*
X88961401Y-88581210D01*
X89004398Y-88746500D01*
X89936500Y-88746500D01*
X89936500Y-87814269D01*
X90063500Y-87814269D01*
X90063500Y-88746500D01*
X90995602Y-88746500D01*
X91006331Y-88705254D01*
X96556500Y-88705254D01*
X96556500Y-88914746D01*
X96597370Y-89120212D01*
X96677538Y-89313756D01*
X96793925Y-89487942D01*
X96942058Y-89636075D01*
X97116244Y-89752462D01*
X97309788Y-89832630D01*
X97515254Y-89873500D01*
X97724746Y-89873500D01*
X97930212Y-89832630D01*
X98123756Y-89752462D01*
X98297942Y-89636075D01*
X98446075Y-89487942D01*
X98562462Y-89313756D01*
X98635316Y-89137868D01*
X124361500Y-89137868D01*
X124361500Y-89362132D01*
X124405252Y-89582088D01*
X124491074Y-89789282D01*
X124615669Y-89975752D01*
X124774248Y-90134331D01*
X124960718Y-90258926D01*
X125167912Y-90344748D01*
X125387868Y-90388500D01*
X125612132Y-90388500D01*
X125832088Y-90344748D01*
X126039282Y-90258926D01*
X126225752Y-90134331D01*
X126384331Y-89975752D01*
X126508926Y-89789282D01*
X126594748Y-89582088D01*
X126638500Y-89362132D01*
X126638500Y-89137868D01*
X126594748Y-88917912D01*
X126508926Y-88710718D01*
X126384331Y-88524248D01*
X126225752Y-88365669D01*
X126039282Y-88241074D01*
X125832088Y-88155252D01*
X125612132Y-88111500D01*
X125387868Y-88111500D01*
X125167912Y-88155252D01*
X124960718Y-88241074D01*
X124774248Y-88365669D01*
X124615669Y-88524248D01*
X124491074Y-88710718D01*
X124405252Y-88917912D01*
X124361500Y-89137868D01*
X98635316Y-89137868D01*
X98642630Y-89120212D01*
X98683500Y-88914746D01*
X98683500Y-88705254D01*
X98642630Y-88499788D01*
X98562462Y-88306244D01*
X98446075Y-88132058D01*
X98297942Y-87983925D01*
X98123756Y-87867538D01*
X97930212Y-87787370D01*
X97724746Y-87746500D01*
X97515254Y-87746500D01*
X97309788Y-87787370D01*
X97116244Y-87867538D01*
X96942058Y-87983925D01*
X96793925Y-88132058D01*
X96677538Y-88306244D01*
X96597370Y-88499788D01*
X96556500Y-88705254D01*
X91006331Y-88705254D01*
X91038599Y-88581210D01*
X90990675Y-88423215D01*
X90896181Y-88237376D01*
X90767248Y-88073543D01*
X90608830Y-87938011D01*
X90427015Y-87835989D01*
X90228790Y-87771398D01*
X90063500Y-87814269D01*
X89936500Y-87814269D01*
X89771210Y-87771398D01*
X89572985Y-87835989D01*
X89391170Y-87938011D01*
X89232752Y-88073543D01*
X89103819Y-88237376D01*
X89009325Y-88423215D01*
X88961401Y-88581210D01*
X70390500Y-88581210D01*
X70390500Y-87395254D01*
X85436500Y-87395254D01*
X85436500Y-87604746D01*
X85477370Y-87810212D01*
X85557538Y-88003756D01*
X85673925Y-88177942D01*
X85822058Y-88326075D01*
X85996244Y-88442462D01*
X86189788Y-88522630D01*
X86395254Y-88563500D01*
X86604746Y-88563500D01*
X86810212Y-88522630D01*
X87003756Y-88442462D01*
X87177942Y-88326075D01*
X87326075Y-88177942D01*
X87442462Y-88003756D01*
X87522630Y-87810212D01*
X87563500Y-87604746D01*
X87563500Y-87445104D01*
X100156500Y-87445104D01*
X100156500Y-87634896D01*
X100193527Y-87821043D01*
X100266157Y-87996388D01*
X100371601Y-88154195D01*
X100505805Y-88288399D01*
X100663612Y-88393843D01*
X100838957Y-88466473D01*
X101025104Y-88503500D01*
X101214896Y-88503500D01*
X101401043Y-88466473D01*
X101576388Y-88393843D01*
X101734195Y-88288399D01*
X101868399Y-88154195D01*
X101973843Y-87996388D01*
X102046473Y-87821043D01*
X102083500Y-87634896D01*
X102083500Y-87445104D01*
X102073585Y-87395254D01*
X103556500Y-87395254D01*
X103556500Y-87604746D01*
X103597370Y-87810212D01*
X103677538Y-88003756D01*
X103793925Y-88177942D01*
X103942058Y-88326075D01*
X104116244Y-88442462D01*
X104309788Y-88522630D01*
X104515254Y-88563500D01*
X104724746Y-88563500D01*
X104930212Y-88522630D01*
X105123756Y-88442462D01*
X105297942Y-88326075D01*
X105446075Y-88177942D01*
X105562462Y-88003756D01*
X105642630Y-87810212D01*
X105683500Y-87604746D01*
X105683500Y-87445104D01*
X107156500Y-87445104D01*
X107156500Y-87634896D01*
X107193527Y-87821043D01*
X107266157Y-87996388D01*
X107371601Y-88154195D01*
X107505805Y-88288399D01*
X107663612Y-88393843D01*
X107838957Y-88466473D01*
X108025104Y-88503500D01*
X108214896Y-88503500D01*
X108401043Y-88466473D01*
X108576388Y-88393843D01*
X108734195Y-88288399D01*
X108868399Y-88154195D01*
X108973843Y-87996388D01*
X109046473Y-87821043D01*
X109083500Y-87634896D01*
X109083500Y-87445104D01*
X110656500Y-87445104D01*
X110656500Y-87634896D01*
X110693527Y-87821043D01*
X110766157Y-87996388D01*
X110871601Y-88154195D01*
X111005805Y-88288399D01*
X111163612Y-88393843D01*
X111338957Y-88466473D01*
X111525104Y-88503500D01*
X111714896Y-88503500D01*
X111901043Y-88466473D01*
X112076388Y-88393843D01*
X112234195Y-88288399D01*
X112368399Y-88154195D01*
X112473843Y-87996388D01*
X112546473Y-87821043D01*
X112583500Y-87634896D01*
X112583500Y-87525104D01*
X114156500Y-87525104D01*
X114156500Y-87714896D01*
X114193527Y-87901043D01*
X114266157Y-88076388D01*
X114371601Y-88234195D01*
X114505805Y-88368399D01*
X114663612Y-88473843D01*
X114838957Y-88546473D01*
X115025104Y-88583500D01*
X115214896Y-88583500D01*
X115401043Y-88546473D01*
X115576388Y-88473843D01*
X115734195Y-88368399D01*
X115850050Y-88252544D01*
X117957259Y-88252544D01*
X118044348Y-88400350D01*
X118231058Y-88495354D01*
X118432716Y-88552107D01*
X118641570Y-88568428D01*
X118849595Y-88543691D01*
X119048797Y-88478845D01*
X119195652Y-88400350D01*
X119282741Y-88252544D01*
X118620000Y-87589803D01*
X117957259Y-88252544D01*
X115850050Y-88252544D01*
X115868399Y-88234195D01*
X115973843Y-88076388D01*
X116046473Y-87901043D01*
X116083500Y-87714896D01*
X116083500Y-87525104D01*
X116082798Y-87521570D01*
X117551572Y-87521570D01*
X117576309Y-87729595D01*
X117641155Y-87928797D01*
X117719650Y-88075652D01*
X117867456Y-88162741D01*
X118530197Y-87500000D01*
X118709803Y-87500000D01*
X119372544Y-88162741D01*
X119520350Y-88075652D01*
X119615354Y-87888942D01*
X119672107Y-87687284D01*
X119688428Y-87478430D01*
X119663691Y-87270405D01*
X119598845Y-87071203D01*
X119520350Y-86924348D01*
X119372544Y-86837259D01*
X118709803Y-87500000D01*
X118530197Y-87500000D01*
X117867456Y-86837259D01*
X117719650Y-86924348D01*
X117624646Y-87111058D01*
X117567893Y-87312716D01*
X117551572Y-87521570D01*
X116082798Y-87521570D01*
X116046473Y-87338957D01*
X115973843Y-87163612D01*
X115868399Y-87005805D01*
X115734195Y-86871601D01*
X115576388Y-86766157D01*
X115531240Y-86747456D01*
X117957259Y-86747456D01*
X118620000Y-87410197D01*
X119282741Y-86747456D01*
X119195652Y-86599650D01*
X119008942Y-86504646D01*
X118807284Y-86447893D01*
X118598430Y-86431572D01*
X118390405Y-86456309D01*
X118191203Y-86521155D01*
X118044348Y-86599650D01*
X117957259Y-86747456D01*
X115531240Y-86747456D01*
X115401043Y-86693527D01*
X115214896Y-86656500D01*
X115025104Y-86656500D01*
X114838957Y-86693527D01*
X114663612Y-86766157D01*
X114505805Y-86871601D01*
X114371601Y-87005805D01*
X114266157Y-87163612D01*
X114193527Y-87338957D01*
X114156500Y-87525104D01*
X112583500Y-87525104D01*
X112583500Y-87445104D01*
X112546473Y-87258957D01*
X112473843Y-87083612D01*
X112368399Y-86925805D01*
X112234195Y-86791601D01*
X112076388Y-86686157D01*
X111901043Y-86613527D01*
X111714896Y-86576500D01*
X111525104Y-86576500D01*
X111338957Y-86613527D01*
X111163612Y-86686157D01*
X111005805Y-86791601D01*
X110871601Y-86925805D01*
X110766157Y-87083612D01*
X110693527Y-87258957D01*
X110656500Y-87445104D01*
X109083500Y-87445104D01*
X109046473Y-87258957D01*
X108973843Y-87083612D01*
X108868399Y-86925805D01*
X108734195Y-86791601D01*
X108576388Y-86686157D01*
X108401043Y-86613527D01*
X108214896Y-86576500D01*
X108025104Y-86576500D01*
X107838957Y-86613527D01*
X107663612Y-86686157D01*
X107505805Y-86791601D01*
X107371601Y-86925805D01*
X107266157Y-87083612D01*
X107193527Y-87258957D01*
X107156500Y-87445104D01*
X105683500Y-87445104D01*
X105683500Y-87395254D01*
X105642630Y-87189788D01*
X105562462Y-86996244D01*
X105446075Y-86822058D01*
X105297942Y-86673925D01*
X105123756Y-86557538D01*
X104930212Y-86477370D01*
X104724746Y-86436500D01*
X104515254Y-86436500D01*
X104309788Y-86477370D01*
X104116244Y-86557538D01*
X103942058Y-86673925D01*
X103793925Y-86822058D01*
X103677538Y-86996244D01*
X103597370Y-87189788D01*
X103556500Y-87395254D01*
X102073585Y-87395254D01*
X102046473Y-87258957D01*
X101973843Y-87083612D01*
X101868399Y-86925805D01*
X101734195Y-86791601D01*
X101576388Y-86686157D01*
X101401043Y-86613527D01*
X101214896Y-86576500D01*
X101025104Y-86576500D01*
X100838957Y-86613527D01*
X100663612Y-86686157D01*
X100505805Y-86791601D01*
X100371601Y-86925805D01*
X100266157Y-87083612D01*
X100193527Y-87258957D01*
X100156500Y-87445104D01*
X87563500Y-87445104D01*
X87563500Y-87395254D01*
X87522630Y-87189788D01*
X87442462Y-86996244D01*
X87326075Y-86822058D01*
X87177942Y-86673925D01*
X87003756Y-86557538D01*
X86810212Y-86477370D01*
X86604746Y-86436500D01*
X86395254Y-86436500D01*
X86189788Y-86477370D01*
X85996244Y-86557538D01*
X85822058Y-86673925D01*
X85673925Y-86822058D01*
X85557538Y-86996244D01*
X85477370Y-87189788D01*
X85436500Y-87395254D01*
X70390500Y-87395254D01*
X70390500Y-86165254D01*
X88936500Y-86165254D01*
X88936500Y-86374746D01*
X88977370Y-86580212D01*
X89057538Y-86773756D01*
X89173925Y-86947942D01*
X89322058Y-87096075D01*
X89496244Y-87212462D01*
X89689788Y-87292630D01*
X89895254Y-87333500D01*
X90104746Y-87333500D01*
X90310212Y-87292630D01*
X90503756Y-87212462D01*
X90677942Y-87096075D01*
X90826075Y-86947942D01*
X90942462Y-86773756D01*
X91022630Y-86580212D01*
X91063500Y-86374746D01*
X91063500Y-86165254D01*
X96556500Y-86165254D01*
X96556500Y-86374746D01*
X96597370Y-86580212D01*
X96677538Y-86773756D01*
X96793925Y-86947942D01*
X96942058Y-87096075D01*
X97116244Y-87212462D01*
X97309788Y-87292630D01*
X97515254Y-87333500D01*
X97724746Y-87333500D01*
X97930212Y-87292630D01*
X98123756Y-87212462D01*
X98297942Y-87096075D01*
X98446075Y-86947942D01*
X98562462Y-86773756D01*
X98642630Y-86580212D01*
X98683500Y-86374746D01*
X98683500Y-86165254D01*
X98642630Y-85959788D01*
X98562462Y-85766244D01*
X98446075Y-85592058D01*
X98297942Y-85443925D01*
X98123756Y-85327538D01*
X97930212Y-85247370D01*
X97724746Y-85206500D01*
X97515254Y-85206500D01*
X97309788Y-85247370D01*
X97116244Y-85327538D01*
X96942058Y-85443925D01*
X96793925Y-85592058D01*
X96677538Y-85766244D01*
X96597370Y-85959788D01*
X96556500Y-86165254D01*
X91063500Y-86165254D01*
X91022630Y-85959788D01*
X90942462Y-85766244D01*
X90826075Y-85592058D01*
X90677942Y-85443925D01*
X90503756Y-85327538D01*
X90310212Y-85247370D01*
X90104746Y-85206500D01*
X89895254Y-85206500D01*
X89689788Y-85247370D01*
X89496244Y-85327538D01*
X89322058Y-85443925D01*
X89173925Y-85592058D01*
X89057538Y-85766244D01*
X88977370Y-85959788D01*
X88936500Y-86165254D01*
X70390500Y-86165254D01*
X70390500Y-83625254D01*
X88936500Y-83625254D01*
X88936500Y-83834746D01*
X88977370Y-84040212D01*
X89057538Y-84233756D01*
X89173925Y-84407942D01*
X89322058Y-84556075D01*
X89496244Y-84672462D01*
X89689788Y-84752630D01*
X89895254Y-84793500D01*
X90104746Y-84793500D01*
X90310212Y-84752630D01*
X90503756Y-84672462D01*
X90677942Y-84556075D01*
X90826075Y-84407942D01*
X90942462Y-84233756D01*
X91022630Y-84040212D01*
X91063500Y-83834746D01*
X91063500Y-83625254D01*
X96556500Y-83625254D01*
X96556500Y-83834746D01*
X96597370Y-84040212D01*
X96677538Y-84233756D01*
X96793925Y-84407942D01*
X96942058Y-84556075D01*
X97116244Y-84672462D01*
X97309788Y-84752630D01*
X97515254Y-84793500D01*
X97724746Y-84793500D01*
X97930212Y-84752630D01*
X98123756Y-84672462D01*
X98297942Y-84556075D01*
X98446075Y-84407942D01*
X98562462Y-84233756D01*
X98642630Y-84040212D01*
X98683500Y-83834746D01*
X98683500Y-83750000D01*
X123684983Y-83750000D01*
X123691036Y-83811457D01*
X123708962Y-83870552D01*
X123738073Y-83925014D01*
X123777249Y-83972751D01*
X123824986Y-84011927D01*
X123879448Y-84041038D01*
X123938543Y-84058964D01*
X124000000Y-84065017D01*
X125231125Y-84063500D01*
X125309500Y-83985125D01*
X125309500Y-82440500D01*
X125690500Y-82440500D01*
X125690500Y-83985125D01*
X125768875Y-84063500D01*
X127000000Y-84065017D01*
X127061457Y-84058964D01*
X127120552Y-84041038D01*
X127175014Y-84011927D01*
X127222751Y-83972751D01*
X127261927Y-83925014D01*
X127291038Y-83870552D01*
X127308964Y-83811457D01*
X127315017Y-83750000D01*
X127313500Y-82518875D01*
X127235125Y-82440500D01*
X125690500Y-82440500D01*
X125309500Y-82440500D01*
X123764875Y-82440500D01*
X123686500Y-82518875D01*
X123684983Y-83750000D01*
X98683500Y-83750000D01*
X98683500Y-83625254D01*
X98642630Y-83419788D01*
X98562462Y-83226244D01*
X98446075Y-83052058D01*
X98297942Y-82903925D01*
X98123756Y-82787538D01*
X97930212Y-82707370D01*
X97724746Y-82666500D01*
X97515254Y-82666500D01*
X97309788Y-82707370D01*
X97116244Y-82787538D01*
X96942058Y-82903925D01*
X96793925Y-83052058D01*
X96677538Y-83226244D01*
X96597370Y-83419788D01*
X96556500Y-83625254D01*
X91063500Y-83625254D01*
X91022630Y-83419788D01*
X90942462Y-83226244D01*
X90826075Y-83052058D01*
X90677942Y-82903925D01*
X90503756Y-82787538D01*
X90310212Y-82707370D01*
X90104746Y-82666500D01*
X89895254Y-82666500D01*
X89689788Y-82707370D01*
X89496244Y-82787538D01*
X89322058Y-82903925D01*
X89173925Y-83052058D01*
X89057538Y-83226244D01*
X88977370Y-83419788D01*
X88936500Y-83625254D01*
X70390500Y-83625254D01*
X70390500Y-82395254D01*
X85436500Y-82395254D01*
X85436500Y-82604746D01*
X85477370Y-82810212D01*
X85557538Y-83003756D01*
X85673925Y-83177942D01*
X85822058Y-83326075D01*
X85996244Y-83442462D01*
X86189788Y-83522630D01*
X86395254Y-83563500D01*
X86604746Y-83563500D01*
X86810212Y-83522630D01*
X87003756Y-83442462D01*
X87177942Y-83326075D01*
X87326075Y-83177942D01*
X87442462Y-83003756D01*
X87522630Y-82810212D01*
X87563500Y-82604746D01*
X87563500Y-82395254D01*
X87557503Y-82365104D01*
X100156500Y-82365104D01*
X100156500Y-82554896D01*
X100193527Y-82741043D01*
X100266157Y-82916388D01*
X100371601Y-83074195D01*
X100505805Y-83208399D01*
X100663612Y-83313843D01*
X100838957Y-83386473D01*
X101025104Y-83423500D01*
X101214896Y-83423500D01*
X101401043Y-83386473D01*
X101576388Y-83313843D01*
X101734195Y-83208399D01*
X101868399Y-83074195D01*
X101973843Y-82916388D01*
X102046473Y-82741043D01*
X102083500Y-82554896D01*
X102083500Y-82395254D01*
X103556500Y-82395254D01*
X103556500Y-82604746D01*
X103597370Y-82810212D01*
X103677538Y-83003756D01*
X103793925Y-83177942D01*
X103942058Y-83326075D01*
X104116244Y-83442462D01*
X104309788Y-83522630D01*
X104515254Y-83563500D01*
X104724746Y-83563500D01*
X104930212Y-83522630D01*
X105123756Y-83442462D01*
X105297942Y-83326075D01*
X105446075Y-83177942D01*
X105562462Y-83003756D01*
X105642630Y-82810212D01*
X105683500Y-82604746D01*
X105683500Y-82395254D01*
X105677503Y-82365104D01*
X107156500Y-82365104D01*
X107156500Y-82554896D01*
X107193527Y-82741043D01*
X107266157Y-82916388D01*
X107371601Y-83074195D01*
X107505805Y-83208399D01*
X107663612Y-83313843D01*
X107838957Y-83386473D01*
X108025104Y-83423500D01*
X108214896Y-83423500D01*
X108401043Y-83386473D01*
X108576388Y-83313843D01*
X108734195Y-83208399D01*
X108868399Y-83074195D01*
X108973843Y-82916388D01*
X109046473Y-82741043D01*
X109083500Y-82554896D01*
X109083500Y-82365104D01*
X110656500Y-82365104D01*
X110656500Y-82554896D01*
X110693527Y-82741043D01*
X110766157Y-82916388D01*
X110871601Y-83074195D01*
X111005805Y-83208399D01*
X111163612Y-83313843D01*
X111338957Y-83386473D01*
X111525104Y-83423500D01*
X111714896Y-83423500D01*
X111901043Y-83386473D01*
X112076388Y-83313843D01*
X112234195Y-83208399D01*
X112368399Y-83074195D01*
X112473843Y-82916388D01*
X112546473Y-82741043D01*
X112583500Y-82554896D01*
X112583500Y-82445104D01*
X114156500Y-82445104D01*
X114156500Y-82634896D01*
X114193527Y-82821043D01*
X114266157Y-82996388D01*
X114371601Y-83154195D01*
X114505805Y-83288399D01*
X114663612Y-83393843D01*
X114838957Y-83466473D01*
X115025104Y-83503500D01*
X115214896Y-83503500D01*
X115401043Y-83466473D01*
X115576388Y-83393843D01*
X115734195Y-83288399D01*
X115868399Y-83154195D01*
X115973843Y-82996388D01*
X116046473Y-82821043D01*
X116083500Y-82634896D01*
X116083500Y-82445104D01*
X116073585Y-82395254D01*
X117556500Y-82395254D01*
X117556500Y-82604746D01*
X117597370Y-82810212D01*
X117677538Y-83003756D01*
X117793925Y-83177942D01*
X117942058Y-83326075D01*
X118116244Y-83442462D01*
X118309788Y-83522630D01*
X118515254Y-83563500D01*
X118724746Y-83563500D01*
X118930212Y-83522630D01*
X119123756Y-83442462D01*
X119297942Y-83326075D01*
X119446075Y-83177942D01*
X119562462Y-83003756D01*
X119642630Y-82810212D01*
X119683500Y-82604746D01*
X119683500Y-82395254D01*
X119642630Y-82189788D01*
X119562462Y-81996244D01*
X119446075Y-81822058D01*
X119297942Y-81673925D01*
X119123756Y-81557538D01*
X118930212Y-81477370D01*
X118724746Y-81436500D01*
X118515254Y-81436500D01*
X118309788Y-81477370D01*
X118116244Y-81557538D01*
X117942058Y-81673925D01*
X117793925Y-81822058D01*
X117677538Y-81996244D01*
X117597370Y-82189788D01*
X117556500Y-82395254D01*
X116073585Y-82395254D01*
X116046473Y-82258957D01*
X115973843Y-82083612D01*
X115868399Y-81925805D01*
X115734195Y-81791601D01*
X115576388Y-81686157D01*
X115401043Y-81613527D01*
X115214896Y-81576500D01*
X115025104Y-81576500D01*
X114838957Y-81613527D01*
X114663612Y-81686157D01*
X114505805Y-81791601D01*
X114371601Y-81925805D01*
X114266157Y-82083612D01*
X114193527Y-82258957D01*
X114156500Y-82445104D01*
X112583500Y-82445104D01*
X112583500Y-82365104D01*
X112546473Y-82178957D01*
X112473843Y-82003612D01*
X112368399Y-81845805D01*
X112234195Y-81711601D01*
X112076388Y-81606157D01*
X111901043Y-81533527D01*
X111714896Y-81496500D01*
X111525104Y-81496500D01*
X111338957Y-81533527D01*
X111163612Y-81606157D01*
X111005805Y-81711601D01*
X110871601Y-81845805D01*
X110766157Y-82003612D01*
X110693527Y-82178957D01*
X110656500Y-82365104D01*
X109083500Y-82365104D01*
X109046473Y-82178957D01*
X108973843Y-82003612D01*
X108868399Y-81845805D01*
X108734195Y-81711601D01*
X108576388Y-81606157D01*
X108401043Y-81533527D01*
X108214896Y-81496500D01*
X108025104Y-81496500D01*
X107838957Y-81533527D01*
X107663612Y-81606157D01*
X107505805Y-81711601D01*
X107371601Y-81845805D01*
X107266157Y-82003612D01*
X107193527Y-82178957D01*
X107156500Y-82365104D01*
X105677503Y-82365104D01*
X105642630Y-82189788D01*
X105562462Y-81996244D01*
X105446075Y-81822058D01*
X105297942Y-81673925D01*
X105123756Y-81557538D01*
X104930212Y-81477370D01*
X104724746Y-81436500D01*
X104515254Y-81436500D01*
X104309788Y-81477370D01*
X104116244Y-81557538D01*
X103942058Y-81673925D01*
X103793925Y-81822058D01*
X103677538Y-81996244D01*
X103597370Y-82189788D01*
X103556500Y-82395254D01*
X102083500Y-82395254D01*
X102083500Y-82365104D01*
X102046473Y-82178957D01*
X101973843Y-82003612D01*
X101868399Y-81845805D01*
X101734195Y-81711601D01*
X101576388Y-81606157D01*
X101401043Y-81533527D01*
X101214896Y-81496500D01*
X101025104Y-81496500D01*
X100838957Y-81533527D01*
X100663612Y-81606157D01*
X100505805Y-81711601D01*
X100371601Y-81845805D01*
X100266157Y-82003612D01*
X100193527Y-82178957D01*
X100156500Y-82365104D01*
X87557503Y-82365104D01*
X87522630Y-82189788D01*
X87442462Y-81996244D01*
X87326075Y-81822058D01*
X87177942Y-81673925D01*
X87003756Y-81557538D01*
X86810212Y-81477370D01*
X86604746Y-81436500D01*
X86395254Y-81436500D01*
X86189788Y-81477370D01*
X85996244Y-81557538D01*
X85822058Y-81673925D01*
X85673925Y-81822058D01*
X85557538Y-81996244D01*
X85477370Y-82189788D01*
X85436500Y-82395254D01*
X70390500Y-82395254D01*
X70390500Y-80390000D01*
X88935226Y-80390000D01*
X88935226Y-81990000D01*
X88940314Y-82041655D01*
X88955381Y-82091325D01*
X88979848Y-82137101D01*
X89012777Y-82177223D01*
X89052899Y-82210152D01*
X89098675Y-82234619D01*
X89148345Y-82249686D01*
X89200000Y-82254774D01*
X90800000Y-82254774D01*
X90851655Y-82249686D01*
X90901325Y-82234619D01*
X90947101Y-82210152D01*
X90987223Y-82177223D01*
X91020152Y-82137101D01*
X91044619Y-82091325D01*
X91059686Y-82041655D01*
X91064774Y-81990000D01*
X91064774Y-81085254D01*
X96556500Y-81085254D01*
X96556500Y-81294746D01*
X96597370Y-81500212D01*
X96677538Y-81693756D01*
X96793925Y-81867942D01*
X96942058Y-82016075D01*
X97116244Y-82132462D01*
X97309788Y-82212630D01*
X97515254Y-82253500D01*
X97724746Y-82253500D01*
X97930212Y-82212630D01*
X98123756Y-82132462D01*
X98297942Y-82016075D01*
X98446075Y-81867942D01*
X98562462Y-81693756D01*
X98642630Y-81500212D01*
X98683500Y-81294746D01*
X98683500Y-81085254D01*
X98642630Y-80879788D01*
X98588871Y-80750000D01*
X123684983Y-80750000D01*
X123686500Y-81981125D01*
X123764875Y-82059500D01*
X125309500Y-82059500D01*
X125309500Y-80514875D01*
X125690500Y-80514875D01*
X125690500Y-82059500D01*
X127235125Y-82059500D01*
X127313500Y-81981125D01*
X127315017Y-80750000D01*
X127308964Y-80688543D01*
X127291038Y-80629448D01*
X127261927Y-80574986D01*
X127222751Y-80527249D01*
X127175014Y-80488073D01*
X127120552Y-80458962D01*
X127061457Y-80441036D01*
X127000000Y-80434983D01*
X125768875Y-80436500D01*
X125690500Y-80514875D01*
X125309500Y-80514875D01*
X125231125Y-80436500D01*
X124000000Y-80434983D01*
X123938543Y-80441036D01*
X123879448Y-80458962D01*
X123824986Y-80488073D01*
X123777249Y-80527249D01*
X123738073Y-80574986D01*
X123708962Y-80629448D01*
X123691036Y-80688543D01*
X123684983Y-80750000D01*
X98588871Y-80750000D01*
X98562462Y-80686244D01*
X98446075Y-80512058D01*
X98297942Y-80363925D01*
X98123756Y-80247538D01*
X97930212Y-80167370D01*
X97724746Y-80126500D01*
X97515254Y-80126500D01*
X97309788Y-80167370D01*
X97116244Y-80247538D01*
X96942058Y-80363925D01*
X96793925Y-80512058D01*
X96677538Y-80686244D01*
X96597370Y-80879788D01*
X96556500Y-81085254D01*
X91064774Y-81085254D01*
X91064774Y-80390000D01*
X91059686Y-80338345D01*
X91044619Y-80288675D01*
X91020152Y-80242899D01*
X90987223Y-80202777D01*
X90947101Y-80169848D01*
X90901325Y-80145381D01*
X90851655Y-80130314D01*
X90800000Y-80125226D01*
X89200000Y-80125226D01*
X89148345Y-80130314D01*
X89098675Y-80145381D01*
X89052899Y-80169848D01*
X89012777Y-80202777D01*
X88979848Y-80242899D01*
X88955381Y-80288675D01*
X88940314Y-80338345D01*
X88935226Y-80390000D01*
X70390500Y-80390000D01*
X70390500Y-78252544D01*
X90647259Y-78252544D01*
X90734348Y-78400350D01*
X90921058Y-78495354D01*
X91122716Y-78552107D01*
X91331570Y-78568428D01*
X91539595Y-78543691D01*
X91738797Y-78478845D01*
X91885652Y-78400350D01*
X91972741Y-78252544D01*
X91310000Y-77589803D01*
X90647259Y-78252544D01*
X70390500Y-78252544D01*
X70390500Y-76019095D01*
X70411334Y-75806612D01*
X71536500Y-75806612D01*
X71536500Y-76193388D01*
X71611956Y-76572732D01*
X71759968Y-76930066D01*
X71974850Y-77251659D01*
X72248341Y-77525150D01*
X72569934Y-77740032D01*
X72927268Y-77888044D01*
X73306612Y-77963500D01*
X73693388Y-77963500D01*
X74072732Y-77888044D01*
X74430066Y-77740032D01*
X74751659Y-77525150D01*
X74755239Y-77521570D01*
X90241572Y-77521570D01*
X90266309Y-77729595D01*
X90331155Y-77928797D01*
X90409650Y-78075652D01*
X90557456Y-78162741D01*
X91220197Y-77500000D01*
X91399803Y-77500000D01*
X92062544Y-78162741D01*
X92210350Y-78075652D01*
X92305354Y-77888942D01*
X92362107Y-77687284D01*
X92378428Y-77478430D01*
X92368538Y-77395254D01*
X95246500Y-77395254D01*
X95246500Y-77604746D01*
X95287370Y-77810212D01*
X95367538Y-78003756D01*
X95483925Y-78177942D01*
X95632058Y-78326075D01*
X95806244Y-78442462D01*
X95999788Y-78522630D01*
X96205254Y-78563500D01*
X96414746Y-78563500D01*
X96620212Y-78522630D01*
X96813756Y-78442462D01*
X96987942Y-78326075D01*
X97136075Y-78177942D01*
X97252462Y-78003756D01*
X97332630Y-77810212D01*
X97373500Y-77604746D01*
X97373500Y-77395254D01*
X97332630Y-77189788D01*
X97252462Y-76996244D01*
X97136075Y-76822058D01*
X96987942Y-76673925D01*
X96813756Y-76557538D01*
X96620212Y-76477370D01*
X96414746Y-76436500D01*
X96205254Y-76436500D01*
X95999788Y-76477370D01*
X95806244Y-76557538D01*
X95632058Y-76673925D01*
X95483925Y-76822058D01*
X95367538Y-76996244D01*
X95287370Y-77189788D01*
X95246500Y-77395254D01*
X92368538Y-77395254D01*
X92353691Y-77270405D01*
X92288845Y-77071203D01*
X92210350Y-76924348D01*
X92062544Y-76837259D01*
X91399803Y-77500000D01*
X91220197Y-77500000D01*
X90557456Y-76837259D01*
X90409650Y-76924348D01*
X90314646Y-77111058D01*
X90257893Y-77312716D01*
X90241572Y-77521570D01*
X74755239Y-77521570D01*
X75025150Y-77251659D01*
X75240032Y-76930066D01*
X75315671Y-76747456D01*
X90647259Y-76747456D01*
X91310000Y-77410197D01*
X91972741Y-76747456D01*
X91885652Y-76599650D01*
X91698942Y-76504646D01*
X91497284Y-76447893D01*
X91288430Y-76431572D01*
X91080405Y-76456309D01*
X90881203Y-76521155D01*
X90734348Y-76599650D01*
X90647259Y-76747456D01*
X75315671Y-76747456D01*
X75388044Y-76572732D01*
X75463500Y-76193388D01*
X75463500Y-75806612D01*
X124536500Y-75806612D01*
X124536500Y-76193388D01*
X124611956Y-76572732D01*
X124759968Y-76930066D01*
X124974850Y-77251659D01*
X125248341Y-77525150D01*
X125569934Y-77740032D01*
X125927268Y-77888044D01*
X126306612Y-77963500D01*
X126693388Y-77963500D01*
X127072732Y-77888044D01*
X127430066Y-77740032D01*
X127751659Y-77525150D01*
X128025150Y-77251659D01*
X128240032Y-76930066D01*
X128388044Y-76572732D01*
X128463500Y-76193388D01*
X128463500Y-75806612D01*
X128388044Y-75427268D01*
X128240032Y-75069934D01*
X128025150Y-74748341D01*
X127751659Y-74474850D01*
X127430066Y-74259968D01*
X127072732Y-74111956D01*
X126693388Y-74036500D01*
X126306612Y-74036500D01*
X125927268Y-74111956D01*
X125569934Y-74259968D01*
X125248341Y-74474850D01*
X124974850Y-74748341D01*
X124759968Y-75069934D01*
X124611956Y-75427268D01*
X124536500Y-75806612D01*
X75463500Y-75806612D01*
X75388044Y-75427268D01*
X75240032Y-75069934D01*
X75025150Y-74748341D01*
X74751659Y-74474850D01*
X74430066Y-74259968D01*
X74072732Y-74111956D01*
X73693388Y-74036500D01*
X73306612Y-74036500D01*
X72927268Y-74111956D01*
X72569934Y-74259968D01*
X72248341Y-74474850D01*
X71974850Y-74748341D01*
X71759968Y-75069934D01*
X71611956Y-75427268D01*
X71536500Y-75806612D01*
X70411334Y-75806612D01*
X70451557Y-75396393D01*
X70626855Y-74815777D01*
X70911592Y-74280264D01*
X71294919Y-73810258D01*
X71762235Y-73423661D01*
X72295749Y-73135192D01*
X72875121Y-72955846D01*
X73496708Y-72890514D01*
X73500783Y-72890500D01*
X126480905Y-72890500D01*
X127103607Y-72951557D01*
G37*
G04 #@! TD.AperFunction*
M02*
