M48
; DRILL file {KiCad (5.1.8)-1} date 01/06/21 21:55:44
; FORMAT={-:-/ absolute / inch / decimal}
; #@! TF.CreationDate,2021-01-06T21:55:44-05:00
; #@! TF.GenerationSoftware,Kicad,Pcbnew,(5.1.8)-1
FMAT,2
INCH
T1C0.0118
T2C0.0276
T3C0.0315
T4C0.0394
T5C0.0433
T6C0.0591
T7C0.0394
T8C0.0689
T9C0.1260
T10C0.1378
%
G90
G05
T1
X2.7955Y-2.9825
X2.7955Y-3.3289
X2.7955Y-3.6754
X2.7955Y-4.0219
X2.7955Y-4.3683
X2.7955Y-4.7148
X2.9844Y-3.14
X2.9844Y-3.8329
X2.9844Y-4.1793
X2.9844Y-4.9352
X3.0789Y-4.6518
X3.1104Y-2.9195
X3.1104Y-3.6124
X3.2364Y-3.2344
X3.2364Y-4.2738
X3.2364Y-4.8407
X3.2994Y-3.7699
X3.3624Y-3.014
X3.3624Y-4.4943
X3.4254Y-3.5494
X3.4569Y-4.0848
X3.4569Y-4.9667
X3.475Y-3.33
X3.475Y-3.4175
X3.4825Y-3.98
X3.52Y-4.8725
X3.5829Y-4.3053
X3.5829Y-4.7463
X3.6144Y-2.9195
X3.6144Y-3.2659
X3.6144Y-3.7069
X3.655Y-3.385
X3.6825Y-3.16
X3.7404Y-4.4943
X3.7575Y-3.445
X3.7719Y-3.8959
X3.7719Y-4.9352
X3.8348Y-3.1085
X3.8348Y-3.5809
X3.8978Y-4.2738
X3.9175Y-3.2675
X3.9293Y-4.6833
X3.9608Y-3.3289
X3.985Y-3.555
X3.9923Y-2.9195
X3.9923Y-3.7699
X4.0475Y-3.33
X4.0553Y-4.4628
X4.0868Y-4.8722
X4.1183Y-4.0219
X4.1725Y-3.14
X4.1813Y-3.203
X4.2443Y-3.5809
X4.2443Y-4.2423
X4.2758Y-4.7148
X4.3073Y-2.951
X4.3073Y-3.8644
X4.3703Y-4.9667
X4.4018Y-4.4313
X4.4648Y-3.2659
X4.4963Y-4.1478
X4.5125Y-3.51
X4.5278Y-3.6439
X4.5593Y-4.6203
X4.5907Y-3.014
X4.6537Y-4.8722
X4.7167Y-3.3604
X4.7482Y-3.9904
X4.7797Y-4.3053
X4.8112Y-3.7069
X4.8427Y-2.9195
X4.8742Y-4.5573
X4.9057Y-4.9667
X4.9687Y-3.14
X5.0002Y-3.4549
X5.0317Y-4.2108
X5.0317Y-4.7463
T2
X4.3945Y-3.2465
X4.3945Y-3.4465
X4.2567Y-3.2465
X4.2567Y-3.4465
X3.9811Y-3.2465
X3.9811Y-3.4465
X3.4055Y-3.837
X3.4055Y-4.037
X3.9811Y-4.4276
X3.9811Y-4.6276
X4.5323Y-3.2496
X4.5323Y-3.4496
X3.9811Y-3.837
X3.9811Y-4.037
X3.4055Y-4.4276
X3.4055Y-4.6276
T3
X4.6063Y-3.5827
X4.6063Y-3.6827
X4.6063Y-3.7827
X3.5433Y-3.787
X3.5433Y-3.887
X3.5433Y-3.987
X3.5433Y-4.087
X3.8433Y-3.787
X3.8433Y-3.887
X3.8433Y-3.987
X3.8433Y-4.087
X4.6701Y-3.248
X4.6701Y-3.4449
X4.6752Y-4.0157
X4.6752Y-4.0945
X4.6752Y-4.1732
X3.4055Y-3.248
X3.4055Y-3.4449
X4.1189Y-3.248
X4.1189Y-3.4449
X3.5433Y-4.3776
X3.5433Y-4.4776
X3.5433Y-4.5776
X3.5433Y-4.6776
X3.8433Y-4.3776
X3.8433Y-4.4776
X3.8433Y-4.5776
X3.8433Y-4.6776
X3.5949Y-3.6417
X3.7917Y-3.6417
X3.5949Y-3.0512
X3.7917Y-3.0512
X4.1701Y-3.5925
X4.1701Y-3.7894
X4.3701Y-3.5925
X4.3701Y-3.7894
X3.5949Y-4.2323
X3.7917Y-4.2323
X3.5433Y-3.1965
X3.5433Y-3.2965
X3.5433Y-3.3965
X3.5433Y-3.4965
X3.8433Y-3.1965
X3.8433Y-3.2965
X3.8433Y-3.3965
X3.8433Y-3.4965
T4
X4.9803Y-3.737
X4.9803Y-3.837
X4.9803Y-3.937
X4.9803Y-4.037
X4.9803Y-4.137
X3.5933Y-4.8425
X3.6933Y-4.8425
X3.7933Y-4.8425
T5
X4.6752Y-4.3996
X4.6752Y-4.6996
X4.1701Y-3.9567
X4.2701Y-3.9567
X4.3701Y-3.9567
T6
X4.6752Y-3.9331
X4.6752Y-4.2559
X3.0157Y-3.9961
X3.2244Y-3.8287
X3.2244Y-4.0453
X4.9409Y-3.2382
X4.9409Y-4.6358
T7
X2.8543Y-3.937
X3.1496Y-3.937
T8
X4.9409Y-3.5138
X4.9409Y-4.3602
T9
X4.9803Y-4.8819
X2.8937Y-4.8819
X2.8937Y-2.9921
X4.9803Y-2.9921
T10
X4.2701Y-4.6126
T0
M30
