G04 #@! TF.GenerationSoftware,KiCad,Pcbnew,(5.1.8)-1*
G04 #@! TF.CreationDate,2021-01-06T21:55:42-05:00*
G04 #@! TF.ProjectId,ECG_Amplifier,4543475f-416d-4706-9c69-666965722e6b,rev?*
G04 #@! TF.SameCoordinates,Original*
G04 #@! TF.FileFunction,Soldermask,Bot*
G04 #@! TF.FilePolarity,Negative*
%FSLAX46Y46*%
G04 Gerber Fmt 4.6, Leading zero omitted, Abs format (unit mm)*
G04 Created by KiCad (PCBNEW (5.1.8)-1) date 2021-01-06 21:55:42*
%MOMM*%
%LPD*%
G01*
G04 APERTURE LIST*
G04 #@! TA.AperFunction,Profile*
%ADD10C,0.254000*%
G04 #@! TD*
%ADD11C,1.602000*%
%ADD12C,1.402000*%
%ADD13C,2.352000*%
%ADD14C,3.302000*%
%ADD15C,2.602000*%
%ADD16C,1.102000*%
%ADD17O,1.802000X1.802000*%
%ADD18C,1.852000*%
%ADD19C,3.102000*%
%ADD20O,2.007000X2.102000*%
%ADD21O,3.602000X3.602000*%
%ADD22O,1.702000X1.702000*%
%ADD23O,1.502000X1.502000*%
%ADD24C,1.502000*%
%ADD25C,1.702000*%
%ADD26O,2.302000X2.302000*%
%ADD27C,0.150000*%
G04 APERTURE END LIST*
D10*
X126500000Y-127500000D02*
G75*
G03*
X130000000Y-124000000I0J3500000D01*
G01*
X130000000Y-76000000D02*
G75*
G03*
X126500000Y-72500000I-3500000J0D01*
G01*
X70000000Y-124000000D02*
G75*
G03*
X73500000Y-127500000I3500000J0D01*
G01*
X73500000Y-72500000D02*
G75*
G03*
X70000000Y-76000000I0J-3500000D01*
G01*
X70000000Y-76000000D02*
X70000000Y-124000000D01*
X130000000Y-76000000D02*
X130000000Y-124000000D01*
X73500000Y-127500000D02*
X126500000Y-127500000D01*
X73500000Y-72500000D02*
X126500000Y-72500000D01*
X126500000Y-127500000D02*
G75*
G03*
X130000000Y-124000000I0J3500000D01*
G01*
X130000000Y-76000000D02*
G75*
G03*
X126500000Y-72500000I-3500000J0D01*
G01*
X70000000Y-124000000D02*
G75*
G03*
X73500000Y-127500000I3500000J0D01*
G01*
X73500000Y-72500000D02*
G75*
G03*
X70000000Y-76000000I0J-3500000D01*
G01*
X70000000Y-76000000D02*
X70000000Y-124000000D01*
X130000000Y-76000000D02*
X130000000Y-124000000D01*
X73500000Y-127500000D02*
X126500000Y-127500000D01*
X73500000Y-72500000D02*
X126500000Y-72500000D01*
G36*
G01*
X116250000Y-90199000D02*
X117750000Y-90199000D01*
G75*
G02*
X117801000Y-90250000I0J-51000D01*
G01*
X117801000Y-91750000D01*
G75*
G02*
X117750000Y-91801000I-51000J0D01*
G01*
X116250000Y-91801000D01*
G75*
G02*
X116199000Y-91750000I0J51000D01*
G01*
X116199000Y-90250000D01*
G75*
G02*
X116250000Y-90199000I51000J0D01*
G01*
G37*
D11*
X117000000Y-96080000D03*
X117000000Y-93540000D03*
D12*
X118750000Y-104000000D03*
D13*
X118750000Y-99900000D03*
X118750000Y-108100000D03*
D12*
X118750000Y-106000000D03*
X118750000Y-102000000D03*
D14*
X126500000Y-124000000D03*
X73500000Y-124000000D03*
X126500000Y-76000000D03*
X73500000Y-76000000D03*
D15*
X81900000Y-102750000D03*
X81900000Y-97250000D03*
X76600000Y-101500000D03*
D16*
X80000000Y-100000000D03*
X72500000Y-100000000D03*
D17*
X126500000Y-105080000D03*
X126500000Y-102540000D03*
X126500000Y-100000000D03*
X126500000Y-97460000D03*
G36*
G01*
X125599000Y-95770000D02*
X125599000Y-94070000D01*
G75*
G02*
X125650000Y-94019000I51000J0D01*
G01*
X127350000Y-94019000D01*
G75*
G02*
X127401000Y-94070000I0J-51000D01*
G01*
X127401000Y-95770000D01*
G75*
G02*
X127350000Y-95821000I-51000J0D01*
G01*
X125650000Y-95821000D01*
G75*
G02*
X125599000Y-95770000I0J51000D01*
G01*
G37*
D18*
X125500000Y-110750000D03*
D19*
X125500000Y-117750000D03*
D18*
X125500000Y-89250000D03*
G36*
G01*
X127000000Y-83801000D02*
X124000000Y-83801000D01*
G75*
G02*
X123949000Y-83750000I0J51000D01*
G01*
X123949000Y-80750000D01*
G75*
G02*
X124000000Y-80699000I51000J0D01*
G01*
X127000000Y-80699000D01*
G75*
G02*
X127051000Y-80750000I0J-51000D01*
G01*
X127051000Y-83750000D01*
G75*
G02*
X127000000Y-83801000I-51000J0D01*
G01*
G37*
D20*
X105920000Y-100500000D03*
X108460000Y-100500000D03*
G36*
G01*
X112003500Y-99500000D02*
X112003500Y-101500000D01*
G75*
G02*
X111952500Y-101551000I-51000J0D01*
G01*
X110047500Y-101551000D01*
G75*
G02*
X109996500Y-101500000I0J51000D01*
G01*
X109996500Y-99500000D01*
G75*
G02*
X110047500Y-99449000I51000J0D01*
G01*
X111952500Y-99449000D01*
G75*
G02*
X112003500Y-99500000I0J-51000D01*
G01*
G37*
D21*
X108460000Y-117160000D03*
D22*
X97620000Y-81190000D03*
X90000000Y-88810000D03*
X97620000Y-83730000D03*
X90000000Y-86270000D03*
X97620000Y-86270000D03*
X90000000Y-83730000D03*
X97620000Y-88810000D03*
G36*
G01*
X89149000Y-81990000D02*
X89149000Y-80390000D01*
G75*
G02*
X89200000Y-80339000I51000J0D01*
G01*
X90800000Y-80339000D01*
G75*
G02*
X90851000Y-80390000I0J-51000D01*
G01*
X90851000Y-81990000D01*
G75*
G02*
X90800000Y-82041000I-51000J0D01*
G01*
X89200000Y-82041000D01*
G75*
G02*
X89149000Y-81990000I0J51000D01*
G01*
G37*
X97620000Y-96190000D03*
X90000000Y-103810000D03*
X97620000Y-98730000D03*
X90000000Y-101270000D03*
X97620000Y-101270000D03*
X90000000Y-98730000D03*
X97620000Y-103810000D03*
G36*
G01*
X89149000Y-96990000D02*
X89149000Y-95390000D01*
G75*
G02*
X89200000Y-95339000I51000J0D01*
G01*
X90800000Y-95339000D01*
G75*
G02*
X90851000Y-95390000I0J-51000D01*
G01*
X90851000Y-96990000D01*
G75*
G02*
X90800000Y-97041000I-51000J0D01*
G01*
X89200000Y-97041000D01*
G75*
G02*
X89149000Y-96990000I0J51000D01*
G01*
G37*
D23*
X101120000Y-87540000D03*
D24*
X101120000Y-82460000D03*
D22*
X97620000Y-111190000D03*
X90000000Y-118810000D03*
X97620000Y-113730000D03*
X90000000Y-116270000D03*
X97620000Y-116270000D03*
X90000000Y-113730000D03*
X97620000Y-118810000D03*
G36*
G01*
X89149000Y-111990000D02*
X89149000Y-110390000D01*
G75*
G02*
X89200000Y-110339000I51000J0D01*
G01*
X90800000Y-110339000D01*
G75*
G02*
X90851000Y-110390000I0J-51000D01*
G01*
X90851000Y-111990000D01*
G75*
G02*
X90800000Y-112041000I-51000J0D01*
G01*
X89200000Y-112041000D01*
G75*
G02*
X89149000Y-111990000I0J51000D01*
G01*
G37*
G36*
G01*
X92120000Y-123901000D02*
X90420000Y-123901000D01*
G75*
G02*
X90369000Y-123850000I0J51000D01*
G01*
X90369000Y-122150000D01*
G75*
G02*
X90420000Y-122099000I51000J0D01*
G01*
X92120000Y-122099000D01*
G75*
G02*
X92171000Y-122150000I0J-51000D01*
G01*
X92171000Y-123850000D01*
G75*
G02*
X92120000Y-123901000I-51000J0D01*
G01*
G37*
D17*
X93810000Y-123000000D03*
X96350000Y-123000000D03*
D23*
X86500000Y-112460000D03*
D24*
X86500000Y-117540000D03*
D23*
X101120000Y-112460000D03*
D24*
X101120000Y-117540000D03*
D23*
X101120000Y-97460000D03*
D24*
X101120000Y-102540000D03*
D23*
X86500000Y-102540000D03*
D24*
X86500000Y-97460000D03*
D25*
X91310000Y-107500000D03*
X96310000Y-107500000D03*
D23*
X115120000Y-87620000D03*
D24*
X115120000Y-82540000D03*
D23*
X108120000Y-82460000D03*
D24*
X108120000Y-87540000D03*
D23*
X111620000Y-82460000D03*
D24*
X111620000Y-87540000D03*
D26*
X118750000Y-119370000D03*
G36*
G01*
X117650000Y-110599000D02*
X119850000Y-110599000D01*
G75*
G02*
X119901000Y-110650000I0J-51000D01*
G01*
X119901000Y-112850000D01*
G75*
G02*
X119850000Y-112901000I-51000J0D01*
G01*
X117650000Y-112901000D01*
G75*
G02*
X117599000Y-112850000I0J51000D01*
G01*
X117599000Y-110650000D01*
G75*
G02*
X117650000Y-110599000I51000J0D01*
G01*
G37*
D25*
X105920000Y-91250000D03*
X105920000Y-96250000D03*
X111000000Y-91250000D03*
X111000000Y-96250000D03*
X118620000Y-87500000D03*
X118620000Y-82500000D03*
X91310000Y-77500000D03*
X96310000Y-77500000D03*
X104620000Y-82500000D03*
X104620000Y-87500000D03*
X86500000Y-87500000D03*
X86500000Y-82500000D03*
X91310000Y-92500000D03*
X96310000Y-92500000D03*
D27*
G36*
X118867605Y-106686878D02*
G01*
X118867995Y-106688840D01*
X118866682Y-106690111D01*
X118849294Y-106695386D01*
X118828031Y-106706751D01*
X118809394Y-106722046D01*
X118794098Y-106740683D01*
X118782733Y-106761946D01*
X118775733Y-106785021D01*
X118773370Y-106809012D01*
X118775733Y-106833004D01*
X118782733Y-106856079D01*
X118794098Y-106877342D01*
X118809393Y-106895979D01*
X118828030Y-106911275D01*
X118849293Y-106922640D01*
X118866683Y-106927915D01*
X118868050Y-106929375D01*
X118867469Y-106931289D01*
X118865712Y-106931791D01*
X118865069Y-106931663D01*
X118634931Y-106931663D01*
X118634287Y-106931791D01*
X118632393Y-106931148D01*
X118632003Y-106929186D01*
X118633316Y-106927915D01*
X118650706Y-106922640D01*
X118671970Y-106911275D01*
X118690607Y-106895979D01*
X118705902Y-106877342D01*
X118717267Y-106856079D01*
X118724267Y-106833004D01*
X118726630Y-106809012D01*
X118724267Y-106785022D01*
X118717267Y-106761947D01*
X118705902Y-106740683D01*
X118690606Y-106722046D01*
X118671969Y-106706751D01*
X118650706Y-106695386D01*
X118633318Y-106690111D01*
X118631951Y-106688651D01*
X118632532Y-106686737D01*
X118634289Y-106686235D01*
X118681489Y-106695624D01*
X118818511Y-106695624D01*
X118865711Y-106686235D01*
X118867605Y-106686878D01*
G37*
G36*
X118867607Y-101068852D02*
G01*
X118867997Y-101070814D01*
X118866684Y-101072085D01*
X118849294Y-101077360D01*
X118828030Y-101088725D01*
X118809393Y-101104021D01*
X118794098Y-101122658D01*
X118782733Y-101143921D01*
X118775733Y-101166996D01*
X118773370Y-101190987D01*
X118775733Y-101214978D01*
X118782733Y-101238053D01*
X118794098Y-101259317D01*
X118809394Y-101277954D01*
X118828031Y-101293249D01*
X118849294Y-101304614D01*
X118866682Y-101309889D01*
X118868049Y-101311349D01*
X118867468Y-101313263D01*
X118865711Y-101313765D01*
X118818511Y-101304376D01*
X118681489Y-101304376D01*
X118634289Y-101313765D01*
X118632395Y-101313122D01*
X118632005Y-101311160D01*
X118633318Y-101309889D01*
X118650706Y-101304614D01*
X118671969Y-101293249D01*
X118690606Y-101277954D01*
X118705902Y-101259317D01*
X118717267Y-101238054D01*
X118724267Y-101214979D01*
X118726630Y-101190987D01*
X118724267Y-101166996D01*
X118717267Y-101143921D01*
X118705902Y-101122658D01*
X118690607Y-101104021D01*
X118671970Y-101088725D01*
X118650707Y-101077360D01*
X118633317Y-101072085D01*
X118631950Y-101070625D01*
X118632531Y-101068711D01*
X118634288Y-101068209D01*
X118634931Y-101068337D01*
X118865069Y-101068337D01*
X118865713Y-101068209D01*
X118867607Y-101068852D01*
G37*
M02*
